{
.appVersion = "3436";
.formatVersion = 3;
DisplayStrings = (
"ℜ",
"∹",
"/zero.zero.tf",
"/zero.zero/zero.zero/zero.zero.lf",
"}",
"/braceright.mid",
"∓",
">≷≶"
);
axes = (
{
name = Weight;
tag = wght;
},
{
name = "Math weight";
tag = WGHT;
},
{
name = "Math slant";
tag = MLNT;
}
);
classes = (
{
automatic = 1;

glyphs = (
{
glyphname = florin;
kernLeft = florin;
kernRight = florin;
lastChange = "2024-11-24 22:50:12 +0000";
layers = (
{
layerId = "B5195C1E-69AB-4BC6-9855-DF55601A0735";
shapes = (
{
closed = 1;
nodes = (
(570,1369,o),
(492,1247,o),
(436,1006,cs),
(417,924,o),
(403,823,o),
(393,732,c),
(366,732,o),
(208,731,o),
(182,727,c),
(180,712,o),
(178,667,o),
(178,652,c),
(217,656,o),
(329,661,o),
(387,661,c),
(357,371,o),
(323,47,o),
(299,-98,cs),
(269,-280,o),
(243,-386,o),
(131,-386,cs),
(92,-386,o),
(57,-350,o),
(43,-333,c),
(-17,-400,l),
(1,-423,o),
(47,-466,o),
(134,-466,cs),
(235,-466,o),
(333,-387,o),
(370,-154,cs),
(410,101,o),
(441,378,o),
(469,650,c),
(597,638,o),
(707,626,o),
(725,622,c),
(731,647,o),
(735,679,o),
(736,699,c),
(664,713,o),
(545,722,o),
(475,727,c),
(483,795,o),
(498,907,o),
(514,977,cs),
(558,1168,o),
(595,1296,o),
(741,1296,cs),
(843,1296,o),
(893,1209,o),
(900,1172,c),
(919,1180,o),
(956,1200,o),
(970,1211,c),
(958,1276,o),
(867,1369,o),
(746,1369,cs)
);
}
);
width = 960;
},
{
layerId = "B5042207-EFBA-41B6-8DFD-104A953B46A6";
shapes = (
{
closed = 1;
nodes = (
(518,1434,o),
(403,1336,o),
(340,1110,cs),
(327,1063,o),
(318,1015,o),
(311,966,c),
(289,968,o),
(209,971,o),
(146,971,c),
(116,857,o),
(102,714,o),
(102,632,c),
(128,635,o),
(221,642,o),
(264,642,c),
(247,472,o),
(214,143,o),
(204,51,cs),
(186,-113,o),
(141,-164,o),
(79,-164,cs),
(36,-164,o),
(14,-151,o),
(-16,-127,c),
(-173,-408,l),
(-137,-448,o),
(-35,-507,o),
(135,-507,cs),
(298,-507,o),
(515,-420,o),
(574,-8,cs),
(594,132,o),
(620,531,o),
(620,606,c),
(735,597,o),
(838,569,o),
(857,562,c),
(882,652,o),
(905,793,o),
(919,879,c),
(883,890,o),
(696,914,o),
(648,920,c),
(648,940,o),
(662,995,o),
(667,1013,cs),
(684,1073,o),
(727,1126,o),
(793,1126,cs),
(857,1126,o),
(887,1103,o),
(925,1049,c),
(959,1084,o),
(1047,1197,o),
(1094,1277,c),
(1054,1337,o),
(943,1434,o),
(757,1434,cs)
);
}
);
width = 960;
}
);
subCategory = Parenthesis;
unicode = 402;
},
{
glyphname = spadeBlackSuit;
lastChange = "2025-11-09 13:30:55 +0000";
layers = (
{
layerId = "B5195C1E-69AB-4BC6-9855-DF55601A0735";
shapes = (
{
closed = 1;
nodes = (
(956,247,o),
(1034,106,o),
(1179,106,cs),
(1369,106,o),
(1493,293,o),
(1493,489,cs),
(1493,854,o),
(1058,825,o),
(872,1260,c),
(697,850,o),
(210,839,o),
(200,504,cs),
(194,300,o),
(355,106,o),
(517,106,cs),
(632,106,o),
(779,248,o),
(849,303,c)
);
},
{
closed = 1;
nodes = (
(790,27,o),
(581,40,o),
(443,-177,c),
(719,-206,o),
(995,-208,o),
(1271,-185,c),
(1126,10,o),
(922,19,o),
(858,494,c)
);
}
);
width = 1693;
},
{
layerId = "B5042207-EFBA-41B6-8DFD-104A953B46A6";
shapes = (
{
closed = 1;
nodes = (
(1076,218,o),
(1167,45,o),
(1335,45,cs),
(1555,45,o),
(1699,275,o),
(1699,518,cs),
(1699,969,o),
(1195,933,o),
(979,1470,c),
(776,964,o),
(212,950,o),
(200,536,cs),
(193,285,o),
(380,45,o),
(567,45,cs),
(701,45,o),
(871,220,o),
(952,288,c)
);
},
{
closed = 1;
nodes = (
(884,-53,o),
(642,-13,o),
(482,-280,c),
(802,-317,o),
(1122,-319,o),
(1442,-290,c),
(1274,-49,o),
(1037,-63,o),
(963,523,c)
);
}
);
width = 1899;
}
);
unicode = 9824;
},
{
glyphname = heartWhiteSuit;
lastChange = "2025-11-09 13:30:55 +0000";
layers = (
{
layerId = "B5195C1E-69AB-4BC6-9855-DF55601A0735";
shapes = (
{
closed = 1;
nodes = (
(1024,842,o),
(1126,1056,o),
(1285,1062,cs),
(1445,1068,o),
(1555,895,o),
(1555,715,cs),
(1555,382,o),
(1043,-83,o),
(942,-83,cs),
(896,-83,o),
(290,284,o),
(278,702,cs),
(272,886,o),
(420,1062,o),
(551,1062,cs),
(710,1062,o),
(829,862,o),
(930,703,c)
);
},
{
closed = 1;
nodes = (
(876,883,o),
(783,1140,o),
(551,1140,cs),
(372,1140,o),
(193,925,o),
(200,699,cs),
(213,244,o),
(867,-161,o),
(942,-161,cs),
(1070,-161,o),
(1633,344,o),
(1633,715,cs),
(1633,933,o),
(1496,1140,o),
(1285,1140,cs),
(1054,1140,o),
(1016,907,o),
(919,822,c)
);
}
);
width = 1833;
},
{
layerId = "B5042207-EFBA-41B6-8DFD-104A953B46A6";
shapes = (
{
closed = 1;
nodes = (
(1287,664,o),
(1454,966,o),
(1625,966,cs),
(1738,966,o),
(1820,815,o),
(1820,715,cs),
(1820,507,o),
(1316,60,o),
(1202,82,c),
(1112,82,o),
(575,488,o),
(575,715,cs),
(575,845,o),
(673,957,o),
(750,957,cs),
(879,957,o),
(1120,636,o),
(1202,558,c)
);
},
{
closed = 1;
nodes = (
(1120,1159,o),
(962,1347,o),
(734,1347,cs),
(472,1347,o),
(200,1014,o),
(200,715,cs),
(200,231,o),
(1063,-303,o),
(1194,-303,cs),
(1378,-303,o),
(2188,288,o),
(2188,735,cs),
(2188,1025,o),
(1904,1347,o),
(1638,1347,cs),
(1423,1347,o),
(1271,1193,o),
(1190,1047,c)
);
}
);
width = 2388;
}
);
unicode = 9825;
},
{
glyphname = diamondWhiteSuit;
lastChange = "2025-11-09 13:30:55 +0000";
layers = (
{
layerId = "B5195C1E-69AB-4BC6-9855-DF55601A0735";
shapes = (
{
closed = 1;
nodes = (
(990,-37,o),
(1226,305,o),
(1430,592,c),
(1247,824,o),
(982,1133,o),
(835,1404,c),
(646,1095,o),
(400,829,o),
(200,583,c),
(498,256,o),
(719,-24,o),
(855,-254,c)
);
},
{
closed = 1;
nodes = (
(741,71,o),
(553,300,o),
(292,589,c),
(464,805,o),
(662,981,o),
(819,1253,c),
(998,1013,o),
(1184,789,o),
(1329,601,c),
(1152,350,o),
(961,54,o),
(851,-126,c)
);
}
);
width = 1630;
},
{
layerId = "B5042207-EFBA-41B6-8DFD-104A953B46A6";
shapes = (
{
closed = 1;
nodes = (
(1191,-203,o),
(1479,241,o),
(1733,610,c),
(1543,885,o),
(1222,1279,o),
(996,1545,c),
(653,1160,o),
(452,896,o),
(200,597,c),
(491,219,o),
(788,-147,o),
(1010,-402,c)
);
},
{
closed = 1;
nodes = (
(888,262,o),
(770,423,o),
(628,608,c),
(744,760,o),
(860,892,o),
(991,1049,c),
(1116,893,o),
(1230,735,o),
(1338,602,c),
(1232,435,o),
(1123,265,o),
(1015,122,c)
);
}
);
width = 1933;
}
);
unicode = 9826;
},
{
glyphname = clubBlackSuit;
lastChange = "2025-11-09 13:30:55 +0000";
layers = (
{
layerId = "B5195C1E-69AB-4BC6-9855-DF55601A0735";
shapes = (
{
closed = 1;
nodes = (
(644,1295,o),
(393,1005,o),
(610,792,c),
(414,829,o),
(200,714,o),
(200,528,cs),
(200,191,o),
(729,5,o),
(888,238,c),
(797,-29,o),
(633,-6,o),
(518,-187,c),
(794,-216,o),
(1070,-218,o),
(1346,-195,c),
(1221,-27,o),
(1052,-41,o),
(967,262,c),
(1182,58,o),
(1573,185,o),
(1573,470,cs),
(1573,806,o),
(1319,829,o),
(1156,829,c),
(1348,933,o),
(1229,1295,o),
(879,1295,cs)
);
}
);
width = 1773;
},
{
layerId = "B5042207-EFBA-41B6-8DFD-104A953B46A6";
shapes = (
{
closed = 1;
nodes = (
(719,1418,o),
(426,1103,o),
(680,872,c),
(450,931,o),
(200,787,o),
(200,586,cs),
(200,220,o),
(651,95,o),
(837,182,c),
(726,-56,o),
(662,-135,o),
(516,-223,c),
(839,-254,o),
(1255,-257,o),
(1577,-232,c),
(1489,-163,o),
(1348,-45,o),
(1262,168,c),
(1509,108,o),
(1806,213,o),
(1806,523,cs),
(1806,887,o),
(1509,912,o),
(1318,912,c),
(1543,1025,o),
(1404,1418,o),
(994,1418,cs)
);
}
);
width = 2006;
}
);
unicode = 9827;
},
{
glyphname = spadeWhiteSuit;
lastChange = "2025-11-09 13:30:55 +0000";
layers = (
{
layerId = "B5195C1E-69AB-4BC6-9855-DF55601A0735";
shapes = (
{
closed = 1;
nodes = (
(260,300,o),
(421,106,o),
(583,106,cs),
(655,106,o),
(739,161,o),
(809,216,c),
(817,207,o),
(826,199,o),
(834,190,c),
(740,14,o),
(607,-23,o),
(509,-177,c),
(785,-206,o),
(1061,-208,o),
(1337,-185,c),
(1228,-38,o),
(1085,2,o),
(993,218,c),
(999,223,o),
(1004,227,o),
(1010,232,c),
(1078,172,o),
(1145,106,o),
(1245,106,cs),
(1435,106,o),
(1559,293,o),
(1559,489,cs),
(1559,854,o),
(1124,825,o),
(938,1260,c),
(763,850,o),
(276,839,o),
(266,504,cs)
);
},
{
closed = 1;
nodes = (
(213,917,o),
(803,902,o),
(929,1390,c),
(935,1390,o),
(942,1390,o),
(948,1390,c),
(1099,870,o),
(1625,929,o),
(1625,489,cs),
(1625,263,o),
(1478,40,o),
(1245,40,cs),
(1229,40,o),
(1214,41,o),
(1198,44,c),
(1280,-31,o),
(1371,-92,o),
(1449,-241,c),
(1103,-278,o),
(752,-276,o),
(405,-231,c),
(470,-87,o),
(550,-22,o),
(625,44,c),
(610,41,o),
(597,40,o),
(583,40,cs),
(380,40,o),
(193,268,o),
(200,506,cs)
);
}
);
width = 1825;
},
{
layerId = "B5042207-EFBA-41B6-8DFD-104A953B46A6";
shapes = (
{
closed = 1;
nodes = (
(500,385,o),
(565,287,o),
(607,287,cs),
(737,287,o),
(822,325,o),
(847,366,c),
(860,355,o),
(928,328,o),
(963,282,c),
(975,158,o),
(957,4,o),
(867,-85,c),
(924,-131,o),
(1058,-112,o),
(1126,-87,c),
(1039,-14,o),
(1039,172,o),
(1039,283,c),
(1039,309,o),
(1135,351,o),
(1144,366,c),
(1163,396,o),
(1268,287,o),
(1375,287,cs),
(1443,287,o),
(1477,373,o),
(1477,518,cs),
(1477,741,o),
(1248,740,o),
(1013,1013,c),
(769,752,o),
(509,711,o),
(504,530,c)
);
},
{
closed = 1;
nodes = (
(213,984,o),
(805,996,o),
(991,1509,c),
(1010,1508,o),
(1029,1508,o),
(1048,1507,c),
(1252,962,o),
(1779,1001,o),
(1779,518,cs),
(1779,257,o),
(1610,46,o),
(1375,5,cs),
(1360,2,o),
(1319,0,o),
(1268,15,c),
(1375,-135,o),
(1438,-127,o),
(1550,-324,c),
(1188,-361,o),
(823,-360,o),
(459,-313,c),
(561,-122,o),
(612,-85,o),
(709,0,c),
(646,0,o),
(621,4,o),
(607,5,cs),
(394,20,o),
(192,265,o),
(200,537,cs)
);
}
);
width = 1979;
}
);
unicode = 9828;
},
{
glyphname = heartBlackSuit;
lastChange = "2025-11-09 13:30:55 +0000";
layers = (
{
layerId = "B5195C1E-69AB-4BC6-9855-DF55601A0735";
shapes = (
{
closed = 1;
nodes = (
(876,883,o),
(783,1140,o),
(551,1140,cs),
(372,1140,o),
(193,925,o),
(200,699,cs),
(213,244,o),
(867,-161,o),
(942,-161,cs),
(1010,-161,o),
(1633,344,o),
(1633,715,cs),
(1633,933,o),
(1496,1140,o),
(1285,1140,cs),
(1054,1140,o),
(1016,907,o),
(919,822,c)
);
}
);
width = 1833;
},
{
layerId = "B5042207-EFBA-41B6-8DFD-104A953B46A6";
shapes = (
{
closed = 1;
nodes = (
(1056,1024,o),
(957,1281,o),
(668,1281,cs),
(447,1281,o),
(200,982,o),
(200,715,cs),
(200,274,o),
(1030,-237,o),
(1128,-237,cs),
(1276,-237,o),
(2025,329,o),
(2025,735,cs),
(2025,993,o),
(1797,1281,o),
(1572,1281,cs),
(1303,1281,o),
(1212,1053,o),
(1128,952,c)
);
}
);
width = 2225;
}
);
unicode = 9829;
},
{
glyphname = diamondBlackSuit;
lastChange = "2025-11-09 13:30:55 +0000";
layers = (
{
layerId = "B5195C1E-69AB-4BC6-9855-DF55601A0735";
shapes = (
{
closed = 1;
nodes = (
(1015,-21,o),
(1259,304,o),
(1469,576,c),
(1302,795,o),
(1029,1088,o),
(855,1344,c),
(660,1051,o),
(407,799,o),
(200,566,c),
(452,258,o),
(680,-8,o),
(876,-226,c)
);
}
);
width = 1669;
},
{
layerId = "B5042207-EFBA-41B6-8DFD-104A953B46A6";
shapes = (
{
closed = 1;
nodes = (
(992,-269,o),
(1574,496,o),
(1628,592,c),
(1587,706,o),
(1001,1438,o),
(917,1484,c),
(858,1431,o),
(255,700,o),
(200,612,c),
(265,504,o),
(865,-271,o),
(941,-338,c)
);
}
);
width = 1828;
}
);
unicode = 9830;
},
{
glyphname = clubWhiteSuit;
lastChange = "2025-11-09 13:31:05 +0000";
layers = (
{
layerId = "B5195C1E-69AB-4BC6-9855-DF55601A0735";
shapes = (
{
closed = 1;
nodes = (
(644,1325,o),
(393,1035,o),
(610,822,c),
(414,876,o),
(200,744,o),
(200,558,cs),
(200,221,o),
(691,65,o),
(827,190,c),
(690,-55,o),
(644,-22,o),
(518,-187,c),
(814,-228,o),
(1070,-218,o),
(1346,-195,c),
(1221,-27,o),
(1136,-69,o),
(1051,214,c),
(1221,143,o),
(1573,215,o),
(1573,500,cs),
(1573,836,o),
(1319,859,o),
(1156,859,c),
(1348,963,o),
(1229,1325,o),
(879,1325,cs)
);
},
{
closed = 1;
nodes = (
(1221,1253,o),
(1231,999,o),
(1088,841,c),
(1103,810,l),
(1334,793,o),
(1502,778,o),
(1502,504,cs),
(1502,279,o),
(1236,210,o),
(1035,283,c),
(1019,274,o),
(1003,264,o),
(987,255,c),
(1061,-36,o),
(1122,-56,o),
(1216,-138,c),
(973,-152,o),
(876,-153,o),
(639,-136,c),
(701,-79,o),
(826,-17,o),
(882,248,c),
(873,258,o),
(865,269,o),
(856,279,c),
(681,108,o),
(269,281,o),
(269,560,cs),
(269,707,o),
(429,789,o),
(649,762,c),
(680,799,l),
(489,1098,o),
(686,1253,o),
(878,1253,cs)
);
}
);
width = 1773;
},
{
layerId = "B5042207-EFBA-41B6-8DFD-104A953B46A6";
shapes = (
{
closed = 1;
nodes = (
(782,1489,o),
(474,1193,o),
(644,935,c),
(425,940,o),
(200,870,o),
(200,596,cs),
(200,248,o),
(610,107,o),
(786,137,c),
(678,-78,o),
(591,-170,o),
(451,-292,c),
(818,-340,o),
(1391,-330,o),
(1764,-292,c),
(1717,-239,o),
(1535,-106,o),
(1417,127,c),
(1645,110,o),
(1929,223,o),
(1929,546,c),
(1929,902,o),
(1672,943,o),
(1483,958,c),
(1629,1158,o),
(1444,1489,o),
(1055,1489,cs)
);
},
{
closed = 1;
nodes = (
(1262,1135,o),
(1265,931,o),
(1187,780,c),
(1295,683,l),
(1406,780,o),
(1600,724,o),
(1594,580,cs),
(1588,432,o),
(1430,294,o),
(1211,477,c),
(1186,442,o),
(1160,407,o),
(1135,372,c),
(1146,206,o),
(1219,51,o),
(1283,-18,c),
(1146,-54,o),
(1080,-54,o),
(941,-27,c),
(1019,51,o),
(1047,223,o),
(1073,367,c),
(1047,405,o),
(934,462,o),
(926,472,c),
(792,332,o),
(566,441,o),
(566,583,cs),
(566,721,o),
(759,760,o),
(904,683,c),
(971,788,l),
(847,986,o),
(911,1135,o),
(1066,1135,cs)
);
}
);
width = 2029;
}
);
unicode = 9831;
},
{
glyphname = checkmark;
lastChange = "2024-11-28 19:43:00 +0000";
layers = (
{
layerId = "B5195C1E-69AB-4BC6-9855-DF55601A0735";
shapes = (
{
closed = 1;
nodes = (
(421,-19,o),
(440,-18,o),
(455,-16,c),
(464,4,o),
(598,329,o),
(912,1083,c),
(892,1101,o),
(857,1111,o),
(825,1116,c),
(821,1095,o),
(518,356,o),
(395,49,c),
(313,170,o),
(263,239,o),
(171,432,c),
(149,432,o),
(94,423,o),
(80,418,c),
(164,262,o),
(215,167,o),
(324,-10,c),
(340,-16,o),
(371,-19,o),
(395,-19,cs)
);
}
);
width = 992;
},
{
layerId = "B5042207-EFBA-41B6-8DFD-104A953B46A6";
shapes = (
{
closed = 1;
nodes = (
(784,-22,o),
(868,-21,o),
(914,-16,c),
(940,79,o),
(1204,826,o),
(1292,1291,c),
(1160,1332,o),
(979,1356,o),
(847,1356,c),
(818,1197,o),
(724,726,o),
(680,428,c),
(610,526,o),
(544,641,o),
(500,689,c),
(369,698,o),
(142,680,o),
(44,631,c),
(216,275,o),
(336,167,o),
(460,-10,c),
(509,-16,o),
(605,-22,o),
(699,-22,cs)
);
}
);
width = 1336;
}
);
metricLeft = "=equal";
metricRight = "=equal";
unicode = 10003;
},
{
glyphname = at;
kernLeft = at;
kernRight = at;
lastChange = "2024-11-28 19:43:00 +0000";
layers = (
{
layerId = "B5042207-EFBA-41B6-8DFD-104A953B46A6";
shapes = (
{
closed = 1;
nodes = (
(1116,-41,o),
(1350,34,o),
(1438,178,c),
(1195,364,l),
(1137,296,o),
(1010,234,o),
(854,234,cs),
(601,234,o),
(344,379,o),
(344,655,cs),
(344,999,o),
(664,1213,o),
(1035,1213,cs),
(1330,1213,o),
(1525,1032,o),
(1525,747,cs),
(1525,673,o),
(1507,617,o),
(1461,617,cs),
(1430,617,o),
(1405,630,o),
(1393,687,cs),
(1388,711,o),
(1350,902,o),
(1308,1116,c),
(1247,1113,o),
(1118,1108,o),
(1072,1108,c),
(1073,1094,o),
(1077,1056,o),
(1082,1034,c),
(1036,1079,o),
(965,1089,o),
(875,1089,cs),
(650,1089,o),
(480,912,o),
(480,694,cs),
(480,477,o),
(623,350,o),
(854,350,cs),
(993,350,o),
(1147,391,o),
(1205,485,c),
(1243,398,o),
(1359,337,o),
(1480,337,cs),
(1720,337,o),
(1843,501,o),
(1843,729,cs),
(1843,1200,o),
(1508,1497,o),
(1016,1497,cs),
(466,1497,o),
(-1,1165,o),
(-1,637,cs),
(-1,194,o),
(376,-41,o),
(834,-41,cs)
);
},
{
closed = 1;
nodes = (
(861,634,o),
(808,657,o),
(808,725,cs),
(808,776,o),
(856,819,o),
(967,819,cs),
(1027,819,o),
(1067,817,o),
(1094,807,c),
(1113,721,l),
(1066,674,o),
(1003,634,o),
(923,634,cs)
);
}
);
width = 1920;
},
{
layerId = "B5195C1E-69AB-4BC6-9855-DF55601A0735";
shapes = (
{
closed = 1;
nodes = (
(1150,-41,o),
(1334,70,o),
(1398,178,c),
(1337,238,l),
(1275,130,o),
(1135,34,o),
(839,34,cs),
(391,34,o),
(158,266,o),
(158,617,cs),
(158,1083,o),
(507,1419,o),
(950,1419,cs),
(1378,1419,o),
(1657,1195,o),
(1657,775,cs),
(1657,623,o),
(1599,438,o),
(1447,438,cs),
(1346,438,o),
(1310,482,o),
(1285,581,cs),
(1274,624,o),
(1207,930,o),
(1174,1123,c),
(1159,1123,o),
(1113,1119,o),
(1089,1116,c),
(1092,1092,o),
(1096,1055,o),
(1099,1026,c),
(1065,1053,o),
(1005,1090,o),
(894,1090,cs),
(691,1090,o),
(532,910,o),
(532,696,cs),
(532,496,o),
(661,356,o),
(869,356,cs),
(1034,356,o),
(1178,440,o),
(1203,561,c),
(1227,431,o),
(1319,369,o),
(1440,369,cs),
(1638,369,o),
(1732,558,o),
(1732,765,cs),
(1732,1219,o),
(1416,1497,o),
(966,1497,cs),
(455,1497,o),
(75,1138,o),
(75,614,cs),
(75,181,o),
(392,-41,o),
(834,-41,cs)
);
},
{
closed = 1;
nodes = (
(730,434,o),
(619,526,o),
(619,691,cs),
(619,884,o),
(735,1018,o),
(901,1018,cs),
(978,1018,o),
(1063,988,o),
(1113,942,c),
(1176,649,l),
(1135,519,o),
(1031,434,o),
(858,434,cs)
);
}
);
width = 1920;
}
);
unicode = 64;
},
{
glyphname = ampersand;
kernLeft = ampersand;
kernRight = ampersand;
lastChange = "2024-11-28 19:43:00 +0000";
layers = (
{
layerId = "B5042207-EFBA-41B6-8DFD-104A953B46A6";
shapes = (
{
closed = 1;
nodes = (
(797,-90,o),
(964,26,o),
(1034,112,c),
(1071,63,o),
(1127,-11,o),
(1163,-57,c),
(1240,-11,o),
(1325,84,o),
(1378,163,c),
(1329,217,o),
(1274,272,o),
(1221,324,c),
(1260,363,o),
(1330,438,o),
(1349,487,c),
(1293,547,o),
(1181,637,o),
(1119,666,c),
(1105,637,o),
(1050,558,o),
(1021,532,c),
(916,652,o),
(837,742,o),
(778,804,c),
(895,906,o),
(956,982,o),
(956,1126,cs),
(956,1313,o),
(786,1427,o),
(596,1427,cs),
(385,1427,o),
(197,1338,o),
(197,1120,cs),
(197,977,o),
(296,879,o),
(339,839,c),
(203,754,o),
(30,617,o),
(30,359,cs),
(30,53,o),
(245,-90,o),
(556,-90,cs)
);
},
{
closed = 1;
nodes = (
(455,196,o),
(384,250,o),
(384,367,cs),
(384,489,o),
(436,579,o),
(536,654,c),
(625,548,o),
(744,419,o),
(835,322,c),
(783,261,o),
(664,196,o),
(566,196,cs)
);
},
{
closed = 1;
nodes = (
(549,1005,o),
(512,1068,o),
(512,1125,cs),
(512,1178,o),
(551,1195,o),
(582,1195,cs),
(621,1195,o),
(655,1174,o),
(655,1128,cs),
(655,1071,o),
(610,1004,o),
(575,979,c)
);
}
);
width = 1395;
},
{
layerId = "B5195C1E-69AB-4BC6-9855-DF55601A0735";
shapes = (
{
closed = 1;
nodes = (
(830,-100,o),
(995,103,o),
(1024,141,c),
(1056,103,o),
(1148,-6,o),
(1191,-53,c),
(1202,-47,o),
(1253,0,o),
(1265,13,c),
(1216,68,o),
(1125,169,o),
(1074,224,c),
(1142,324,o),
(1232,482,o),
(1244,511,c),
(1222,531,o),
(1191,552,o),
(1169,565,c),
(1156,538,o),
(1056,353,o),
(1015,294,c),
(908,413,o),
(655,697,o),
(556,810,c),
(690,926,o),
(790,1015,o),
(790,1180,cs),
(790,1289,o),
(725,1417,o),
(540,1417,cs),
(393,1417,o),
(260,1344,o),
(260,1159,cs),
(260,1023,o),
(377,878,o),
(427,830,c),
(269,728,o),
(62,553,o),
(62,311,cs),
(62,70,o),
(231,-100,o),
(521,-100,cs)
);
},
{
closed = 1;
nodes = (
(328,-21,o),
(144,112,o),
(144,305,cs),
(144,547,o),
(349,686,o),
(482,772,c),
(571,666,o),
(844,345,o),
(969,215,c),
(941,173,o),
(804,-21,o),
(545,-21,cs)
);
},
{
closed = 1;
nodes = (
(424,947,o),
(341,1054,o),
(341,1163,cs),
(341,1263,o),
(421,1341,o),
(533,1341,cs),
(666,1341,o),
(707,1261,o),
(707,1179,cs),
(707,1048,o),
(620,945,o),
(502,865,c)
);
}
);
width = 1395;
}
);
unicode = 38;
},
{
glyphname = paragraph;
kernLeft = paragraph;
kernRight = paragraph;
lastChange = "2024-11-28 19:43:00 +0000";
layers = (
{
layerId = "B5042207-EFBA-41B6-8DFD-104A953B46A6";
shapes = (
{
closed = 1;
nodes = (
(1159,-101,o),
(1179,280,o),
(1179,608,cs),
(1179,831,o),
(1170,1029,o),
(1151,1153,c),
(1033,1243,o),
(713,1314,o),
(522,1314,cs),
(191,1314,o),
(17,1127,o),
(17,833,cs),
(17,622,o),
(143,392,o),
(336,392,cs),
(362,392,o),
(388,398,o),
(412,409,c),
(407,336,o),
(381,-108,o),
(373,-299,c),
(403,-301,o),
(630,-309,o),
(708,-309,c),
(708,-203,o),
(734,454,o),
(762,969,c),
(805,963,o),
(842,952,o),
(878,939,c),
(885,847,o),
(889,746,o),
(889,642,cs),
(889,320,o),
(858,-151,o),
(824,-338,c),
(856,-343,o),
(1046,-371,o),
(1119,-371,c)
);
}
);
width = 1210;
},
{
layerId = "B5195C1E-69AB-4BC6-9855-DF55601A0735";
shapes = (
{
closed = 1;
nodes = (
(954,-34,o),
(1000,675,o),
(1000,1043,cs),
(1000,1124,o),
(998,1190,o),
(993,1235,c),
(852,1284,o),
(647,1314,o),
(493,1314,cs),
(270,1314,o),
(172,1240,o),
(172,1032,cs),
(172,759,o),
(350,659,o),
(654,659,cs),
(679,659,o),
(707,661,o),
(732,664,c),
(726,590,o),
(691,-186,o),
(691,-321,c),
(712,-321,o),
(742,-320,o),
(762,-318,c),
(764,-292,o),
(817,688,o),
(817,1209,c),
(850,1205,o),
(882,1199,o),
(913,1192,c),
(914,1161,o),
(914,1127,o),
(914,1087,cs),
(914,714,o),
(883,-25,o),
(868,-333,c),
(895,-338,o),
(913,-341,o),
(933,-341,c)
);
}
);
width = 1210;
}
);
unicode = 182;
},
{
glyphname = section;
kernLeft = section;
kernRight = section;
lastChange = "2024-11-28 19:43:00 +0000";
layers = (
{
layerId = "B5195C1E-69AB-4BC6-9855-DF55601A0735";
shapes = (
{
closed = 1;
nodes = (
(415,847,l),
(256,823,o),
(126,733,o),
(126,580,cs),
(126,402,o),
(292,348,o),
(503,280,cs),
(696,218,o),
(811,158,o),
(811,11,cs),
(811,-154,o),
(671,-266,o),
(499,-266,cs),
(327,-266,o),
(144,-172,o),
(68,-61,c),
(46,-76,o),
(15,-102,o),
(-5,-136,c),
(135,-283,o),
(349,-345,o),
(485,-345,cs),
(722,-345,o),
(897,-209,o),
(897,21,cs),
(897,186,o),
(781,276,o),
(504,363,cs),
(354,410,o),
(212,468,o),
(212,585,cs),
(212,711,o),
(345,774,o),
(479,781,c)
);
},
{
closed = 1;
nodes = (
(729,209,l),
(844,269,o),
(927,377,o),
(927,521,cs),
(927,686,o),
(781,766,o),
(504,853,cs),
(354,900,o),
(232,968,o),
(232,1085,cs),
(232,1221,o),
(366,1268,o),
(513,1268,cs),
(639,1268,o),
(742,1225,o),
(815,1188,c),
(824,1203,o),
(839,1237,o),
(848,1266,c),
(797,1300,o),
(675,1353,o),
(504,1353,cs),
(304,1353,o),
(146,1261,o),
(146,1080,cs),
(146,898,o),
(292,840,o),
(503,770,cs),
(696,706,o),
(841,655,o),
(841,511,cs),
(841,401,o),
(764,314,o),
(665,269,c)
);
}
);
width = 1000;
},
{
layerId = "B5042207-EFBA-41B6-8DFD-104A953B46A6";
shapes = (
{
closed = 1;
nodes = (
(269,797,l),
(158,746,o),
(75,655,o),
(75,528,cs),
(75,327,o),
(223,234,o),
(378,174,cs),
(516,121,o),
(624,57,o),
(624,17,cs),
(624,-30,o),
(582,-42,o),
(513,-42,cs),
(427,-42,o),
(301,18,o),
(184,83,c),
(133,34,o),
(28,-146,o),
(0,-202,c),
(40,-238,o),
(222,-359,o),
(507,-359,cs),
(760,-359,o),
(963,-218,o),
(963,13,cs),
(963,224,o),
(759,335,o),
(632,388,cs),
(512,438,o),
(425,486,o),
(425,537,cs),
(425,610,o),
(502,642,o),
(531,648,c)
);
},
{
closed = 1;
nodes = (
(699,192,l),
(855,245,o),
(973,366,o),
(973,534,cs),
(973,745,o),
(759,856,o),
(632,909,cs),
(512,959,o),
(435,994,o),
(435,1035,cs),
(435,1073,o),
(501,1083,o),
(545,1083,cs),
(617,1083,o),
(737,1037,o),
(788,987,c),
(872,1081,o),
(936,1232,o),
(941,1249,c),
(821,1330,o),
(656,1366,o),
(522,1366,cs),
(317,1366,o),
(105,1255,o),
(105,1049,cs),
(105,848,o),
(223,755,o),
(378,695,cs),
(516,642,o),
(634,588,o),
(634,538,cs),
(634,464,o),
(586,416,o),
(525,414,c)
);
}
);
width = 1000;
}
);
unicode = 167;
},
{
glyphname = copyright;
kernLeft = copyright;
kernRight = copyright;
lastChange = "2024-11-28 19:43:00 +0000";
layers = (
{
layerId = "B5042207-EFBA-41B6-8DFD-104A953B46A6";
shapes = (
{
closed = 1;
nodes = (
(1352,-68,o),
(1705,192,o),
(1705,557,cs),
(1705,1088,o),
(1407,1350,o),
(928,1350,cs),
(414,1350,o),
(48,1055,o),
(48,564,cs),
(48,141,o),
(416,-68,o),
(881,-68,cs)
);
},
{
closed = 1;
nodes = (
(595,227,o),
(443,379,o),
(443,629,cs),
(443,886,o),
(684,1063,o),
(930,1063,cs),
(1227,1063,o),
(1337,889,o),
(1337,605,cs),
(1337,354,o),
(1154,227,o),
(862,227,cs)
);
},
{
closed = 1;
nodes = (
(1027,290,o),
(1187,364,o),
(1253,501,c),
(1183,557,o),
(1101,613,o),
(1032,646,c),
(985,576,o),
(932,564,o),
(897,564,cs),
(831,564,o),
(798,603,o),
(798,651,cs),
(798,711,o),
(847,748,o),
(903,748,cs),
(940,748,o),
(993,730,o),
(1013,706,c),
(1055,740,o),
(1126,820,o),
(1190,907,c),
(1138,966,o),
(1056,995,o),
(944,995,cs),
(705,995,o),
(535,834,o),
(535,614,cs),
(535,412,o),
(663,290,o),
(874,290,cs)
);
}
);
width = 1745;
},
{
layerId = "B5195C1E-69AB-4BC6-9855-DF55601A0735";
shapes = (
{
closed = 1;
nodes = (
(1291,-68,o),
(1561,209,o),
(1561,672,cs),
(1561,1094,o),
(1293,1350,o),
(850,1350,cs),
(361,1350,o),
(75,1090,o),
(75,588,cs),
(75,180,o),
(331,-68,o),
(832,-68,cs)
);
},
{
closed = 1;
nodes = (
(462,0,o),
(151,186,o),
(151,599,cs),
(151,1012,o),
(406,1287,o),
(822,1287,cs),
(1231,1287,o),
(1479,1072,o),
(1479,622,cs),
(1479,237,o),
(1190,0,o),
(824,0,cs)
);
},
{
closed = 1;
nodes = (
(958,280,o),
(1118,354,o),
(1185,491,c),
(1176,504,o),
(1142,530,o),
(1121,542,c),
(1074,472,o),
(988,361,o),
(829,361,cs),
(733,361,o),
(552,381,o),
(552,605,cs),
(552,800,o),
(703,906,o),
(848,906,cs),
(971,906,o),
(1056,867,o),
(1079,832,c),
(1094,853,o),
(1111,877,o),
(1121,897,c),
(1070,956,o),
(988,985,o),
(875,985,cs),
(637,985,o),
(467,823,o),
(467,603,cs),
(467,404,o),
(595,280,o),
(805,280,cs)
);
}
);
width = 1745;
}
);
unicode = 169;
},
{
glyphname = registered;
kernLeft = registered;
kernRight = registered;
lastChange = "2024-11-28 19:43:00 +0000";
layers = (
{
layerId = "B5042207-EFBA-41B6-8DFD-104A953B46A6";
shapes = (
{
closed = 1;
nodes = (
(1096,265,o),
(1377,468,o),
(1377,819,cs),
(1377,1164,o),
(1108,1321,o),
(724,1321,cs),
(366,1321,o),
(38,1132,o),
(38,771,cs),
(38,329,o),
(407,265,o),
(724,265,cs)
);
},
{
closed = 1;
nodes = (
(555,489,o),
(348,492,o),
(348,789,cs),
(348,1018,o),
(545,1103,o),
(718,1103,cs),
(904,1103,o),
(1064,1056,o),
(1064,796,cs),
(1064,567,o),
(884,489,o),
(714,489,cs)
);
},
{
closed = 1;
nodes = (
(706,585,o),
(705,681,o),
(703,709,c),
(710,710,o),
(719,711,o),
(720,711,c),
(735,682,o),
(742,588,o),
(742,556,c),
(823,556,o),
(898,564,o),
(940,589,c),
(940,624,o),
(916,735,o),
(885,771,c),
(929,788,o),
(959,842,o),
(959,892,cs),
(959,1003,o),
(830,1040,o),
(706,1040,cs),
(628,1040,o),
(567,1028,o),
(505,991,c),
(492,917,o),
(483,694,o),
(483,588,c),
(536,572,o),
(631,556,o),
(706,556,c)
);
},
{
closed = 1;
nodes = (
(690,870,o),
(689,893,o),
(688,903,c),
(699,905,o),
(711,906,o),
(721,906,cs),
(740,906,o),
(754,902,o),
(754,880,cs),
(754,858,o),
(711,855,o),
(690,855,c)
);
}
);
width = 1400;
},
{
layerId = "B5195C1E-69AB-4BC6-9855-DF55601A0735";
shapes = (
{
closed = 1;
nodes = (
(1005,269,o),
(1236,382,o),
(1236,791,cs),
(1236,1143,o),
(1031,1321,o),
(733,1321,cs),
(411,1321,o),
(188,1111,o),
(188,762,cs),
(188,531,o),
(320,269,o),
(735,269,cs)
);
},
{
closed = 1;
nodes = (
(469,331,o),
(256,486,o),
(256,769,cs),
(256,1058,o),
(445,1260,o),
(729,1260,cs),
(1070,1260,o),
(1169,1002,o),
(1169,785,cs),
(1169,454,o),
(975,331,o),
(726,331,cs)
);
},
{
closed = 1;
nodes = (
(661,559,o),
(661,760,o),
(661,801,c),
(667,801,o),
(682,803,o),
(695,806,c),
(755,695,o),
(811,604,o),
(879,503,c),
(910,503,o),
(940,511,o),
(957,517,c),
(926,560,o),
(808,739,o),
(759,814,c),
(849,835,o),
(904,885,o),
(904,980,cs),
(904,1074,o),
(808,1090,o),
(718,1090,cs),
(655,1090,o),
(594,1077,o),
(579,1070,c),
(585,957,o),
(589,644,o),
(589,515,c),
(613,505,o),
(634,503,o),
(661,503,c)
);
},
{
closed = 1;
nodes = (
(659,872,o),
(651,1002,o),
(649,1019,c),
(668,1022,o),
(701,1025,o),
(734,1025,cs),
(788,1025,o),
(843,1015,o),
(843,971,cs),
(843,888,o),
(776,854,o),
(659,854,c)
);
}
);
width = 1400;
}
);
unicode = 174;
},
{
glyphname = trademark;
kernLeft = trademark;
kernRight = trademark;
lastChange = "2024-11-28 19:43:00 +0000";
layers = (
{
layerId = "B5042207-EFBA-41B6-8DFD-104A953B46A6";
shapes = (
{
closed = 1;
nodes = (
(685,792,l),
(685,860,o),
(692,971,o),
(695,1017,c),
(683,1053,l),
(694,997,o),
(721,844,o),
(728,799,c),
(765,796,o),
(807,794,o),
(856,794,c),
(868,831,o),
(892,967,o),
(908,1058,c),
(885,1049,l),
(897,796,l),
(1087,792,l),
(1077,1085,o),
(1066,1164,o),
(1042,1263,c),
(1007,1270,o),
(934,1274,o),
(862,1274,c),
(837,1205,o),
(795,1076,o),
(780,1025,c),
(814,1025,l),
(799,1100,o),
(755,1235,o),
(738,1279,c),
(666,1279,o),
(609,1277,o),
(544,1268,c),
(532,1231,o),
(523,1178,o),
(513,1034,cs),
(502,880,o),
(502,843,o),
(502,789,c)
);
},
{
closed = 1;
nodes = (
(260,779,o),
(337,783,o),
(410,788,c),
(407,868,o),
(398,1026,o),
(393,1109,c),
(404,1108,o),
(432,1108,o),
(455,1108,c),
(477,1164,o),
(492,1241,o),
(492,1282,c),
(399,1297,o),
(318,1300,o),
(240,1300,cs),
(174,1300,o),
(107,1292,o),
(60,1284,c),
(65,1205,o),
(70,1137,o),
(76,1098,c),
(118,1098,o),
(152,1098,o),
(179,1101,c),
(179,991,o),
(184,844,o),
(188,779,c)
);
}
);
width = 1156;
},
{
layerId = "B5195C1E-69AB-4BC6-9855-DF55601A0735";
shapes = (
{
closed = 1;
nodes = (
(553,766,l),
(551,815,o),
(544,1145,o),
(544,1181,c),
(541,1181,l),
(548,1165,o),
(689,820,o),
(699,777,c),
(712,774,o),
(762,770,o),
(782,770,c),
(802,803,o),
(947,1133,o),
(947,1154,c),
(942,1154,l),
(943,770,l),
(1020,766,l),
(1020,951,o),
(1012,1128,o),
(991,1227,c),
(963,1236,o),
(933,1238,o),
(909,1238,c),
(896,1201,o),
(770,868,o),
(740,809,c),
(753,802,l),
(715,900,o),
(583,1213,o),
(570,1243,c),
(557,1243,o),
(513,1236,o),
(497,1232,c),
(492,1195,o),
(487,1133,o),
(487,989,cs),
(487,875,o),
(488,818,o),
(493,763,c)
);
},
{
closed = 1;
nodes = (
(232,751,o),
(278,751,o),
(295,751,c),
(292,831,o),
(282,1096,o),
(278,1193,c),
(300,1193,o),
(406,1193,o),
(444,1193,c),
(449,1207,o),
(452,1226,o),
(452,1246,c),
(385,1248,o),
(279,1250,o),
(178,1250,cs),
(125,1250,o),
(74,1250,o),
(30,1248,c),
(30,1226,o),
(33,1204,o),
(37,1192,c),
(80,1192,o),
(203,1192,o),
(224,1192,c),
(221,1113,o),
(216,849,o),
(216,754,c)
);
}
);
width = 1156;
}
);
unicode = 8482;
},
{
glyphname = degree;
kernLeft = degree;
kernRight = degree;
lastChange = "2024-11-28 19:43:00 +0000";
layers = (
{
layerId = "B5042207-EFBA-41B6-8DFD-104A953B46A6";
shapes = (
{
closed = 1;
nodes = (
(580,860,o),
(752,1030,o),
(752,1229,cs),
(752,1409,o),
(579,1540,o),
(366,1540,cs),
(169,1540,o),
(6,1399,o),
(6,1197,cs),
(6,1014,o),
(177,860,o),
(376,860,cs)
);
},
{
closed = 1;
nodes = (
(332,1130,o),
(304,1162,o),
(304,1207,cs),
(304,1246,o),
(333,1270,o),
(373,1270,cs),
(427,1270,o),
(455,1238,o),
(455,1198,cs),
(455,1159,o),
(417,1130,o),
(374,1130,cs)
);
}
);
width = 814;
},
{
layerId = "B5195C1E-69AB-4BC6-9855-DF55601A0735";
shapes = (
{
closed = 1;
nodes = (
(544,915,o),
(693,1052,o),
(693,1223,cs),
(693,1376,o),
(558,1485,o),
(388,1485,cs),
(217,1485,o),
(64,1365,o),
(64,1203,cs),
(64,1041,o),
(193,915,o),
(367,915,cs)
);
},
{
closed = 1;
nodes = (
(229,983,o),
(147,1072,o),
(147,1214,cs),
(147,1328,o),
(266,1417,o),
(370,1417,cs),
(537,1417,o),
(609,1319,o),
(609,1198,cs),
(609,1082,o),
(496,983,o),
(368,983,cs)
);
}
);
width = 814;
}
);
unicode = 176;
},
{
glyphname = numero;
kernLeft = numero;
kernRight = numero;
lastChange = "2024-11-28 19:43:00 +0000";
layers = (
{
layerId = "B5195C1E-69AB-4BC6-9855-DF55601A0735";
shapes = (
{
closed = 1;
nodes = (
(1761,412,o),
(1656,412,o),
(1529,412,cs),
(1396,412,o),
(1242,411,o),
(1173,408,c),
(1173,386,o),
(1175,365,o),
(1178,348,c),
(1264,348,o),
(1605,348,o),
(1809,348,c),
(1811,363,o),
(1811,391,o),
(1811,410,c)
);
},
{
alignment = -1;
pos = (-30,0);
ref = N;
},
{
alignment = -1;
pos = (1111,-191);
ref = ordmasculine;
}
);
width = 2000;
},
{
layerId = "B5042207-EFBA-41B6-8DFD-104A953B46A6";
shapes = (
{
closed = 1;
nodes = (
(1828,488,o),
(1738,489,o),
(1628,489,cs),
(1514,489,o),
(1388,480,o),
(1322,475,c),
(1322,398,o),
(1323,316,o),
(1326,257,c),
(1493,257,o),
(1694,257,o),
(1869,257,c),
(1871,309,o),
(1871,416,o),
(1871,483,c)
);
},
{
alignment = -1;
pos = (-50,0);
ref = N;
},
{
alignment = -1;
pos = (1232,-191);
ref = ordmasculine;
}
);
width = 2000;
}
);
unicode = 8470;
},
{
glyphname = "quarternote-musical";
lastChange = "2025-10-24 08:31:41 +0000";
layers = (
{
layerId = "B5195C1E-69AB-4BC6-9855-DF55601A0735";
shapes = (
{
closed = 1;
nodes = (
(375,549,o),
(373,990,o),
(371,1289,c),
(404,1284,o),
(418,1278,o),
(451,1273,c),
(453,973,o),
(444,572,o),
(446,272,c),
(446,76,o),
(398,0,o),
(281,0,cs),
(159,0,o),
(100,36,o),
(100,137,cs),
(100,312,o),
(281,336,o),
(377,250,c)
);
}
);
width = 551;
},
{
layerId = "B5042207-EFBA-41B6-8DFD-104A953B46A6";
shapes = (
{
closed = 1;
nodes = (
(461,728,o),
(460,1008,o),
(507,1289,c),
(551,1313,o),
(719,1326,o),
(762,1291,c),
(760,1211,o),
(762,544,o),
(759,332,c),
(759,130,o),
(598,-80,o),
(415,-80,cs),
(228,-80,o),
(100,42,o),
(100,194,cs),
(100,402,o),
(273,594,o),
(460,447,c)
);
}
);
width = 862;
}
);
unicode = 9833;
},
{
glyphname = "note-musical";
lastChange = "2025-10-24 08:31:41 +0000";
layers = (
{
layerId = "B5195C1E-69AB-4BC6-9855-DF55601A0735";
shapes = (
{
closed = 1;
nodes = (
(375,549,o),
(373,990,o),
(371,1289,c),
(404,1284,o),
(728,1067,o),
(802,1010,c),
(796,990,o),
(791,971,o),
(785,951,c),
(611,1059,o),
(552,1088,o),
(451,1174,c),
(451,890,o),
(444,535,o),
(446,272,c),
(446,76,o),
(398,0,o),
(281,0,cs),
(159,0,o),
(100,36,o),
(100,137,cs),
(100,312,o),
(281,336,o),
(377,250,c)
);
}
);
width = 902;
},
{
layerId = "B5042207-EFBA-41B6-8DFD-104A953B46A6";
shapes = (
{
closed = 1;
nodes = (
(461,778,o),
(460,1058,o),
(507,1339,c),
(551,1363,o),
(1053,1136,o),
(1096,1101,c),
(1113,1025,o),
(1055,854,o),
(1019,816,c),
(923,864,o),
(837,912,o),
(757,948,c),
(756,729,o),
(762,502,o),
(759,332,c),
(759,130,o),
(598,-80,o),
(415,-80,cs),
(228,-80,o),
(100,42,o),
(100,194,cs),
(100,402,o),
(273,594,o),
(460,447,c)
);
}
);
width = 1199;
}
);
unicode = 9834;
},
{
glyphname = "notedbl-musical";
lastChange = "2025-10-24 08:31:41 +0000";
layers = (
{
layerId = "B5195C1E-69AB-4BC6-9855-DF55601A0735";
shapes = (
{
closed = 1;
nodes = (
(374,544,o),
(370,958,o),
(367,1283,c),
(632,1333,o),
(887,1393,o),
(1152,1465,c),
(1153,1042,o),
(1144,691,o),
(1146,391,c),
(1146,195,o),
(1067,169,o),
(981,169,cs),
(875,169,o),
(800,195,o),
(800,306,cs),
(800,457,o),
(993,504,o),
(1067,401,c),
(1065,684,o),
(1074,1073,o),
(1082,1356,c),
(885,1316,o),
(648,1266,o),
(451,1226,c),
(452,936,o),
(444,530,o),
(446,241,c),
(435,58,o),
(398,-31,o),
(281,-31,cs),
(177,-31,o),
(100,16,o),
(100,106,cs),
(100,234,o),
(281,305,o),
(377,219,c)
);
}
);
width = 1252;
},
{
layerId = "B5042207-EFBA-41B6-8DFD-104A953B46A6";
shapes = (
{
closed = 1;
nodes = (
(497,677,o),
(500,853,o),
(493,1374,c),
(891,1430,o),
(1240,1477,o),
(1638,1513,c),
(1631,1118,o),
(1634,758,o),
(1621,456,c),
(1621,112,o),
(1424,50,o),
(1276,50,cs),
(1155,50,o),
(960,139,o),
(960,291,cs),
(960,537,o),
(1153,650,o),
(1301,549,c),
(1314,791,o),
(1318,1032,o),
(1321,1235,c),
(1113,1224,o),
(906,1162,o),
(798,1141,c),
(800,881,o),
(802,506,o),
(790,226,c),
(784,-35,o),
(550,-150,o),
(396,-150,cs),
(209,-150,o),
(100,-20,o),
(100,132,cs),
(100,378,o),
(333,470,o),
(481,377,c)
);
}
);
width = 1738;
}
);
unicode = 9835;
},
{
glyphname = "beamedsixteenthnotes-musical";
lastChange = "2025-10-24 08:31:41 +0000";
layers = (
{
layerId = "B5195C1E-69AB-4BC6-9855-DF55601A0735";
shapes = (
{
closed = 1;
nodes = (
(374,544,o),
(370,958,o),
(367,1283,c),
(632,1333,o),
(887,1393,o),
(1152,1465,c),
(1153,1042,o),
(1144,691,o),
(1146,391,c),
(1117,195,o),
(1067,169,o),
(981,169,cs),
(875,169,o),
(800,195,o),
(800,306,cs),
(800,457,o),
(993,504,o),
(1067,401,c),
(1078,1214,l),
(869,1173,o),
(660,1121,o),
(451,1080,c),
(450,811,o),
(444,485,o),
(446,241,c),
(435,58,o),
(398,-31,o),
(281,-31,cs),
(177,-31,o),
(100,16,o),
(100,106,cs),
(100,234,o),
(281,305,o),
(377,219,c)
);
},
{
closed = 1;
nodes = (
(661,1177,o),
(870,1224,o),
(1080,1270,c),
(1081,1293,o),
(1081,1344,o),
(1082,1366,c),
(885,1326,o),
(648,1276,o),
(451,1236,c),
(451,1213,o),
(451,1156,o),
(451,1131,c)
);
}
);
width = 1252;
},
{
layerId = "B5042207-EFBA-41B6-8DFD-104A953B46A6";
shapes = (
{
closed = 1;
nodes = (
(497,677,o),
(500,853,o),
(493,1374,c),
(891,1430,o),
(1240,1477,o),
(1638,1513,c),
(1631,1118,o),
(1634,758,o),
(1621,456,c),
(1621,112,o),
(1424,50,o),
(1276,50,cs),
(1155,50,o),
(960,139,o),
(960,291,cs),
(960,537,o),
(1160,635,o),
(1308,558,c),
(1316,974,l),
(1144,948,o),
(971,922,o),
(799,896,c),
(795,665,o),
(800,485,o),
(774,343,c),
(748,-34,o),
(512,-150,o),
(396,-150,cs),
(209,-150,o),
(100,-20,o),
(100,132,cs),
(100,378,o),
(333,470,o),
(481,377,c)
);
},
{
closed = 1;
nodes = (
(970,1120,o),
(1144,1145,o),
(1317,1169,c),
(1318,1206,o),
(1318,1269,o),
(1319,1305,c),
(1111,1281,o),
(904,1243,o),
(796,1222,c),
(796,1195,o),
(796,1127,o),
(797,1096,c)
);
}
);
width = 1738;
}
);
unicode = 9836;
},
{
glyphname = guillemetleft;
kernLeft = guillemetleft;
kernRight = guillemetleft;
lastChange = "2020-07-01 00:10:42 +0000";
layers = (
{
layerId = "B5042207-EFBA-41B6-8DFD-104A953B46A6";
shapes = (
{
closed = 1;
nodes = (
(829,973,o),
(650,785,o),
(467,574,c),
(1027,120,l),
(1055,239,o),
(1075,390,o),
(1075,465,c),
(1022,510,o),
(909,571,o),
(838,605,c),
(1171,899,l),
(1150,972,o),
(1091,1086,o),
(1009,1135,c)
);
},
{
closed = 1;
nodes = (
(332,928,o),
(166,738,o),
(12,547,c),
(205,337,o),
(421,159,o),
(639,0,c),
(670,82,o),
(716,210,o),
(730,262,c),
(700,279,o),
(515,445,o),
(383,566,c),
(701,938,l),
(662,986,o),
(585,1069,o),
(518,1120,c)
);
}
);
width = 1214;
},
{
layerId = "B5195C1E-69AB-4BC6-9855-DF55601A0735";
shapes = (
{
closed = 1;
nodes = (
(831,971,o),
(655,776,o),
(484,574,c),
(1044,181,l),
(1057,191,o),
(1076,214,o),
(1077,239,c),
(1023,284,o),
(761,467,o),
(579,593,c),
(1087,1082,l),
(1074,1094,o),
(1048,1117,o),
(1026,1135,c)
);
},
{
closed = 1;
nodes = (
(357,928,o),
(191,726,o),
(29,518,c),
(222,328,o),
(431,157,o),
(656,0,c),
(670,19,o),
(690,52,o),
(692,74,c),
(662,91,o),
(344,341,o),
(113,525,c),
(621,1070,l),
(592,1088,o),
(549,1113,o),
(535,1120,c)
);
}
);
width = 1214;
}
);
unicode = 171;
},
{
glyphname = guillemetright;
kernLeft = guillemetright;
kernRight = guillemetright;
lastChange = "2020-07-01 00:11:25 +0000";
layers = (
{
layerId = "B5042207-EFBA-41B6-8DFD-104A953B46A6";
shapes = (
{
closed = 1;
nodes = (
(134,862,o),
(290,758,o),
(383,697,c),
(267,609,o),
(107,487,o),
(91,474,c),
(91,414,o),
(142,260,o),
(176,200,c),
(376,325,o),
(608,511,o),
(773,689,c),
(674,817,o),
(383,1091,o),
(330,1121,c),
(270,1091,o),
(134,992,o),
(48,925,c)
);
},
{
closed = 1;
nodes = (
(619,963,o),
(784,804,o),
(884,701,c),
(774,574,o),
(608,399,o),
(537,337,c),
(559,289,o),
(667,162,o),
(697,132,c),
(911,303,o),
(1104,487,o),
(1287,689,c),
(1258,723,o),
(884,1122,o),
(783,1190,c),
(728,1162,o),
(608,1080,o),
(533,1026,c)
);
}
);
width = 1313;
},
{
layerId = "B5195C1E-69AB-4BC6-9855-DF55601A0735";
shapes = (
{
closed = 1;
nodes = (
(320,1014,o),
(529,817,o),
(662,689,c),
(432,510,o),
(120,267,o),
(104,253,c),
(114,236,o),
(123,222,o),
(142,200,c),
(342,352,o),
(544,513,o),
(738,689,c),
(579,855,o),
(349,1087,o),
(296,1121,c),
(277,1113,o),
(243,1095,o),
(234,1089,c)
);
},
{
closed = 1;
nodes = (
(729,1097,o),
(971,856,o),
(1130,692,c),
(895,482,o),
(577,198,o),
(561,185,c),
(574,164,o),
(590,145,o),
(612,132,c),
(814,315,o),
(1023,507,o),
(1213,697,c),
(1182,733,o),
(898,1022,o),
(697,1190,c),
(681,1183,o),
(654,1168,o),
(643,1159,c)
);
}
);
width = 1313;
}
);
unicode = 187;
},
{
glyphname = guilsinglleft;
kernLeft = guillemotleft;
kernRight = guillemotleft;
lastChange = "2020-01-10 19:07:55 +0000";
layers = (
{
layerId = "B5042207-EFBA-41B6-8DFD-104A953B46A6";
shapes = (
{
closed = 1;
nodes = (
(328,954,o),
(162,756,o),
(12,557,c),
(221,340,o),
(431,174,o),
(639,34,c),
(667,98,o),
(710,273,o),
(723,326,c),
(693,344,o),
(513,452,o),
(386,583,c),
(701,929,l),
(676,984,o),
(585,1103,o),
(518,1154,c)
);
}
);
width = 850;
},
{
layerId = "B5195C1E-69AB-4BC6-9855-DF55601A0735";
shapes = (
{
closed = 1;
nodes = (
(383,966,o),
(215,764,o),
(46,557,c),
(253,369,o),
(463,195,o),
(674,34,c),
(688,52,o),
(707,83,o),
(709,103,c),
(681,124,o),
(366,381,o),
(137,568,c),
(621,1104,l),
(600,1122,o),
(566,1147,o),
(552,1154,c)
);
}
);
width = 850;
}
);
unicode = 8249;
},
{
glyphname = guilsinglright;
kernLeft = guillemotright;
kernRight = guillemotright;
lastChange = "2020-07-01 00:11:59 +0000";
layers = (
{
layerId = "B5042207-EFBA-41B6-8DFD-104A953B46A6";
shapes = (
{
closed = 1;
nodes = (
(165,862,o),
(316,758,o),
(405,697,c),
(270,587,o),
(86,436,o),
(70,422,c),
(84,374,o),
(188,202,o),
(222,171,c),
(417,298,o),
(638,456,o),
(803,689,c),
(659,882,o),
(413,1108,o),
(361,1121,c),
(302,1091,o),
(165,992,o),
(79,925,c)
);
}
);
width = 834;
},
{
layerId = "B5195C1E-69AB-4BC6-9855-DF55601A0735";
shapes = (
{
closed = 1;
nodes = (
(288,1009,o),
(495,788,o),
(627,645,c),
(397,451,o),
(88,196,o),
(72,183,c),
(81,167,o),
(96,144,o),
(109,126,c),
(318,289,o),
(521,461,o),
(706,649,c),
(586,791,o),
(382,1015,o),
(263,1111,c),
(223,1090,o),
(203,1078,o),
(202,1077,c)
);
}
);
width = 834;
}
);
unicode = 8250;
},
{
glyphname = minute;
lastChange = "2024-12-12 23:10:15 +0000";
layers = (
{
anchors = (
{
name = _topright;
pos = (-117,2126);
}
);
layerId = "B5195C1E-69AB-4BC6-9855-DF55601A0735";
shapes = (
{
closed = 1;
nodes = (
(217,791,o),
(237,1080,c),
(176,1084,o),
(212,1085,o),
(148,1081,c),
(124,740,o),
(115,453,o),
(100,241,c),
(131,222,o),
(118,224,o),
(152,223,c),
(192,474,o)
);
}
);
width = 307;
},
{
anchors = (
{
name = _topright;
pos = (-89,1926);
}
);
layerId = "B5042207-EFBA-41B6-8DFD-104A953B46A6";
shapes = (
{
closed = 1;
nodes = (
(508,696,o),
(544,1107,c),
(457,1115,o),
(221,1119,o),
(156,1117,c),
(126,776,o),
(115,418,o),
(100,249,c),
(131,231,o),
(359,188,o),
(409,184,c),
(456,367,o)
);
}
);
width = 594;
}
);
unicode = 8242;
},
{
glyphname = second;
lastChange = "2024-12-12 23:10:52 +0000";
layers = (
{
anchors = (
{
name = _topright;
pos = (283,2117);
}
);
layerId = "B5195C1E-69AB-4BC6-9855-DF55601A0735";
shapes = (
{
closed = 1;
nodes = (
(627,782,o),
(647,1071,c),
(586,1075,o),
(612,1076,o),
(548,1072,c),
(524,731,o),
(515,444,o),
(500,232,c),
(531,213,o),
(528,215,o),
(562,214,c),
(602,465,o)
);
},
{
closed = 1;
nodes = (
(227,782,o),
(247,1071,c),
(186,1075,o),
(212,1076,o),
(148,1072,c),
(124,731,o),
(115,444,o),
(100,232,c),
(131,213,o),
(128,215,o),
(162,214,c),
(202,465,o)
);
}
);
width = 707;
},
{
anchors = (
{
name = _topright;
pos = (461,1926);
}
);
layerId = "B5042207-EFBA-41B6-8DFD-104A953B46A6";
shapes = (
{
closed = 1;
nodes = (
(1058,696,o),
(1094,1107,c),
(1007,1115,o),
(771,1119,o),
(706,1117,c),
(676,776,o),
(665,418,o),
(650,249,c),
(681,231,o),
(909,188,o),
(959,184,c),
(1006,367,o)
);
},
{
closed = 1;
nodes = (
(508,696,o),
(544,1107,c),
(457,1115,o),
(221,1119,o),
(156,1117,c),
(126,776,o),
(115,418,o),
(100,249,c),
(131,231,o),
(359,188,o),
(409,184,c),
(456,367,o)
);
}
);
width = 1144;
}
);
metricLeft = minute;
metricRight = minute;
unicode = 8243;
},
{
glyphname = tripleprime;
lastChange = "2024-12-12 23:10:38 +0000";
layers = (
{
anchors = (
{
name = _topright;
pos = (296,2134);
}
);
layerId = "B5195C1E-69AB-4BC6-9855-DF55601A0735";
shapes = (
{
closed = 1;
nodes = (
(640,799,o),
(660,1088,c),
(599,1092,o),
(625,1093,o),
(561,1089,c),
(537,748,o),
(528,461,o),
(513,249,c),
(544,230,o),
(541,232,o),
(575,231,c),
(615,482,o)
);
},
{
closed = 1;
nodes = (
(1037,789,o),
(1057,1078,c),
(996,1082,o),
(1022,1083,o),
(958,1079,c),
(934,738,o),
(925,451,o),
(910,239,c),
(941,220,o),
(938,222,o),
(972,221,c),
(1012,472,o)
);
},
{
closed = 1;
nodes = (
(227,800,o),
(247,1089,c),
(186,1093,o),
(212,1094,o),
(148,1090,c),
(124,749,o),
(115,462,o),
(100,250,c),
(131,231,o),
(128,233,o),
(162,232,c),
(202,483,o)
);
}
);
width = 1117;
},
{
anchors = (
{
name = _topright;
pos = (506,1957);
}
);
layerId = "B5042207-EFBA-41B6-8DFD-104A953B46A6";
shapes = (
{
closed = 1;
nodes = (
(1103,727,o),
(1139,1138,c),
(1052,1146,o),
(816,1150,o),
(751,1148,c),
(721,807,o),
(710,449,o),
(695,280,c),
(726,262,o),
(954,219,o),
(1004,215,c),
(1051,398,o)
);
},
{
closed = 1;
nodes = (
(1685,732,o),
(1721,1143,c),
(1634,1151,o),
(1398,1155,o),
(1333,1153,c),
(1303,812,o),
(1292,454,o),
(1277,285,c),
(1308,267,o),
(1536,224,o),
(1586,220,c),
(1633,403,o)
);
},
{
closed = 1;
nodes = (
(508,706,o),
(544,1117,c),
(457,1125,o),
(221,1129,o),
(156,1127,c),
(126,786,o),
(115,428,o),
(100,259,c),
(131,241,o),
(359,198,o),
(409,194,c),
(456,377,o)
);
}
);
width = 1771;
}
);
metricLeft = minute;
metricRight = minute;
unicode = 8244;
},
{
glyphname = quotedbl;
kernLeft = quotedbl;
kernRight = quotedbl;
lastChange = "2020-07-03 19:19:03 +0000";
layers = (
{
layerId = "B5042207-EFBA-41B6-8DFD-104A953B46A6";
shapes = (
{
closed = 1;
nodes = (
(317,1112,o),
(334,1299,o),
(334,1385,cs),
(334,1413,o),
(332,1435,o),
(328,1450,c),
(292,1455,o),
(252,1457,o),
(211,1457,cs),
(142,1457,o),
(86,1451,o),
(16,1439,c),
(16,1359,o),
(35,1173,o),
(75,1032,c),
(138,1019,o),
(221,1010,o),
(292,1010,c)
);
},
{
closed = 1;
nodes = (
(446,1017,o),
(524,1022,o),
(640,1037,c),
(666,1114,o),
(708,1308,o),
(708,1390,cs),
(708,1414,o),
(707,1433,o),
(706,1439,c),
(617,1451,o),
(504,1456,o),
(386,1456,c),
(385,1447,o),
(385,1435,o),
(385,1420,cs),
(385,1324,o),
(399,1095,o),
(409,1017,c)
);
}
);
width = 764;
},
{
layerId = "B5195C1E-69AB-4BC6-9855-DF55601A0735";
shapes = (
{
closed = 1;
nodes = (
(296,1130,o),
(299,1263,o),
(299,1410,cs),
(299,1432,o),
(299,1450,o),
(299,1462,c),
(292,1463,o),
(285,1463,o),
(278,1463,cs),
(251,1463,o),
(230,1457,o),
(219,1451,c),
(219,1378,o),
(239,1133,o),
(246,1055,c),
(256,1054,o),
(269,1053,o),
(287,1053,c)
);
},
{
closed = 1;
nodes = (
(449,1057,o),
(467,1056,o),
(482,1056,c),
(499,1180,o),
(510,1341,o),
(510,1426,cs),
(510,1438,o),
(510,1449,o),
(509,1458,c),
(491,1458,o),
(453,1454,o),
(443,1452,c),
(439,1399,o),
(437,1259,o),
(437,1151,cs),
(437,1113,o),
(437,1082,o),
(438,1058,c)
);
}
);
width = 764;
}
);
unicode = 34;
},
{
glyphname = quotesingle;
kernLeft = quotesingle;
kernRight = quotesingle;
lastChange = "2020-07-01 00:13:30 +0000";
layers = (
{
layerId = "B5042207-EFBA-41B6-8DFD-104A953B46A6";
shapes = (
{
closed = 1;
nodes = (
(390,1379,cs),
(390,1411,o),
(389,1437,o),
(386,1451,c),
(347,1456,o),
(306,1458,o),
(263,1458,cs),
(193,1458,o),
(120,1452,o),
(48,1438,c),
(48,1339,o),
(101,1049,o),
(128,975,c),
(171,971,o),
(206,968,o),
(241,968,cs),
(272,968,o),
(304,970,o),
(347,974,c),
(375,1084,o),
(390,1271,o)
);
}
);
width = 462;
},
{
layerId = "B5195C1E-69AB-4BC6-9855-DF55601A0735";
shapes = (
{
closed = 1;
nodes = (
(268,1385,cs),
(268,1412,o),
(268,1437,o),
(267,1460,c),
(258,1461,o),
(246,1462,o),
(234,1462,cs),
(215,1462,o),
(195,1460,o),
(179,1458,c),
(179,1385,o),
(191,1182,o),
(202,1042,c),
(207,1041,o),
(220,1039,o),
(233,1039,cs),
(240,1039,o),
(247,1039,o),
(251,1040,c),
(261,1142,o),
(268,1275,o)
);
}
);
width = 462;
}
);
unicode = 39;
},
{
category = Mark;
glyphname = widebar.ext;
kernLeft = minus;
kernRight = minus;
lastChange = "2025-11-07 22:11:55 +0000";
layers = (
{
layerId = "B5195C1E-69AB-4BC6-9855-DF55601A0735";
shapes = (
{
closed = 1;
nodes = (
(0,1140,l),
(400,1140,l),
(400,1207,l),
(0,1207,l)
);
}
);
width = 400;
},
{
layerId = "B5042207-EFBA-41B6-8DFD-104A953B46A6";
shapes = (
{
closed = 1;
nodes = (
(0,1225,l),
(400,1225,l),
(400,1582,l),
(0,1582,l)
);
}
);
width = 400;
}
);
production = widebar.ext;
subCategory = Spacing;
},
{
category = Mark;
glyphname = widebar.left;
kernLeft = minus;
kernRight = minus;
lastChange = "2025-11-07 22:09:57 +0000";
layers = (
{
layerId = "B5195C1E-69AB-4BC6-9855-DF55601A0735";
shapes = (
{
closed = 1;
nodes = (
(603,1207,l),
(387,1207,l),
(262,1208,o),
(50,1198,o),
(0,1195,c),
(-1,1177,o),
(2,1147,o),
(7,1130,c),
(62,1138,o),
(268,1141,o),
(387,1140,c),
(603,1140,l)
);
}
);
width = 603;
},
{
layerId = "B5042207-EFBA-41B6-8DFD-104A953B46A6";
shapes = (
{
closed = 1;
nodes = (
(641,1582,l),
(438,1582,l),
(291,1578,o),
(146,1561,o),
(46,1550,c),
(36,1465,o),
(40,1302,o),
(54,1222,c),
(125,1228,o),
(279,1223,o),
(437,1225,c),
(641,1225,l)
);
}
);
width = 641;
}
);
metricLeft = "=widebar";
production = widebar.left;
subCategory = Spacing;
},
{
category = Mark;
glyphname = widebar.right;
kernLeft = minus;
kernRight = minus;
lastChange = "2025-11-07 22:12:00 +0000";
layers = (
{
layerId = "B5195C1E-69AB-4BC6-9855-DF55601A0735";
shapes = (
{
closed = 1;
nodes = (
(298,1141,ls),
(467,1142,o),
(621,1141,o),
(673,1140,c),
(677,1159,o),
(677,1176,o),
(671,1191,c),
(601,1202,o),
(301,1208,o),
(300,1208,cs),
(0,1208,l),
(0,1140,l)
);
}
);
width = 676;
},
{
layerId = "B5042207-EFBA-41B6-8DFD-104A953B46A6";
shapes = (
{
closed = 1;
nodes = (
(222,1225,ls),
(369,1225,o),
(489,1225,o),
(711,1225,c),
(722,1313,o),
(706,1471,o),
(696,1541,c),
(680,1555,o),
(538,1582,o),
(222,1582,cs),
(0,1582,l),
(0,1225,l)
);
}
);
width = 755;
}
);
metricRight = "=widebar";
production = widebar.right;
subCategory = Spacing;
},
{
category = Mark;
glyphname = widebar.s1;
kernLeft = minus;
kernRight = minus;
lastChange = "2025-11-08 01:07:52 +0000";
layers = (
{
layerId = "B5195C1E-69AB-4BC6-9855-DF55601A0735";
shapes = (
{
closed = 1;
nodes = (
(1000,1152,o),
(999,1192,o),
(997,1199,c),
(836,1199,o),
(85,1200,o),
(9,1188,c),
(3,1179,o),
(0,1140,o),
(0,1126,c),
(81,1132,o),
(941,1131,o),
(1000,1128,c)
);
}
);
userData = {
com.nagwa.MATHPlugin.variants = {
};
};
width = 1000;
},
{
layerId = "B5042207-EFBA-41B6-8DFD-104A953B46A6";
shapes = (
{
closed = 1;
nodes = (
(1040,1237,o),
(1039,1541,o),
(1037,1548,c),
(876,1558,o),
(164,1557,o),
(49,1507,c),
(43,1478,o),
(40,1225,o),
(40,1211,c),
(121,1165,o),
(950,1181,o),
(1040,1213,c)
);
}
);
userData = {
com.nagwa.MATHPlugin.variants = {
};
};
width = 1080;
}
);
metricLeft = "=widebar";
metricRight = "=widebar";
production = widebar.s1;
subCategory = Spacing;
},
{
category = Mark;
glyphname = widebarbelow.ext;
kernLeft = minus;
kernRight = minus;
lastChange = "2025-11-07 21:22:57 +0000";
layers = (
{
layerId = "B5195C1E-69AB-4BC6-9855-DF55601A0735";
shapes = (
{
closed = 1;
nodes = (
(400,-310,l),
(400,-243,l),
(0,-243,l),
(0,-310,l)
);
}
);
width = 400;
},
{
layerId = "B5042207-EFBA-41B6-8DFD-104A953B46A6";
shapes = (
{
closed = 1;
nodes = (
(400,-675,l),
(400,-318,l),
(0,-318,l),
(0,-675,l)
);
}
);
width = 400;
}
);
production = widebarbelow.ext;
subCategory = Spacing;
},
{
category = Mark;
glyphname = widebarbelow.left;
kernLeft = minus;
kernRight = minus;
lastChange = "2025-11-07 22:15:16 +0000";
layers = (
{
layerId = "B5195C1E-69AB-4BC6-9855-DF55601A0735";
shapes = (
{
closed = 1;
nodes = (
(427,-243,l),
(308,-244,o),
(62,-251,o),
(7,-243,c),
(2,-260,o),
(-1,-280,o),
(0,-298,c),
(50,-301,o),
(302,-311,o),
(427,-310,c),
(643,-310,l),
(643,-243,l)
);
}
);
width = 643;
},
{
layerId = "B5042207-EFBA-41B6-8DFD-104A953B46A6";
shapes = (
{
closed = 1;
nodes = (
(437,-321,l),
(279,-319,o),
(125,-324,o),
(54,-318,c),
(40,-398,o),
(36,-561,o),
(46,-646,c),
(146,-657,o),
(291,-674,o),
(438,-678,c),
(621,-678,l),
(621,-321,l)
);
}
);
width = 621;
}
);
metricLeft = "=widebar";
production = widebarbelow.left;
subCategory = Spacing;
},
{
category = Mark;
glyphname = widebarbelow.right;
kernLeft = minus;
kernRight = minus;
lastChange = "2025-11-07 22:14:50 +0000";
layers = (
{
layerId = "B5195C1E-69AB-4BC6-9855-DF55601A0735";
shapes = (
{
closed = 1;
nodes = (
(0,-310,l),
(141,-310,ls),
(340,-310,o),
(642,-304,o),
(712,-293,c),
(718,-278,o),
(718,-261,o),
(714,-242,c),
(662,-243,o),
(508,-246,o),
(139,-243,cs),
(0,-242,l)
);
}
);
width = 717;
},
{
layerId = "B5042207-EFBA-41B6-8DFD-104A953B46A6";
shapes = (
{
closed = 1;
nodes = (
(0,-675,l),
(202,-675,ls),
(518,-675,o),
(630,-648,o),
(646,-634,c),
(656,-564,o),
(672,-406,o),
(661,-318,c),
(439,-318,o),
(349,-318,o),
(202,-318,cs),
(0,-318,l)
);
}
);
width = 705;
}
);
metricRight = "=widebar";
production = widebarbelow.right;
subCategory = Spacing;
},
{
category = Mark;
glyphname = widebarbelow.s1;
kernLeft = minus;
kernRight = minus;
lastChange = "2025-11-07 21:22:57 +0000";
layers = (
{
layerId = "B5195C1E-69AB-4BC6-9855-DF55601A0735";
shapes = (
{
closed = 1;
nodes = (
(941,-256,o),
(81,-257,o),
(0,-251,c),
(0,-265,o),
(3,-304,o),
(9,-313,c),
(85,-325,o),
(836,-324,o),
(997,-324,c),
(999,-317,o),
(1000,-277,o),
(1000,-253,c)
);
}
);
userData = {
com.nagwa.MATHPlugin.variants = {
};
};
width = 1000;
},
{
layerId = "B5042207-EFBA-41B6-8DFD-104A953B46A6";
shapes = (
{
closed = 1;
nodes = (
(950,-346,o),
(121,-330,o),
(40,-376,c),
(40,-390,o),
(43,-643,o),
(49,-672,c),
(164,-722,o),
(876,-723,o),
(1037,-713,c),
(1039,-706,o),
(1040,-402,o),
(1040,-378,c)
);
}
);
userData = {
com.nagwa.MATHPlugin.variants = {
};
};
width = 1080;
}
);
metricLeft = "=widebar";
metricRight = "=widebar";
production = widebarbelow.s1;
subCategory = Spacing;
},
{
glyphname = leftrightarrowbelowcomb;
lastChange = "2025-11-07 20:09:58 +0000";
layers = (
{
anchors = (
{
name = math.ta;
pos = (1396,830);
}
);
layerId = "B5195C1E-69AB-4BC6-9855-DF55601A0735";
shapes = (
{
closed = 1;
nodes = (
(475,-116,o),
(458,-100,o),
(447,-93,c),
(394,-107,o),
(270,-179,o),
(40,-335,c),
(41,-382,l),
(321,-532,o),
(416,-596,o),
(455,-606,c),
(461,-594,o),
(471,-574,o),
(471,-558,c),
(402,-530,o),
(334,-479,o),
(73,-345,c),
(82,-373,l),
(247,-266,o),
(363,-200,o),
(484,-126,c)
);
},
{
closed = 1;
nodes = (
(102,-349,o),
(102,-377,o),
(105,-392,c),
(566,-392,o),
(778,-379,o),
(1061,-390,c),
(1066,-373,o),
(1070,-351,o),
(1070,-329,c),
(884,-320,o),
(828,-328,o),
(601,-328,cs),
(376,-328,o),
(190,-328,o),
(102,-330,c)
);
},
{
closed = 1;
nodes = (
(759,-194,o),
(905,-260,o),
(1070,-367,c),
(1079,-339,l),
(818,-473,o),
(720,-524,o),
(651,-552,c),
(651,-568,o),
(661,-588,o),
(667,-600,c),
(706,-590,o),
(831,-526,o),
(1111,-376,c),
(1112,-329,l),
(882,-173,o),
(728,-101,o),
(675,-87,c),
(664,-94,o),
(647,-110,o),
(638,-120,c)
);
}
);
userData = {
com.nagwa.MATHPlugin.variants = {
hAssembly = (
(
leftarrowbelowcomb.lft,
0,
0,
200
),
(
leftarrowbelowcomb.mid,
1,
200,
200
),
(
rightarrowbelowcomb.rgt,
0,
200,
0
)
);
};
};
width = 1152;
},
{
anchors = (
{
name = math.ta;
pos = (825,863);
}
);
layerId = "B5042207-EFBA-41B6-8DFD-104A953B46A6";
shapes = (
{
closed = 1;
nodes = (
(658,-252,o),
(601,-182,o),
(532,-146,c),
(479,-160,o),
(241,-384,o),
(57,-516,c),
(50,-658,l),
(307,-786,o),
(621,-998,o),
(661,-1008,c),
(698,-974,o),
(779,-855,o),
(779,-813,c),
(758,-804,o),
(483,-591,o),
(357,-490,c),
(399,-560,l),
(463,-516,o),
(614,-396,o),
(713,-323,c)
);
},
{
closed = 1;
nodes = (
(330,-582,o),
(328,-609,o),
(328,-701,c),
(460,-701,o),
(1054,-719,o),
(1353,-731,c),
(1353,-638,o),
(1328,-475,o),
(1310,-427,c),
(1094,-427,o),
(825,-448,o),
(823,-448,cs),
(589,-448,o),
(515,-464,o),
(357,-478,c)
);
},
{
closed = 1;
nodes = (
(1015,-408,o),
(1183,-581,o),
(1247,-625,c),
(1284,-500,l),
(1158,-601,o),
(939,-802,o),
(918,-811,c),
(918,-853,o),
(1005,-1005,o),
(1042,-1039,c),
(1082,-1029,o),
(1344,-816,o),
(1601,-648,c),
(1594,-496,l),
(1410,-364,o),
(1136,-180,o),
(1083,-166,c),
(1014,-202,o),
(971,-264,o),
(916,-335,c)
);
}
);
userData = {
com.nagwa.MATHPlugin.variants = {
hAssembly = (
(
leftarrowbelowcomb.lft,
0,
0,
200
),
(
leftarrowbelowcomb.mid,
1,
200,
200
),
(
rightarrowbelowcomb.rgt,
0,
200,
0
)
);
};
};
width = 1651;
}
);
metricLeft = "=leftarrowabovecomb";
metricRight = "=rightarrowabovecomb";
production = leftrightarrowbelowcomb;
subCategory = Arrow;
unicode = 845;
},
{
category = Mark;
glyphname = leftarrowabovecomb;
lastChange = "2025-11-07 18:25:12 +0000";
layers = (
{
anchors = (
{
name = math.ta;
pos = (445,1211);
}
);
layerId = "B5195C1E-69AB-4BC6-9855-DF55601A0735";
shapes = (
{
closed = 1;
nodes = (
(555,1464,o),
(538,1480,o),
(527,1487,c),
(474,1473,o),
(270,1391,o),
(40,1235,c),
(41,1188,l),
(321,1038,o),
(476,964,o),
(515,954,c),
(521,966,o),
(531,986,o),
(531,1002,c),
(462,1030,o),
(334,1091,o),
(73,1225,c),
(82,1197,l),
(247,1304,o),
(443,1380,o),
(564,1454,c)
);
},
{
closed = 1;
nodes = (
(102,1221,o),
(102,1193,o),
(105,1178,c),
(466,1178,o),
(497,1171,o),
(780,1160,c),
(785,1177,o),
(789,1199,o),
(789,1221,c),
(712,1228,o),
(523,1242,o),
(511,1242,cs),
(286,1242,o),
(190,1242,o),
(102,1240,c)
);
}
);
userData = {
com.nagwa.MATHPlugin.variants = {
hAssembly = (
(
leftarrowabovecomb.lft,
0,
0,
200
),
(
leftarrowabovecomb.mid,
1,
200,
200
),
(
leftarrowabovecomb.rgt,
0,
200,
0
)
);
};
};
width = 829;
},
{
anchors = (
{
name = math.ta;
pos = (627,1523);
}
);
layerId = "B5042207-EFBA-41B6-8DFD-104A953B46A6";
shapes = (
{
closed = 1;
nodes = (
(723,1835,o),
(682,1892,o),
(613,1957,c),
(560,1943,o),
(241,1746,o),
(57,1614,c),
(50,1472,l),
(307,1344,o),
(677,1079,o),
(717,1069,c),
(754,1103,o),
(781,1242,o),
(781,1284,c),
(760,1293,o),
(453,1519,o),
(327,1620,c),
(364,1535,l),
(428,1579,o),
(656,1691,o),
(755,1764,c)
);
},
{
closed = 1;
nodes = (
(320,1478,o),
(318,1521,o),
(318,1429,c),
(450,1429,o),
(723,1371,o),
(1022,1359,c),
(1022,1452,o),
(997,1606,o),
(979,1654,c),
(913,1660,o),
(821,1663,o),
(754,1663,cs),
(520,1663,o),
(505,1596,o),
(347,1582,c)
);
}
);
userData = {
com.nagwa.MATHPlugin.variants = {
hAssembly = (
(
leftarrowabovecomb.lft,
0,
0,
200
),
(
leftarrowabovecomb.mid,
1,
200,
200
),
(
leftarrowabovecomb.rgt,
0,
200,
0
)
);
};
};
width = 1072;
}
);
metricLeft = "=|rightarrowabovecomb";
metricRight = "=|rightarrowabovecomb";
subCategory = Arrow;
unicode = 8406;
},
{
category = Mark;
glyphname = leftarrowabovecomb.lft;
lastChange = "2025-11-07 18:25:12 +0000";
layers = (
{
layerId = "B5195C1E-69AB-4BC6-9855-DF55601A0735";
shapes = (
{
closed = 1;
nodes = (
(459,1454,o),
(442,1470,o),
(431,1477,c),
(378,1463,o),
(279,1408,o),
(40,1265,c),
(41,1218,l),
(321,1098,o),
(424,1055,o),
(463,1045,c),
(469,1057,o),
(479,1077,o),
(479,1093,c),
(410,1121,o),
(334,1151,o),
(73,1255,c),
(82,1227,l),
(247,1334,o),
(324,1391,o),
(468,1444,c)
);
},
{
closed = 1;
nodes = (
(512,1272,o),
(200,1272,o),
(102,1270,c),
(102,1251,o),
(102,1223,o),
(105,1208,c),
(331,1208,o),
(581,1206,o),
(610,1203,c),
(610,1271,l)
);
},
{
closed = 1;
nodes = (
(610,1271,l),
(610,1203,l),
(810,1203,l),
(810,1270,l)
);
}
);
width = 810;
},
{
layerId = "B5042207-EFBA-41B6-8DFD-104A953B46A6";
shapes = (
{
closed = 1;
nodes = (
(760,1825,o),
(692,1901,o),
(623,1937,c),
(570,1923,o),
(241,1686,o),
(57,1554,c),
(40,1442,l),
(297,1314,o),
(727,1029,o),
(767,1019,c),
(804,1053,o),
(841,1212,o),
(841,1254,c),
(820,1263,o),
(493,1489,o),
(367,1590,c),
(404,1465,l),
(468,1509,o),
(716,1681,o),
(815,1754,c)
);
},
{
closed = 1;
nodes = (
(679,1690,o),
(636,1688,o),
(367,1602,c),
(340,1498,o),
(338,1471,o),
(338,1379,c),
(412,1379,o),
(474,1360,o),
(788,1342,c),
(791,1687,l)
);
},
{
closed = 1;
nodes = (
(791,1687,l),
(788,1342,l),
(991,1342,l),
(991,1687,l)
);
}
);
width = 991;
}
);
metricLeft = "=|rightarrowabovecomb.rgt";
metricRight = "=|rightarrowabovecomb.rgt";
production = leftarrowabovecomb.lft;
subCategory = Arrow;
},
{
category = Mark;
glyphname = leftarrowabovecomb.mid;
lastChange = "2025-11-07 18:25:12 +0000";
layers = (
{
layerId = "B5195C1E-69AB-4BC6-9855-DF55601A0735";
shapes = (
{
closed = 1;
nodes = (
(0,1271,l),
(0,1203,l),
(400,1203,l),
(400,1270,l)
);
}
);
width = 400;
},
{
layerId = "B5042207-EFBA-41B6-8DFD-104A953B46A6";
shapes = (
{
closed = 1;
nodes = (
(0,1687,l),
(0,1342,l),
(400,1342,l),
(400,1687,l)
);
}
);
width = 400;
}
);
production = leftarrowabovecomb.mid;
subCategory = Arrow;
},
{
category = Mark;
glyphname = leftarrowabovecomb.rgt;
lastChange = "2025-11-07 18:25:12 +0000";
layers = (
{
layerId = "B5195C1E-69AB-4BC6-9855-DF55601A0735";
shapes = (
{
closed = 1;
nodes = (
(0,1271,l),
(0,1203,l),
(200,1203,l),
(200,1270,l)
);
},
{
closed = 1;
nodes = (
(371,1200,o),
(491,1200,o),
(600,1195,c),
(605,1212,o),
(609,1234,o),
(609,1256,c),
(494,1261,o),
(381,1265,o),
(200,1270,c),
(200,1203,l)
);
}
);
width = 649;
},
{
layerId = "B5042207-EFBA-41B6-8DFD-104A953B46A6";
shapes = (
{
closed = 1;
nodes = (
(0,1687,l),
(0,1342,l),
(203,1342,l),
(203,1687,l)
);
},
{
closed = 1;
nodes = (
(386,1331,o),
(524,1313,o),
(625,1309,c),
(625,1402,o),
(600,1615,o),
(582,1663,c),
(454,1674,o),
(341,1682,o),
(203,1687,c),
(203,1342,l)
);
}
);
width = 715;
}
);
metricLeft = "=|rightarrowabovecomb.lft";
metricRight = "=|rightarrowabovecomb.lft";
production = leftarrowabovecomb.rgt;
subCategory = Arrow;
},
{
category = Mark;
glyphname = leftarrowbelowcomb;
lastChange = "2025-11-07 20:09:56 +0000";
layers = (
{
anchors = (
{
name = math.ta;
pos = (445,-389);
}
);
layerId = "B5195C1E-69AB-4BC6-9855-DF55601A0735";
shapes = (
{
closed = 1;
nodes = (
(555,-96,o),
(538,-80,o),
(527,-73,c),
(474,-87,o),
(270,-169,o),
(40,-325,c),
(41,-372,l),
(321,-522,o),
(476,-596,o),
(515,-606,c),
(521,-594,o),
(531,-574,o),
(531,-558,c),
(462,-530,o),
(334,-469,o),
(73,-335,c),
(82,-363,l),
(247,-256,o),
(443,-180,o),
(564,-106,c)
);
},
{
closed = 1;
nodes = (
(102,-339,o),
(102,-367,o),
(105,-382,c),
(466,-382,o),
(497,-389,o),
(780,-400,c),
(785,-383,o),
(789,-361,o),
(789,-339,c),
(712,-332,o),
(523,-318,o),
(511,-318,cs),
(286,-318,o),
(190,-318,o),
(102,-320,c)
);
}
);
userData = {
com.nagwa.MATHPlugin.variants = {
hAssembly = (
(
leftarrowbelowcomb.lft,
0,
0,
200
),
(
leftarrowbelowcomb.mid,
1,
200,
200
),
(
leftarrowbelowcomb.rgt,
0,
200,
0
)
);
};
};
width = 829;
},
{
anchors = (
{
name = math.ta;
pos = (627,-577);
}
);
layerId = "B5042207-EFBA-41B6-8DFD-104A953B46A6";
shapes = (
{
closed = 1;
nodes = (
(723,-265,o),
(682,-208,o),
(613,-143,c),
(560,-157,o),
(241,-354,o),
(57,-486,c),
(50,-628,l),
(307,-756,o),
(677,-1021,o),
(717,-1031,c),
(754,-997,o),
(781,-858,o),
(781,-816,c),
(760,-807,o),
(453,-581,o),
(327,-480,c),
(364,-565,l),
(428,-521,o),
(656,-409,o),
(755,-336,c)
);
},
{
closed = 1;
nodes = (
(320,-622,o),
(318,-579,o),
(318,-671,c),
(450,-671,o),
(723,-729,o),
(1022,-741,c),
(1022,-648,o),
(997,-494,o),
(979,-446,c),
(913,-440,o),
(821,-437,o),
(754,-437,cs),
(520,-437,o),
(505,-504,o),
(347,-518,c)
);
}
);
userData = {
com.nagwa.MATHPlugin.variants = {
hAssembly = (
(
leftarrowbelowcomb.lft,
0,
0,
200
),
(
leftarrowbelowcomb.mid,
1,
200,
200
),
(
leftarrowbelowcomb.rgt,
0,
200,
0
)
);
};
};
width = 1072;
}
);
metricLeft = "=|rightarrowabovecomb";
metricRight = "=|rightarrowabovecomb";
subCategory = Arrow;
unicode = 8430;
},
{
category = Mark;
glyphname = leftarrowbelowcomb.lft;
lastChange = "2025-11-07 20:24:53 +0000";
layers = (
{
layerId = "B5195C1E-69AB-4BC6-9855-DF55601A0735";
shapes = (
{
closed = 1;
nodes = (
(459,-146,o),
(442,-130,o),
(431,-123,c),
(378,-137,o),
(279,-192,o),
(40,-335,c),
(41,-382,l),
(321,-502,o),
(424,-545,o),
(463,-555,c),
(469,-543,o),
(479,-523,o),
(479,-507,c),
(410,-479,o),
(334,-449,o),
(73,-345,c),
(82,-373,l),
(247,-266,o),
(324,-209,o),
(468,-156,c)
);
},
{
closed = 1;
nodes = (
(512,-327,o),
(200,-328,o),
(102,-330,c),
(102,-349,o),
(102,-377,o),
(105,-392,c),
(331,-392,o),
(581,-394,o),
(610,-397,c),
(610,-328,l)
);
},
{
closed = 1;
nodes = (
(610,-328,l),
(610,-397,l),
(810,-397,l),
(810,-330,l)
);
}
);
width = 810;
},
{
layerId = "B5042207-EFBA-41B6-8DFD-104A953B46A6";
shapes = (
{
closed = 1;
nodes = (
(770,-275,o),
(702,-199,o),
(633,-163,c),
(580,-177,o),
(251,-414,o),
(67,-546,c),
(50,-658,l),
(307,-786,o),
(737,-1071,o),
(777,-1081,c),
(814,-1047,o),
(851,-888,o),
(851,-846,c),
(830,-837,o),
(503,-611,o),
(377,-510,c),
(414,-635,l),
(478,-591,o),
(726,-419,o),
(825,-346,c)
);
},
{
closed = 1;
nodes = (
(689,-410,o),
(646,-412,o),
(377,-498,c),
(350,-602,o),
(348,-629,o),
(348,-721,c),
(422,-721,o),
(484,-740,o),
(798,-758,c),
(801,-413,l)
);
},
{
closed = 1;
nodes = (
(801,-413,l),
(798,-758,l),
(1001,-758,l),
(1001,-413,l)
);
}
);
width = 1001;
}
);
metricLeft = "=|rightarrowabovecomb.rgt";
metricRight = "=|rightarrowabovecomb.rgt";
production = leftarrowabovecomb.lft.001;
subCategory = Arrow;
},
{
category = Mark;
glyphname = leftarrowbelowcomb.mid;
lastChange = "2025-11-07 17:02:28 +0000";
layers = (
{
layerId = "B5195C1E-69AB-4BC6-9855-DF55601A0735";
shapes = (
{
closed = 1;
nodes = (
(0,-329,l),
(0,-397,l),
(400,-397,l),
(400,-330,l)
);
}
);
width = 400;
},
{
layerId = "B5042207-EFBA-41B6-8DFD-104A953B46A6";
shapes = (
{
closed = 1;
nodes = (
(0,-413,l),
(0,-758,l),
(400,-758,l),
(400,-413,l)
);
}
);
width = 400;
}
);
production = leftarrowabovecomb.mid.001;
subCategory = Arrow;
},
{
category = Mark;
glyphname = leftarrowbelowcomb.rgt;
lastChange = "2025-11-07 18:27:08 +0000";
layers = (
{
layerId = "B5195C1E-69AB-4BC6-9855-DF55601A0735";
shapes = (
{
closed = 1;
nodes = (
(0,-329,l),
(0,-397,l),
(200,-397,l),
(200,-330,l)
);
},
{
closed = 1;
nodes = (
(371,-400,o),
(491,-400,o),
(600,-405,c),
(605,-388,o),
(609,-366,o),
(609,-344,c),
(494,-339,o),
(381,-335,o),
(200,-330,c),
(200,-397,l)
);
}
);
width = 649;
},
{
layerId = "B5042207-EFBA-41B6-8DFD-104A953B46A6";
shapes = (
{
closed = 1;
nodes = (
(0,-413,l),
(0,-758,l),
(203,-758,l),
(203,-413,l)
);
},
{
closed = 1;
nodes = (
(386,-769,o),
(524,-787,o),
(625,-791,c),
(625,-698,o),
(600,-485,o),
(582,-437,c),
(454,-426,o),
(341,-418,o),
(203,-413,c),
(203,-758,l)
);
}
);
width = 675;
}
);
metricLeft = "=|rightarrowabovecomb.lft";
metricRight = "=|rightarrowabovecomb.lft";
production = leftarrowabovecomb.rgt.001;
subCategory = Arrow;
},
{
category = Mark;
glyphname = leftharpoonbelowcomb.lft;
lastChange = "2025-11-07 20:11:26 +0000";
layers = (
{
anchors = (
{
name = math.ta;
pos = (637,1531);
}
);
layerId = "B5195C1E-69AB-4BC6-9855-DF55601A0735";
shapes = (
{
closed = 1;
nodes = (
(41,-382,l),
(321,-532,o),
(406,-566,o),
(445,-576,c),
(451,-564,o),
(461,-544,o),
(461,-528,c),
(270,-451,o),
(102,-367,o),
(40,-335,c)
);
},
{
closed = 1;
nodes = (
(539,-329,l),
(539,-397,l),
(729,-397,l),
(729,-329,l)
);
},
{
closed = 1;
nodes = (
(270,-326,o),
(311,-329,o),
(40,-335,c),
(40,-354,o),
(102,-377,o),
(105,-392,c),
(349,-392,o),
(296,-394,o),
(539,-397,c),
(539,-329,l)
);
}
);
width = 729;
},
{
anchors = (
{
name = math.ta;
pos = (687,3828);
}
);
layerId = "B5042207-EFBA-41B6-8DFD-104A953B46A6";
shapes = (
{
closed = 1;
nodes = (
(52,-597,l),
(297,-747,o),
(701,-1068,o),
(740,-1082,c),
(780,-1051,o),
(854,-858,o),
(857,-816,c),
(501,-636,o),
(293,-522,o),
(75,-416,c)
);
},
{
closed = 1;
nodes = (
(973,-415,l),
(973,-760,l),
(1173,-760,l),
(1173,-414,l)
);
},
{
closed = 1;
nodes = (
(567,-414,o),
(477,-413,o),
(79,-370,c),
(72,-423,o),
(50,-500,o),
(50,-592,c),
(131,-592,o),
(519,-760,o),
(973,-760,c),
(973,-414,l)
);
}
);
width = 1303;
}
);
metricLeft = "=|rightharpoonabovecomb";
production = leftharpoonbelowcomb.lft;
subCategory = Arrow;
},
{
glyphname = leftrightarrowabovecomb;
lastChange = "2025-11-07 18:25:12 +0000";
layers = (
{
anchors = (
{
name = math.ta;
pos = (1396,830);
}
);
layerId = "B5195C1E-69AB-4BC6-9855-DF55601A0735";
shapes = (
{
closed = 1;
nodes = (
(475,1454,o),
(458,1470,o),
(447,1477,c),
(394,1463,o),
(270,1391,o),
(40,1235,c),
(41,1188,l),
(321,1038,o),
(416,974,o),
(455,964,c),
(461,976,o),
(471,996,o),
(471,1012,c),
(402,1040,o),
(334,1091,o),
(73,1225,c),
(82,1197,l),
(247,1304,o),
(363,1370,o),
(484,1444,c)
);
},
{
closed = 1;
nodes = (
(102,1221,o),
(102,1193,o),
(105,1178,c),
(566,1178,o),
(778,1191,o),
(1061,1180,c),
(1066,1197,o),
(1070,1219,o),
(1070,1241,c),
(884,1250,o),
(828,1242,o),
(601,1242,cs),
(376,1242,o),
(190,1242,o),
(102,1240,c)
);
},
{
closed = 1;
nodes = (
(759,1376,o),
(905,1310,o),
(1070,1203,c),
(1079,1231,l),
(818,1097,o),
(720,1046,o),
(651,1018,c),
(651,1002,o),
(661,982,o),
(667,970,c),
(706,980,o),
(831,1044,o),
(1111,1194,c),
(1112,1241,l),
(882,1397,o),
(728,1469,o),
(675,1483,c),
(664,1476,o),
(647,1460,o),
(638,1450,c)
);
}
);
userData = {
com.nagwa.MATHPlugin.variants = {
hAssembly = (
(
leftarrowabovecomb.lft,
0,
0,
200
),
(
leftarrowabovecomb.mid,
1,
200,
200
),
(
rightarrowabovecomb.rgt,
0,
200,
0
)
);
};
};
width = 1152;
},
{
anchors = (
{
name = math.ta;
pos = (825,1063);
}
);
layerId = "B5042207-EFBA-41B6-8DFD-104A953B46A6";
shapes = (
{
closed = 1;
nodes = (
(658,1848,o),
(601,1918,o),
(532,1954,c),
(479,1940,o),
(241,1716,o),
(57,1584,c),
(50,1442,l),
(307,1314,o),
(621,1102,o),
(661,1092,c),
(698,1126,o),
(779,1245,o),
(779,1287,c),
(758,1296,o),
(483,1509,o),
(357,1610,c),
(399,1540,l),
(463,1584,o),
(614,1704,o),
(713,1777,c)
);
},
{
closed = 1;
nodes = (
(330,1518,o),
(328,1491,o),
(328,1399,c),
(460,1399,o),
(1054,1381,o),
(1353,1369,c),
(1353,1462,o),
(1328,1625,o),
(1310,1673,c),
(1094,1673,o),
(825,1652,o),
(823,1652,cs),
(589,1652,o),
(515,1636,o),
(357,1622,c)
);
},
{
closed = 1;
nodes = (
(1015,1692,o),
(1183,1519,o),
(1247,1475,c),
(1284,1600,l),
(1158,1499,o),
(939,1298,o),
(918,1289,c),
(918,1247,o),
(1005,1095,o),
(1042,1061,c),
(1082,1071,o),
(1344,1284,o),
(1601,1452,c),
(1594,1604,l),
(1410,1736,o),
(1136,1920,o),
(1083,1934,c),
(1014,1898,o),
(971,1836,o),
(916,1765,c)
);
}
);
userData = {
com.nagwa.MATHPlugin.variants = {
hAssembly = (
(
leftarrowabovecomb.lft,
0,
0,
200
),
(
leftarrowabovecomb.mid,
1,
200,
200
),
(
rightarrowabovecomb.rgt,
0,
200,
0
)
);
};
};
width = 1651;
}
);
metricLeft = "=leftarrowabovecomb";
metricRight = "=rightarrowabovecomb";
subCategory = Arrow;
unicode = 8417;
},
{
category = Mark;
glyphname = rightarrowabovecomb;
lastChange = "2025-11-07 18:25:12 +0000";
layers = (
{
anchors = (
{
name = math.ta;
pos = (384,1211);
}
);
layerId = "B5195C1E-69AB-4BC6-9855-DF55601A0735";
shapes = (
{
closed = 1;
nodes = (
(406,1380,o),
(582,1304,o),
(747,1197,c),
(756,1225,l),
(495,1101,o),
(367,1030,o),
(298,1002,c),
(298,986,o),
(308,966,o),
(314,954,c),
(353,964,o),
(508,1048,o),
(788,1188,c),
(789,1235,l),
(559,1391,o),
(375,1473,o),
(322,1487,c),
(311,1480,o),
(294,1464,o),
(285,1454,c)
);
},
{
closed = 1;
nodes = (
(639,1242,o),
(543,1242,o),
(318,1242,cs),
(306,1242,o),
(117,1228,o),
(40,1221,c),
(40,1199,o),
(44,1177,o),
(49,1160,c),
(332,1171,o),
(363,1178,o),
(724,1178,c),
(727,1193,o),
(727,1221,o),
(727,1240,c)
);
}
);
userData = {
com.nagwa.MATHPlugin.variants = {
hAssembly = (
(
rightarrowabovecomb.lft,
0,
0,
200
),
(
rightarrowabovecomb.mid,
1,
200,
200
),
(
rightarrowabovecomb.rgt,
0,
200,
0
)
);
};
};
width = 829;
},
{
anchors = (
{
name = math.ta;
pos = (445,1523);
}
);
layerId = "B5042207-EFBA-41B6-8DFD-104A953B46A6";
shapes = (
{
closed = 1;
nodes = (
(416,1691,o),
(644,1579,o),
(708,1535,c),
(745,1620,l),
(619,1519,o),
(312,1293,o),
(291,1284,c),
(291,1242,o),
(318,1103,o),
(355,1069,c),
(395,1079,o),
(765,1344,o),
(1022,1472,c),
(1015,1614,l),
(831,1746,o),
(512,1943,o),
(459,1957,c),
(390,1892,o),
(349,1835,o),
(317,1764,c)
);
},
{
closed = 1;
nodes = (
(567,1596,o),
(552,1663,o),
(318,1663,cs),
(251,1663,o),
(159,1660,o),
(93,1654,c),
(75,1606,o),
(50,1452,o),
(50,1359,c),
(349,1371,o),
(622,1429,o),
(754,1429,c),
(754,1521,o),
(752,1478,o),
(725,1582,c)
);
}
);
userData = {
com.nagwa.MATHPlugin.variants = {
hAssembly = (
(
rightarrowabovecomb.lft,
0,
0,
200
),
(
rightarrowabovecomb.mid,
1,
200,
200
),
(
rightarrowabovecomb.rgt,
0,
200,
0
)
);
};
};
width = 1072;
}
);
subCategory = Arrow;
unicode = 8407;
},
{
category = Mark;
glyphname = rightarrowabovecomb.lft;
lastChange = "2025-11-07 18:25:12 +0000";
layers = (
{
layerId = "B5195C1E-69AB-4BC6-9855-DF55601A0735";
shapes = (
{
closed = 1;
nodes = (
(449,1203,l),
(649,1203,l),
(649,1271,l),
(449,1270,l)
);
},
{
closed = 1;
nodes = (
(449,1270,l),
(268,1265,o),
(155,1261,o),
(40,1256,c),
(40,1234,o),
(44,1212,o),
(49,1195,c),
(158,1200,o),
(278,1200,o),
(449,1203,c)
);
}
);
width = 649;
},
{
layerId = "B5042207-EFBA-41B6-8DFD-104A953B46A6";
shapes = (
{
closed = 1;
nodes = (
(472,1342,l),
(675,1342,l),
(675,1687,l),
(472,1687,l)
);
},
{
closed = 1;
nodes = (
(472,1687,l),
(334,1682,o),
(221,1674,o),
(93,1663,c),
(75,1615,o),
(50,1402,o),
(50,1309,c),
(151,1313,o),
(289,1331,o),
(472,1342,c)
);
}
);
width = 675;
}
);
metricLeft = "=rightarrowabovecomb";
production = rightarrowabovecomb.lft;
subCategory = Arrow;
},
{
category = Mark;
glyphname = rightarrowabovecomb.mid;
lastChange = "2025-11-07 18:25:12 +0000";
layers = (
{
layerId = "B5195C1E-69AB-4BC6-9855-DF55601A0735";
shapes = (
{
closed = 1;
nodes = (
(0,1203,l),
(400,1203,l),
(400,1271,l),
(0,1270,l)
);
}
);
width = 400;
},
{
layerId = "B5042207-EFBA-41B6-8DFD-104A953B46A6";
shapes = (
{
closed = 1;
nodes = (
(0,1342,l),
(400,1342,l),
(400,1687,l),
(0,1687,l)
);
}
);
width = 400;
}
);
production = rightarrowabovecomb.mid;
subCategory = Arrow;
},
{
category = Mark;
glyphname = rightarrowabovecomb.rgt;
lastChange = "2025-11-07 18:25:12 +0000";
layers = (
{
layerId = "B5195C1E-69AB-4BC6-9855-DF55601A0735";
shapes = (
{
closed = 1;
nodes = (
(486,1351,o),
(563,1334,o),
(728,1227,c),
(737,1255,l),
(476,1151,o),
(400,1151,o),
(331,1123,c),
(331,1107,o),
(341,1087,o),
(347,1075,c),
(386,1085,o),
(489,1098,o),
(769,1218,c),
(770,1265,l),
(531,1408,o),
(432,1423,o),
(379,1437,c),
(368,1430,o),
(351,1414,o),
(342,1404,c)
);
},
{
closed = 1;
nodes = (
(200,1203,l),
(229,1206,o),
(479,1208,o),
(705,1208,c),
(708,1223,o),
(708,1251,o),
(708,1270,c),
(610,1272,o),
(298,1272,o),
(200,1271,c)
);
},
{
closed = 1;
nodes = (
(0,1203,l),
(200,1203,l),
(200,1271,l),
(0,1270,l)
);
}
);
width = 810;
},
{
layerId = "B5042207-EFBA-41B6-8DFD-104A953B46A6";
shapes = (
{
closed = 1;
nodes = (
(275,1681,o),
(523,1509,o),
(587,1465,c),
(624,1590,l),
(498,1489,o),
(171,1263,o),
(150,1254,c),
(150,1212,o),
(187,1053,o),
(224,1019,c),
(264,1029,o),
(694,1314,o),
(951,1442,c),
(934,1554,l),
(750,1686,o),
(421,1923,o),
(368,1937,c),
(299,1901,o),
(231,1825,o),
(176,1754,c)
);
},
{
closed = 1;
nodes = (
(203,1342,l),
(517,1360,o),
(579,1379,o),
(653,1379,c),
(653,1471,o),
(651,1498,o),
(624,1602,c),
(365,1685,o),
(314,1690,o),
(200,1687,c)
);
},
{
closed = 1;
nodes = (
(0,1342,l),
(203,1342,l),
(200,1687,l),
(0,1687,l)
);
}
);
width = 1001;
}
);
metricRight = "=rightarrowabovecomb";
production = rightarrowabovecomb.rgt;
subCategory = Arrow;
},
{
category = Mark;
glyphname = rightarrowbelowcomb;
lastChange = "2025-11-07 20:09:53 +0000";
layers = (
{
anchors = (
{
name = math.ta;
pos = (384,-389);
}
);
layerId = "B5195C1E-69AB-4BC6-9855-DF55601A0735";
shapes = (
{
closed = 1;
nodes = (
(406,-180,o),
(582,-256,o),
(747,-363,c),
(756,-335,l),
(495,-459,o),
(367,-530,o),
(298,-558,c),
(298,-574,o),
(308,-594,o),
(314,-606,c),
(353,-596,o),
(508,-512,o),
(788,-372,c),
(789,-325,l),
(559,-169,o),
(375,-87,o),
(322,-73,c),
(311,-80,o),
(294,-96,o),
(285,-106,c)
);
},
{
closed = 1;
nodes = (
(639,-318,o),
(543,-318,o),
(318,-318,cs),
(306,-318,o),
(117,-332,o),
(40,-339,c),
(40,-361,o),
(44,-383,o),
(49,-400,c),
(332,-389,o),
(363,-382,o),
(724,-382,c),
(727,-367,o),
(727,-339,o),
(727,-320,c)
);
}
);
userData = {
com.nagwa.MATHPlugin.variants = {
hAssembly = (
(
rightarrowbelowcomb.lft,
0,
0,
200
),
(
rightarrowbelowcomb.mid,
1,
200,
200
),
(
rightarrowbelowcomb.rgt,
0,
200,
0
)
);
};
};
width = 829;
},
{
anchors = (
{
name = math.ta;
pos = (445,-577);
}
);
layerId = "B5042207-EFBA-41B6-8DFD-104A953B46A6";
shapes = (
{
closed = 1;
nodes = (
(416,-409,o),
(644,-521,o),
(708,-565,c),
(745,-480,l),
(619,-581,o),
(312,-807,o),
(291,-816,c),
(291,-858,o),
(318,-997,o),
(355,-1031,c),
(395,-1021,o),
(765,-756,o),
(1022,-628,c),
(1015,-486,l),
(831,-354,o),
(512,-157,o),
(459,-143,c),
(390,-208,o),
(349,-265,o),
(317,-336,c)
);
},
{
closed = 1;
nodes = (
(567,-504,o),
(552,-437,o),
(318,-437,cs),
(251,-437,o),
(159,-440,o),
(93,-446,c),
(75,-494,o),
(50,-648,o),
(50,-741,c),
(349,-729,o),
(622,-671,o),
(754,-671,c),
(754,-579,o),
(752,-622,o),
(725,-518,c)
);
}
);
userData = {
com.nagwa.MATHPlugin.variants = {
hAssembly = (
(
rightarrowbelowcomb.lft,
0,
0,
200
),
(
rightarrowbelowcomb.mid,
1,
200,
200
),
(
rightarrowbelowcomb.rgt,
0,
200,
0
)
);
};
};
width = 1072;
}
);
metricLeft = "=rightarrowabovecomb";
metricRight = "=rightarrowabovecomb";
subCategory = Arrow;
unicode = 8431;
},
{
category = Mark;
glyphname = rightarrowbelowcomb.lft;
lastChange = "2025-11-07 18:27:08 +0000";
layers = (
{
layerId = "B5195C1E-69AB-4BC6-9855-DF55601A0735";
shapes = (
{
closed = 1;
nodes = (
(449,-397,l),
(649,-397,l),
(649,-329,l),
(449,-330,l)
);
},
{
closed = 1;
nodes = (
(449,-330,l),
(268,-335,o),
(155,-339,o),
(40,-344,c),
(40,-366,o),
(44,-388,o),
(49,-405,c),
(158,-400,o),
(278,-400,o),
(449,-397,c)
);
}
);
width = 649;
},
{
layerId = "B5042207-EFBA-41B6-8DFD-104A953B46A6";
shapes = (
{
closed = 1;
nodes = (
(472,-758,l),
(675,-758,l),
(675,-413,l),
(472,-413,l)
);
},
{
closed = 1;
nodes = (
(472,-413,l),
(334,-418,o),
(221,-426,o),
(93,-437,c),
(75,-485,o),
(50,-698,o),
(50,-791,c),
(151,-787,o),
(289,-769,o),
(472,-758,c)
);
}
);
width = 675;
}
);
metricLeft = "=rightarrowbelowcomb";
production = rightarrowabovecomb.lft.001;
subCategory = Arrow;
},
{
category = Mark;
glyphname = rightarrowbelowcomb.mid;
lastChange = "2025-11-07 17:02:28 +0000";
layers = (
{
layerId = "B5195C1E-69AB-4BC6-9855-DF55601A0735";
shapes = (
{
closed = 1;
nodes = (
(0,-397,l),
(400,-397,l),
(400,-329,l),
(0,-330,l)
);
}
);
width = 400;
},
{
layerId = "B5042207-EFBA-41B6-8DFD-104A953B46A6";
shapes = (
{
closed = 1;
nodes = (
(0,-758,l),
(400,-758,l),
(400,-413,l),
(0,-413,l)
);
}
);
width = 400;
}
);
production = rightarrowabovecomb.mid.001;
subCategory = Arrow;
},
{
category = Mark;
glyphname = rightarrowbelowcomb.rgt;
lastChange = "2025-11-07 20:10:17 +0000";
layers = (
{
layerId = "B5195C1E-69AB-4BC6-9855-DF55601A0735";
shapes = (
{
closed = 1;
nodes = (
(306,-249,o),
(383,-266,o),
(548,-373,c),
(557,-345,l),
(296,-449,o),
(220,-449,o),
(151,-477,c),
(151,-493,o),
(161,-513,o),
(167,-525,c),
(206,-515,o),
(309,-502,o),
(589,-382,c),
(590,-335,l),
(351,-192,o),
(252,-177,o),
(199,-163,c),
(188,-170,o),
(171,-186,o),
(162,-196,c)
);
},
{
closed = 1;
nodes = (
(200,-397,l),
(229,-394,o),
(299,-392,o),
(525,-392,c),
(528,-377,o),
(528,-349,o),
(528,-330,c),
(430,-328,o),
(298,-328,o),
(200,-329,c)
);
},
{
closed = 1;
nodes = (
(0,-397,l),
(200,-397,l),
(200,-329,l),
(0,-330,l)
);
}
);
width = 630;
},
{
layerId = "B5042207-EFBA-41B6-8DFD-104A953B46A6";
shapes = (
{
closed = 1;
nodes = (
(275,-419,o),
(523,-591,o),
(587,-635,c),
(624,-510,l),
(498,-611,o),
(171,-837,o),
(150,-846,c),
(150,-888,o),
(187,-1047,o),
(224,-1081,c),
(264,-1071,o),
(694,-786,o),
(951,-658,c),
(934,-546,l),
(750,-414,o),
(421,-177,o),
(368,-163,c),
(299,-199,o),
(231,-275,o),
(176,-346,c)
);
},
{
closed = 1;
nodes = (
(203,-758,l),
(517,-740,o),
(579,-721,o),
(653,-721,c),
(653,-629,o),
(651,-602,o),
(624,-498,c),
(365,-415,o),
(314,-410,o),
(200,-413,c)
);
},
{
closed = 1;
nodes = (
(0,-758,l),
(203,-758,l),
(200,-413,l),
(0,-413,l)
);
}
);
width = 1001;
}
);
metricRight = "=rightarrowbelowcomb";
production = rightarrowabovecomb.rgt.001;
subCategory = Arrow;
},
{
glyphname = rightharpoonabovecomb;
lastChange = "2025-11-07 22:30:35 +0000";
layers = (
{
anchors = (
{
name = math.ta;
pos = (508,1277);
}
);
layerId = "B5195C1E-69AB-4BC6-9855-DF55601A0735";
shapes = (
{
closed = 1;
nodes = (
(1028,1256,l),
(748,1406,o),
(663,1440,o),
(624,1450,c),
(618,1438,o),
(608,1418,o),
(608,1402,c),
(799,1325,o),
(967,1241,o),
(1029,1209,c)
);
},
{
closed = 1;
nodes = (
(230,1203,l),
(230,1271,l),
(40,1271,l),
(40,1203,l)
);
},
{
closed = 1;
nodes = (
(499,1200,o),
(758,1203,o),
(1029,1209,c),
(1029,1228,o),
(967,1251,o),
(964,1266,c),
(720,1266,o),
(473,1268,o),
(230,1271,c),
(230,1203,l)
);
}
);
userData = {
com.nagwa.MATHPlugin.variants = {
hAssembly = (
(
rightarrowabovecomb.lft,
0,
0,
200
),
(
rightarrowabovecomb.mid,
1,
200,
200
),
(
rightharpoonabovecomb.rgt,
0,
200,
0
)
);
};
};
width = 1069;
},
{
anchors = (
{
name = math.ta;
pos = (598,1277);
}
);
layerId = "B5042207-EFBA-41B6-8DFD-104A953B46A6";
shapes = (
{
closed = 1;
nodes = (
(1251,1535,l),
(1046,1784,o),
(667,1983,o),
(628,1997,c),
(588,1966,o),
(514,1763,o),
(511,1721,c),
(867,1541,o),
(1010,1450,o),
(1228,1344,c)
);
},
{
closed = 1;
nodes = (
(250,1343,l),
(250,1688,l),
(50,1688,l),
(50,1342,l)
);
},
{
closed = 1;
nodes = (
(656,1342,o),
(826,1341,o),
(1224,1298,c),
(1231,1351,o),
(1253,1428,o),
(1253,1520,c),
(1172,1520,o),
(704,1688,o),
(250,1688,c),
(250,1342,l)
);
}
);
userData = {
com.nagwa.MATHPlugin.variants = {
hAssembly = (
(
rightarrowabovecomb.lft,
0,
0,
200
),
(
rightarrowabovecomb.mid,
1,
200,
200
),
(
rightharpoonabovecomb.rgt,
0,
200,
0
)
);
};
};
width = 1303;
}
);
metricLeft = "=rightarrowabovecomb";
metricRight = "=rightarrowabovecomb";
subCategory = Arrow;
unicode = 8401;
},
{
glyphname = rightharpoonabovecomb.rgt;
lastChange = "2025-11-07 22:30:41 +0000";
layers = (
{
anchors = (
{
name = math.ta;
pos = (118,1277);
}
);
layerId = "B5195C1E-69AB-4BC6-9855-DF55601A0735";
shapes = (
{
closed = 1;
nodes = (
(638,1256,l),
(448,1336,o),
(253,1440,o),
(214,1450,c),
(208,1438,o),
(198,1418,o),
(198,1402,c),
(389,1325,o),
(577,1241,o),
(639,1209,c)
);
},
{
closed = 1;
nodes = (
(190,1203,l),
(190,1271,l),
(0,1271,l),
(0,1203,l)
);
},
{
closed = 1;
nodes = (
(459,1200,o),
(368,1203,o),
(639,1209,c),
(639,1228,o),
(577,1251,o),
(574,1266,c),
(330,1266,o),
(433,1268,o),
(190,1271,c),
(190,1203,l)
);
}
);
userData = {
com.nagwa.MATHPlugin.variants = {
hAssembly = (
(
rightarrowabovecomb.mid,
0,
0,
200
),
(
rightharpoonabovecomb,
1,
200,
0
)
);
};
};
width = 679;
},
{
anchors = (
{
name = math.ta;
pos = (398,1267);
}
);
layerId = "B5042207-EFBA-41B6-8DFD-104A953B46A6";
shapes = (
{
closed = 1;
nodes = (
(1051,1535,l),
(840,1745,o),
(522,1972,o),
(363,2020,c),
(323,1989,o),
(249,1786,o),
(246,1744,c),
(602,1564,o),
(810,1450,o),
(1028,1344,c)
);
},
{
closed = 1;
nodes = (
(200,1343,l),
(200,1688,l),
(0,1688,l),
(0,1342,l)
);
},
{
closed = 1;
nodes = (
(606,1342,o),
(626,1341,o),
(1024,1298,c),
(1053,1351,o),
(1053,1428,o),
(1053,1520,c),
(972,1520,o),
(654,1688,o),
(200,1688,c),
(200,1342,l)
);
}
);
userData = {
com.nagwa.MATHPlugin.variants = {
};
};
width = 1103;
}
);
metricRight = "=rightharpoonabovecomb";
subCategory = Arrow;
},
{
glyphname = rightharpoonbelowcomb;
lastChange = "2025-11-07 20:26:02 +0000";
layers = (
{
anchors = (
{
name = math.ta;
pos = (508,1534);
}
);
layerId = "B5195C1E-69AB-4BC6-9855-DF55601A0735";
shapes = (
{
closed = 1;
nodes = (
(967,-390,o),
(709,-484,o),
(518,-561,c),
(518,-577,o),
(528,-597,o),
(534,-609,c),
(573,-599,o),
(748,-555,o),
(1028,-405,c),
(1029,-358,l)
);
},
{
closed = 1;
nodes = (
(40,-420,l),
(230,-420,l),
(230,-352,l),
(40,-352,l)
);
},
{
closed = 1;
nodes = (
(230,-420,l),
(473,-417,o),
(720,-415,o),
(964,-415,c),
(967,-400,o),
(1029,-377,o),
(1029,-358,c),
(760,-352,o),
(501,-349,o),
(230,-352,c)
);
}
);
userData = {
com.nagwa.MATHPlugin.variants = {
hAssembly = (
(
rightarrowbelowcomb.lft,
0,
0,
200
),
(
rightarrowbelowcomb.mid,
1,
200,
200
),
(
rightharpoonbelowcomb.rgt,
0,
200,
0
)
);
};
};
width = 1069;
},
{
anchors = (
{
name = math.ta;
pos = (598,-420);
}
);
layerId = "B5042207-EFBA-41B6-8DFD-104A953B46A6";
shapes = (
{
closed = 1;
nodes = (
(1010,-553,o),
(802,-667,o),
(446,-847,c),
(449,-889,o),
(523,-1082,o),
(563,-1113,c),
(602,-1099,o),
(1006,-778,o),
(1251,-628,c),
(1228,-447,l)
);
},
{
closed = 1;
nodes = (
(50,-791,l),
(250,-791,l),
(250,-446,l),
(50,-445,l)
);
},
{
closed = 1;
nodes = (
(250,-791,l),
(704,-791,o),
(1172,-623,o),
(1253,-623,c),
(1253,-531,o),
(1231,-454,o),
(1224,-401,c),
(826,-444,o),
(656,-445,o),
(250,-445,c)
);
}
);
userData = {
com.nagwa.MATHPlugin.variants = {
hAssembly = (
(
rightarrowbelowcomb.lft,
0,
0,
200
),
(
rightarrowbelowcomb.mid,
1,
200,
200
),
(
rightharpoonbelowcomb.rgt,
0,
200,
0
)
);
};
};
width = 1303;
}
);
metricLeft = "=rightarrowbelowcomb";
metricRight = "=rightarrowbelowcomb";
production = rightharpoonbelowcomb;
subCategory = Arrow;
unicode = 8428;
},
{
category = Mark;
glyphname = rightharpoonbelowcomb.rgt;
lastChange = "2025-11-07 20:26:05 +0000";
layers = (
{
anchors = (
{
name = math.ta;
pos = (268,1129);
}
);
layerId = "B5195C1E-69AB-4BC6-9855-DF55601A0735";
shapes = (
{
closed = 1;
nodes = (
(727,-368,o),
(449,-472,o),
(258,-549,c),
(258,-565,o),
(268,-585,o),
(274,-597,c),
(313,-587,o),
(508,-533,o),
(788,-383,c),
(789,-336,l)
);
},
{
closed = 1;
nodes = (
(0,-398,l),
(190,-398,l),
(190,-330,l),
(0,-330,l)
);
},
{
closed = 1;
nodes = (
(190,-398,l),
(433,-395,o),
(480,-393,o),
(724,-393,c),
(727,-378,o),
(789,-355,o),
(789,-336,c),
(520,-330,o),
(461,-327,o),
(190,-330,c)
);
}
);
userData = {
com.nagwa.MATHPlugin.variants = {
};
};
width = 829;
},
{
anchors = (
{
name = math.ta;
pos = (578,-443);
}
);
layerId = "B5042207-EFBA-41B6-8DFD-104A953B46A6";
shapes = (
{
closed = 1;
nodes = (
(990,-521,o),
(804,-655,o),
(448,-835,c),
(451,-877,o),
(525,-1070,o),
(565,-1101,c),
(604,-1087,o),
(986,-746,o),
(1231,-596,c),
(1208,-415,l)
);
},
{
closed = 1;
nodes = (
(30,-759,l),
(230,-759,l),
(230,-414,l),
(30,-413,l)
);
},
{
closed = 1;
nodes = (
(230,-759,l),
(684,-759,o),
(1152,-591,o),
(1233,-591,c),
(1233,-499,o),
(1211,-422,o),
(1204,-369,c),
(806,-412,o),
(636,-413,o),
(230,-413,c)
);
}
);
userData = {
com.nagwa.MATHPlugin.variants = {
};
};
width = 1283;
}
);
metricRight = "=rightharpoonbelowcomb";
production = rightharpoonbelowcomb.rgt;
subCategory = Arrow;
},
{
glyphname = dieresiscomb.case;
lastChange = "2024-11-29 02:55:34 +0000";
layers = (
{
anchors = (
{
name = _top;
pos = (478.5,1291);
},
{
name = top;
pos = (479,1582);
}
);
layerId = "B5195C1E-69AB-4BC6-9855-DF55601A0735";
shapes = (
{
closed = 1;
nodes = (
(344,1477,o),
(391,1518,o),
(391,1573,cs),
(391,1634,o),
(345,1682,o),
(296,1682,cs),
(249,1682,o),
(201,1635,o),
(201,1572,cs),
(201,1514,o),
(250,1477,o),
(298,1477,cs)
);
},
{
closed = 1;
nodes = (
(723,1493,o),
(756,1524,o),
(756,1580,cs),
(756,1639,o),
(711,1678,o),
(655,1678,cs),
(606,1678,o),
(569,1650,o),
(569,1594,cs),
(569,1535,o),
(618,1493,o),
(674,1493,cs)
);
}
);
width = 944;
},
{
anchors = (
{
name = _top;
pos = (487,1291);
},
{
name = top;
pos = (487,1759);
}
);
layerId = "B5042207-EFBA-41B6-8DFD-104A953B46A6";
shapes = (
{
closed = 1;
nodes = (
(368,1127,o),
(449,1189,o),
(449,1276,cs),
(449,1368,o),
(377,1442,o),
(268,1442,cs),
(169,1442,o),
(90,1368,o),
(90,1274,cs),
(90,1187,o),
(175,1127,o),
(269,1127,cs)
);
},
{
closed = 1;
nodes = (
(788,1134,o),
(884,1199,o),
(884,1296,cs),
(884,1390,o),
(796,1459,o),
(695,1459,cs),
(604,1459,o),
(528,1383,o),
(528,1293,cs),
(528,1203,o),
(607,1134,o),
(701,1134,cs)
);
}
);
width = 944;
}
);
},
{
glyphname = dotaccentcomb;
kernLeft = dotaccent;
kernRight = dotaccent;
lastChange = "2024-12-02 12:51:50 +0000";
layers = (
{
anchors = (
{
name = math.ta;
pos = (187,1039);
}
);
layerId = "B5042207-EFBA-41B6-8DFD-104A953B46A6";
shapes = (
{
closed = 1;
nodes = (
(296,1146,o),
(377,1213,o),
(377,1301,cs),
(377,1383,o),
(317,1468,o),
(219,1468,cs),
(120,1468,o),
(39,1399,o),
(39,1308,cs),
(39,1220,o),
(82,1146,o),
(204,1146,cs)
);
}
);
width = 408;
},
{
anchors = (
{
name = math.ta;
pos = (151,1087);
}
);
layerId = "B5195C1E-69AB-4BC6-9855-DF55601A0735";
shapes = (
{
closed = 1;
nodes = (
(241,1189,o),
(306,1242,o),
(306,1307,cs),
(306,1364,o),
(259,1420,o),
(186,1420,cs),
(106,1420,o),
(40,1373,o),
(40,1307,cs),
(40,1242,o),
(76,1189,o),
(170,1189,cs)
);
}
);
width = 321;
}
);
unicode = 775;
},
{
glyphname = gravecomb.case;
lastChange = "2020-07-16 19:50:45 +0000";
layers = (
{
anchors = (
{
name = _top;
pos = (484,1251);
},
{
name = top;
pos = (409,1610);
}
);
layerId = "B5195C1E-69AB-4BC6-9855-DF55601A0735";
shapes = (
{
closed = 1;
nodes = (
(109,1582,o),
(77,1553,o),
(58,1533,c),
(185,1500,o),
(436,1410,o),
(525,1358,c),
(562,1386,l),
(451,1490,o),
(178,1590,o),
(126,1592,c)
);
}
);
width = 663;
},
{
anchors = (
{
name = _top;
pos = (409,1291);
},
{
name = top;
pos = (403,1696);
}
);
layerId = "B5042207-EFBA-41B6-8DFD-104A953B46A6";
shapes = (
{
closed = 1;
nodes = (
(106,1628,o),
(7,1531,o),
(-7,1510,c),
(120,1484,o),
(367,1410,o),
(456,1369,c),
(627,1475,l),
(516,1559,o),
(277,1691,o),
(215,1696,c)
);
}
);
width = 663;
}
);
},
{
glyphname = acutecomb.case;
lastChange = "2020-07-16 19:49:55 +0000";
layers = (
{
anchors = (
{
name = _top;
pos = (295,1261);
},
{
name = top;
pos = (318,1636);
}
);
layerId = "B5195C1E-69AB-4BC6-9855-DF55601A0735";
shapes = (
{
closed = 1;
nodes = (
(457,1612,o),
(210,1434,o),
(153,1364,c),
(205,1335,l),
(252,1367,o),
(533,1548,o),
(601,1569,c),
(593,1586,o),
(561,1626,o),
(536,1636,c)
);
}
);
width = 621;
},
{
anchors = (
{
name = _top;
pos = (213,1291);
},
{
name = top;
pos = (213,1686);
}
);
layerId = "B5042207-EFBA-41B6-8DFD-104A953B46A6";
shapes = (
{
closed = 1;
nodes = (
(327,1681,o),
(88,1549,o),
(-23,1465,c),
(148,1359,l),
(237,1400,o),
(484,1474,o),
(611,1500,c),
(597,1521,o),
(498,1618,o),
(389,1686,c)
);
}
);
width = 621;
}
);
},
{
glyphname = hungarumlautcomb;
kernLeft = hungarumlaut;
kernRight = hungarumlaut;
lastChange = "2020-07-08 19:57:07 +0000";
layers = (
{
anchors = (
{
name = _top;
pos = (581,1063);
},
{
name = top;
pos = (581,1626);
}
);
layerId = "B5042207-EFBA-41B6-8DFD-104A953B46A6";
shapes = (
{
closed = 1;
nodes = (
(294,1568,o),
(150,1414,o),
(103,1311,c),
(316,1228,l),
(451,1364,o),
(533,1422,o),
(662,1510,c),
(625,1542,o),
(497,1626,o),
(385,1626,c)
);
},
{
closed = 1;
nodes = (
(768,1517,o),
(563,1375,o),
(491,1285,c),
(682,1181,l),
(725,1214,o),
(908,1321,o),
(1058,1387,c),
(1041,1422,o),
(947,1513,o),
(848,1542,c)
);
}
);
width = 1207;
},
{
anchors = (
{
name = _top;
pos = (588,1063);
},
{
name = top;
pos = (588,1559);
}
);
layerId = "B5195C1E-69AB-4BC6-9855-DF55601A0735";
shapes = (
{
closed = 1;
nodes = (
(448,1505,o),
(274,1325,o),
(226,1257,c),
(289,1221,l),
(330,1271,o),
(523,1457,o),
(633,1534,c),
(610,1555,o),
(586,1561,o),
(539,1563,c)
);
},
{
closed = 1;
nodes = (
(785,1461,o),
(621,1325,o),
(549,1235,c),
(636,1220,l),
(726,1302,o),
(859,1392,o),
(949,1430,c),
(932,1455,o),
(894,1478,o),
(865,1486,c)
);
}
);
width = 1207;
}
);
unicode = 779;
},
{
glyphname = hungarumlautcomb.case;
lastChange = "2020-06-17 15:49:04 +0000";
layers = (
{
anchors = (
{
name = _top;
pos = (587.5,1291);
},
{
name = top;
pos = (588,1733);
}
);
layerId = "B5195C1E-69AB-4BC6-9855-DF55601A0735";
shapes = (
{
closed = 1;
nodes = (
(448,1675,o),
(274,1495,o),
(226,1427,c),
(246,1417,o),
(280,1398,o),
(289,1391,c),
(330,1441,o),
(523,1627,o),
(633,1704,c),
(610,1725,o),
(586,1731,o),
(539,1733,c)
);
},
{
closed = 1;
nodes = (
(785,1631,o),
(621,1495,o),
(549,1405,c),
(576,1400,o),
(624,1392,o),
(636,1390,c),
(726,1472,o),
(859,1562,o),
(949,1600,c),
(932,1625,o),
(894,1648,o),
(865,1656,c)
);
}
);
width = 1207;
},
{
anchors = (
{
name = _top;
pos = (580.5,1291);
},
{
name = top;
pos = (580.5,1824);
}
);
layerId = "B5042207-EFBA-41B6-8DFD-104A953B46A6";
shapes = (
{
closed = 1;
nodes = (
(294,1766,o),
(150,1612,o),
(103,1509,c),
(140,1483,o),
(241,1448,o),
(316,1426,c),
(451,1562,o),
(533,1620,o),
(662,1708,c),
(625,1740,o),
(497,1824,o),
(385,1824,c)
);
},
{
closed = 1;
nodes = (
(768,1715,o),
(563,1573,o),
(491,1483,c),
(544,1448,o),
(634,1394,o),
(682,1379,c),
(725,1412,o),
(908,1519,o),
(1058,1585,c),
(1041,1620,o),
(947,1711,o),
(848,1740,c)
);
}
);
width = 1207;
}
);
},
{
glyphname = caroncomb.alt;
kernLeft = quoteright;
kernRight = quotesingle;
lastChange = "2020-07-01 15:08:16 +0000";
layers = (
{
anchors = (
{
name = _topright;
pos = (50,1063);
}
);
layerId = "B5195C1E-69AB-4BC6-9855-DF55601A0735";
shapes = (
{
closed = 1;
nodes = (
(285,1314,o),
(285,1460,c),
(253,1460,o),
(211,1459,o),
(179,1455,c),
(179,1284,o),
(161,1160,o),
(132,1056,c),
(148,1048,o),
(175,1037,o),
(193,1037,c),
(228,1108,o)
);
}
);
width = 515;
},
{
anchors = (
{
name = _topright;
pos = (32,1063);
}
);
layerId = "B5042207-EFBA-41B6-8DFD-104A953B46A6";
shapes = (
{
closed = 1;
nodes = (
(476,1175,o),
(476,1460,c),
(417,1460,o),
(201,1443,o),
(169,1439,c),
(169,1268,o),
(104,1063,o),
(79,1004,c),
(95,996,o),
(233,927,o),
(267,912,c),
(311,949,o)
);
}
);
width = 515;
}
);
metricWidth = quoteright;
},
{
glyphname = circumflexcomb.case;
lastChange = "2024-10-24 01:42:19 +0000";
layers = (
{
anchors = (
{
name = _top;
pos = (438,1063);
},
{
name = math.ta;
pos = (457,1326);
},
{
name = top;
pos = (438,1411);
}
);
layerId = "B5195C1E-69AB-4BC6-9855-DF55601A0735";
shapes = (
{
closed = 1;
nodes = (
(567,1434,o),
(484,1509,c),
(466,1511,o),
(447,1511,o),
(433,1511,c),
(394,1484,o),
(214,1349,o),
(103,1265,c),
(115,1255,o),
(137,1235,o),
(172,1224,c),
(243,1273,o),
(442,1436,o),
(462,1453,c),
(447,1453,l),
(467,1437,o),
(654,1266,o),
(717,1198,c),
(747,1210,o),
(764,1222,o),
(772,1241,c),
(690,1321,o)
);
}
);
width = 874;
},
{
anchors = (
{
name = _top;
pos = (449,1063);
},
{
name = math.ta;
pos = (478,1309);
},
{
name = top;
pos = (449,1534);
}
);
layerId = "B5042207-EFBA-41B6-8DFD-104A953B46A6";
shapes = (
{
closed = 1;
nodes = (
(676,1512,o),
(601,1584,c),
(550,1584,o),
(392,1582,o),
(351,1580,c),
(291,1546,o),
(139,1436,o),
(17,1338,c),
(82,1280,o),
(202,1203,o),
(270,1182,c),
(351,1265,o),
(458,1355,o),
(489,1378,c),
(456,1378,l),
(473,1359,o),
(556,1262,o),
(628,1175,c),
(698,1196,o),
(798,1245,o),
(881,1303,c),
(808,1384,o)
);
}
);
width = 874;
}
);
userData = {
RMXScaler = {
source = circumflexcomb;
};
};
},
{
glyphname = caroncomb.case;
lastChange = "2024-10-24 01:43:58 +0000";
layers = (
{
anchors = (
{
name = _top;
pos = (396,1291);
},
{
name = math.ta;
pos = (388,1358);
},
{
name = top;
pos = (396,1729);
}
);
layerId = "B5195C1E-69AB-4BC6-9855-DF55601A0735";
shapes = (
{
closed = 1;
nodes = (
(593,1640,o),
(446,1491,o),
(390,1426,c),
(402,1426,l),
(388,1445,o),
(233,1630,o),
(148,1729,c),
(125,1715,o),
(103,1702,o),
(82,1690,c),
(179,1587,o),
(273,1481,o),
(350,1389,c),
(372,1388,o),
(406,1387,o),
(432,1387,c),
(477,1431,o),
(573,1519,o),
(750,1674,c),
(733,1687,o),
(700,1707,o),
(676,1720,c)
);
}
);
width = 860;
},
{
anchors = (
{
name = _top;
pos = (400,1291);
},
{
name = math.ta;
pos = (398,1350);
},
{
name = top;
pos = (400,1796);
}
);
layerId = "B5042207-EFBA-41B6-8DFD-104A953B46A6";
shapes = (
{
closed = 1;
nodes = (
(508,1705,o),
(406,1612,o),
(389,1600,c),
(406,1600,l),
(380,1630,o),
(310,1708,o),
(222,1796,c),
(137,1774,o),
(15,1692,o),
(-36,1656,c),
(62,1569,o),
(145,1491,o),
(232,1398,c),
(309,1396,o),
(481,1395,o),
(530,1395,c),
(573,1415,o),
(686,1481,o),
(836,1620,c),
(817,1636,o),
(662,1752,o),
(579,1783,c)
);
}
);
width = 860;
}
);
},
{
glyphname = ringcomb;
kernLeft = ring;
kernRight = ring;
lastChange = "2024-10-17 22:56:21 +0000";
layers = (
{
anchors = (
{
name = _top;
pos = (365,1063);
},
{
name = math.ta;
pos = (363,1060);
},
{
name = top;
pos = (365,1732);
}
);
layerId = "B5042207-EFBA-41B6-8DFD-104A953B46A6";
shapes = (
{
closed = 1;
nodes = (
(538,1160,o),
(680,1297,o),
(680,1468,cs),
(680,1620,o),
(539,1732,o),
(365,1732,cs),
(197,1732,o),
(50,1610,o),
(50,1452,cs),
(50,1282,o),
(188,1160,o),
(362,1160,cs)
);
},
{
closed = 1;
nodes = (
(323,1382,o),
(292,1406,o),
(292,1449,cs),
(292,1481,o),
(326,1510,o),
(362,1510,cs),
(403,1510,o),
(436,1487,o),
(436,1444,cs),
(436,1411,o),
(400,1382,o),
(356,1382,cs)
);
}
);
width = 791;
},
{
anchors = (
{
name = _top;
pos = (358,1063);
},
{
name = math.ta;
pos = (363,1070);
},
{
name = top;
pos = (358,1591);
}
);
layerId = "B5195C1E-69AB-4BC6-9855-DF55601A0735";
shapes = (
{
closed = 1;
nodes = (
(491,1155,o),
(590,1262,o),
(590,1386,cs),
(590,1509,o),
(484,1591,o),
(359,1591,cs),
(236,1591,o),
(125,1494,o),
(125,1377,cs),
(125,1242,o),
(230,1155,o),
(356,1155,cs)
);
},
{
closed = 1;
nodes = (
(265,1226,o),
(210,1285,o),
(210,1384,cs),
(210,1461,o),
(285,1519,o),
(352,1519,cs),
(446,1519,o),
(509,1449,o),
(509,1365,cs),
(509,1290,o),
(436,1226,o),
(357,1226,cs)
);
}
);
width = 791;
}
);
unicode = 778;
},
{
glyphname = ringcomb.case;
lastChange = "2020-06-17 15:48:27 +0000";
layers = (
{
anchors = (
{
name = _top;
pos = (357.5,1291);
},
{
name = top;
pos = (358,1781);
}
);
layerId = "B5195C1E-69AB-4BC6-9855-DF55601A0735";
shapes = (
{
closed = 1;
nodes = (
(491,1345,o),
(590,1452,o),
(590,1576,cs),
(590,1699,o),
(484,1781,o),
(359,1781,cs),
(236,1781,o),
(125,1684,o),
(125,1567,cs),
(125,1432,o),
(230,1345,o),
(356,1345,cs)
);
},
{
closed = 1;
nodes = (
(265,1416,o),
(210,1475,o),
(210,1574,cs),
(210,1651,o),
(285,1709,o),
(352,1709,cs),
(446,1709,o),
(509,1639,o),
(509,1555,cs),
(509,1480,o),
(436,1416,o),
(357,1416,cs)
);
}
);
width = 791;
},
{
anchors = (
{
name = _top;
pos = (365,1291);
},
{
name = top;
pos = (365,1915);
}
);
layerId = "B5042207-EFBA-41B6-8DFD-104A953B46A6";
shapes = (
{
closed = 1;
nodes = (
(538,1343,o),
(680,1480,o),
(680,1651,cs),
(680,1803,o),
(539,1915,o),
(365,1915,cs),
(197,1915,o),
(50,1793,o),
(50,1635,cs),
(50,1465,o),
(188,1343,o),
(362,1343,cs)
);
},
{
closed = 1;
nodes = (
(323,1565,o),
(292,1589,o),
(292,1632,cs),
(292,1664,o),
(326,1693,o),
(362,1693,cs),
(403,1693,o),
(436,1670,o),
(436,1627,cs),
(436,1594,o),
(400,1565,o),
(356,1565,cs)
);
}
);
width = 791;
}
);
},
{
glyphname = tildecomb.case;
lastChange = "2020-07-08 16:29:15 +0000";
layers = (
{
anchors = (
{
name = _top;
pos = (518,1291);
},
{
name = top;
pos = (518,1678);
}
);
layerId = "B5195C1E-69AB-4BC6-9855-DF55601A0735";
shapes = (
{
closed = 1;
nodes = (
(215,1454,l),
(246,1533,o),
(306,1604,o),
(388,1604,cs),
(436,1604,o),
(475,1561,o),
(517,1514,cs),
(569,1455,o),
(628,1389,o),
(719,1389,cs),
(835,1389,o),
(902,1505,o),
(919,1558,c),
(842,1587,l),
(821,1517,o),
(780,1462,o),
(718,1462,cs),
(651,1462,o),
(606,1511,o),
(562,1562,cs),
(515,1617,o),
(464,1671,o),
(384,1671,cs),
(266,1671,o),
(175,1569,o),
(148,1494,c)
);
}
);
width = 1053;
},
{
anchors = (
{
name = _top;
pos = (531,1291);
},
{
name = top;
pos = (531,1769);
}
);
layerId = "B5042207-EFBA-41B6-8DFD-104A953B46A6";
shapes = (
{
closed = 1;
nodes = (
(261,1406,l),
(275,1435,o),
(315,1517,o),
(392,1517,cs),
(428,1517,o),
(466,1492,o),
(506,1462,cs),
(554,1426,o),
(610,1387,o),
(675,1387,cs),
(844,1387,o),
(938,1548,o),
(950,1614,c),
(769,1732,l),
(752,1681,o),
(714,1626,o),
(656,1626,cs),
(614,1626,o),
(580,1651,o),
(544,1680,cs),
(500,1715,o),
(449,1752,o),
(373,1752,cs),
(237,1752,o),
(118,1656,o),
(84,1559,c)
);
}
);
width = 1053;
}
);
},
{
glyphname = macroncomb;
kernLeft = macron;
kernRight = macron;
lastChange = "2024-10-25 02:07:27 +0000";
layers = (
{
anchors = (
{
name = _top;
pos = (537,1063);
},
{
name = math.ta;
pos = (541,1070);
},
{
name = top;
pos = (537,1466);
}
);
layerId = "B5042207-EFBA-41B6-8DFD-104A953B46A6";
shapes = (
{
closed = 1;
nodes = (
(926,1327,o),
(916,1437,o),
(912,1476,c),
(752,1476,o),
(300,1442,o),
(121,1406,c),
(121,1332,o),
(128,1262,o),
(138,1185,c),
(379,1206,o),
(788,1219,o),
(926,1219,c)
);
}
);
width = 1079;
},
{
anchors = (
{
name = _top;
pos = (531,1063);
},
{
name = math.ta;
pos = (534,1068);
},
{
name = top;
pos = (531,1267);
}
);
layerId = "B5195C1E-69AB-4BC6-9855-DF55601A0735";
shapes = (
{
closed = 1;
nodes = (
(895,1217,o),
(894,1245,o),
(892,1252,c),
(731,1252,o),
(281,1223,o),
(205,1211,c),
(199,1202,o),
(196,1175,o),
(196,1161,c),
(389,1176,o),
(704,1193,o),
(895,1193,c)
);
}
);
width = 1079;
}
);
unicode = 772;
},
{
glyphname = macroncomb.case;
lastChange = "2024-10-25 02:06:38 +0000";
layers = (
{
anchors = (
{
name = _top;
pos = (530.5,1291);
},
{
name = top;
pos = (531,1520);
}
);
layerId = "B5195C1E-69AB-4BC6-9855-DF55601A0735";
shapes = (
{
closed = 1;
nodes = (
(892,1520,l),
(731,1520,o),
(281,1491,o),
(205,1479,c),
(199,1470,o),
(196,1440,o),
(196,1426,c),
(389,1441,o),
(704,1461,o),
(895,1461,c)
);
}
);
width = 1079;
},
{
anchors = (
{
name = _top;
pos = (536.5,1291);
},
{
name = top;
pos = (537,1664);
}
);
layerId = "B5042207-EFBA-41B6-8DFD-104A953B46A6";
shapes = (
{
closed = 1;
nodes = (
(912,1674,l),
(752,1674,o),
(300,1640,o),
(121,1604,c),
(121,1530,o),
(128,1460,o),
(138,1383,c),
(379,1404,o),
(788,1417,o),
(926,1417,c)
);
}
);
width = 1079;
}
);
},
{
glyphname = macroncomb.narrow;
lastChange = "2020-07-21 15:08:42 +0000";
layers = (
{
anchors = (
{
name = _top;
pos = (252,990);
},
{
name = top;
pos = (263,1196);
}
);
layerId = "B5195C1E-69AB-4BC6-9855-DF55601A0735";
shapes = (
{
closed = 1;
nodes = (
(531,1144,o),
(530,1172,o),
(529,1179,c),
(405,1179,o),
(60,1150,o),
(2,1138,c),
(-2,1129,o),
(-5,1102,o),
(-5,1088,c),
(143,1103,o),
(385,1120,o),
(531,1120,c)
);
}
);
width = 581;
},
{
anchors = (
{
name = _top;
pos = (283,975);
},
{
name = top;
pos = (273,1380);
}
);
layerId = "B5042207-EFBA-41B6-8DFD-104A953B46A6";
shapes = (
{
closed = 1;
nodes = (
(581,1239,o),
(573,1349,o),
(570,1388,c),
(448,1388,o),
(101,1354,o),
(-36,1318,c),
(-36,1244,o),
(-31,1174,o),
(-23,1097,c),
(162,1118,o),
(475,1131,o),
(581,1131,c)
);
}
);
width = 581;
}
);
},
{
glyphname = dblgravecomb;
kernLeft = dblgravecomb;
kernRight = dblgravecomb;
lastChange = "2020-07-08 20:11:21 +0000";
layers = (
{
anchors = (
{
name = _top;
pos = (461,1063);
},
{
name = top;
pos = (461,1456);
}
);
layerId = "B5195C1E-69AB-4BC6-9855-DF55601A0735";
shapes = (
{
closed = 1;
nodes = (
(124,1382,o),
(92,1353,o),
(73,1333,c),
(200,1300,o),
(451,1210,o),
(540,1158,c),
(543,1164,o),
(555,1197,o),
(557,1203,c),
(446,1307,o),
(193,1392,o),
(141,1392,c)
);
},
{
closed = 1;
nodes = (
(446,1448,o),
(410,1424,o),
(389,1407,c),
(510,1356,o),
(745,1232,o),
(826,1168,c),
(830,1173,o),
(846,1204,o),
(849,1210,c),
(754,1328,o),
(516,1447,o),
(464,1456,c)
);
}
);
width = 900;
},
{
anchors = (
{
name = _top;
pos = (595,1063);
},
{
name = top;
pos = (595,1658);
}
);
layerId = "B5042207-EFBA-41B6-8DFD-104A953B46A6";
shapes = (
{
closed = 1;
nodes = (
(165,1480,o),
(61,1375,o),
(47,1350,c),
(174,1317,o),
(406,1243,o),
(495,1192,c),
(522,1204,o),
(639,1289,o),
(671,1332,c),
(560,1436,o),
(336,1557,o),
(274,1564,c)
);
},
{
closed = 1;
nodes = (
(681,1615,o),
(580,1535,o),
(561,1513,c),
(678,1454,o),
(839,1360,o),
(915,1291,c),
(944,1297,o),
(1047,1342,o),
(1104,1400,c),
(1018,1525,o),
(865,1653,o),
(806,1673,c)
);
}
);
width = 1200;
}
);
unicode = 783;
},
{
glyphname = dblgravecomb.case;
lastChange = "2020-07-08 20:11:31 +0000";
layers = (
{
anchors = (
{
name = _top;
pos = (463,1291);
},
{
name = top;
pos = (461,1620);
}
);
layerId = "B5195C1E-69AB-4BC6-9855-DF55601A0735";
shapes = (
{
closed = 1;
nodes = (
(830,1337,o),
(846,1368,o),
(849,1374,c),
(754,1492,o),
(516,1611,o),
(464,1620,c),
(446,1612,o),
(410,1588,o),
(389,1571,c),
(510,1520,o),
(745,1396,o),
(826,1332,c)
);
},
{
closed = 1;
nodes = (
(543,1328,o),
(555,1361,o),
(557,1367,c),
(446,1471,o),
(193,1554,o),
(141,1556,c),
(124,1546,o),
(92,1517,o),
(73,1497,c),
(200,1464,o),
(451,1374,o),
(540,1322,c)
);
}
);
width = 900;
},
{
anchors = (
{
name = _top;
pos = (595,1291);
},
{
name = top;
pos = (595,1861);
}
);
layerId = "B5042207-EFBA-41B6-8DFD-104A953B46A6";
shapes = (
{
closed = 1;
nodes = (
(165,1668,o),
(61,1563,o),
(47,1538,c),
(174,1505,o),
(406,1431,o),
(495,1380,c),
(522,1392,o),
(639,1477,o),
(671,1520,c),
(560,1624,o),
(336,1745,o),
(274,1752,c)
);
},
{
closed = 1;
nodes = (
(681,1803,o),
(580,1723,o),
(561,1701,c),
(678,1642,o),
(839,1548,o),
(915,1479,c),
(944,1485,o),
(1047,1530,o),
(1104,1588,c),
(1018,1713,o),
(865,1841,o),
(806,1861,c)
);
}
);
width = 1200;
}
);
},
{
glyphname = candraBinducomb;
lastChange = "2024-07-13 04:40:56 +0000";
layers = (
{
anchors = (
{
name = _top;
pos = (409,863);
},
{
name = math.ta;
pos = (409.767,114.343);
},
{
name = top;
pos = (406,1645);
}
);
layerId = "B5195C1E-69AB-4BC6-9855-DF55601A0735";
shapes = (
{
closed = 1;
nodes = (
(675,1486,o),
(644,1494,o),
(621,1494,c),
(621,1355,o),
(569,1193,o),
(407,1193,cs),
(270,1193,o),
(221,1273,o),
(205,1346,cs),
(196,1389,o),
(195,1438,o),
(195,1488,c),
(168,1488,o),
(150,1487,o),
(123,1481,c),
(123,1443,o),
(125,1408,o),
(130,1376,cs),
(152,1226,o),
(225,1123,o),
(409,1123,cs),
(576,1123,o),
(694,1277,o),
(694,1481,c)
);
},
{
closed = 1;
nodes = (
(362,1565,o),
(321,1529,o),
(321,1459,cs),
(321,1400,o),
(369,1374,o),
(418,1374,cs),
(467,1374,o),
(497,1415,o),
(497,1478,cs),
(497,1526,o),
(457,1565,o),
(406,1565,cs)
);
}
);
width = 885;
},
{
anchors = (
{
name = _top;
pos = (400.946,831);
},
{
name = math.ta;
pos = (391.027,142);
},
{
name = top;
pos = (398,1727);
}
);
layerId = "B5042207-EFBA-41B6-8DFD-104A953B46A6";
shapes = (
{
closed = 1;
nodes = (
(716,1513,o),
(685,1534,o),
(558,1521,c),
(558,1407,o),
(512,1325,o),
(398,1325,cs),
(279,1325,o),
(243,1394,o),
(232,1450,cs),
(227,1469,o),
(225,1492,o),
(225,1522,c),
(152,1522,o),
(96,1520,o),
(33,1501,c),
(33,1467,o),
(36,1435,o),
(41,1406,cs),
(68,1243,o),
(182,1153,o),
(397,1153,cs),
(621,1153,o),
(767,1296,o),
(767,1490,c)
);
},
{
closed = 1;
nodes = (
(313,1657,o),
(264,1615,o),
(264,1535,cs),
(264,1471,o),
(323,1430,o),
(396,1430,cs),
(459,1430,o),
(505,1488,o),
(505,1550,cs),
(505,1611,o),
(455,1657,o),
(383,1657,cs)
);
}
);
width = 885;
}
);
unicode = 784;
},
{
glyphname = commaturnedabovecomb;
kernLeft = commaturnedabovecomb;
kernRight = commaturnedabovecomb;
lastChange = "2024-07-09 02:16:18 +0000";
layers = (
{
anchors = (
{
name = _top;
pos = (239,1063);
},
{
name = math.ta;
pos = (239,1058);
},
{
name = top;
pos = (239,1614);
}
);
layerId = "B5042207-EFBA-41B6-8DFD-104A953B46A6";
shapes = (
{
closed = 1;
nodes = (
(107,1545,o),
(59,1429,o),
(59,1320,cs),
(59,1207,o),
(155,1152,o),
(240,1152,cs),
(322,1152,o),
(418,1191,o),
(418,1296,cs),
(418,1363,o),
(373,1427,o),
(307,1427,cs),
(275,1427,o),
(256,1422,o),
(242,1415,c),
(241,1415,o),
(241,1417,o),
(241,1419,cs),
(241,1440,o),
(302,1491,o),
(334,1502,c),
(296,1573,o),
(229,1607,o),
(210,1614,c)
);
}
);
width = 475;
},
{
anchors = (
{
name = _top;
pos = (150,1063);
},
{
name = math.ta;
pos = (150,1062);
},
{
name = top;
pos = (150,1473);
}
);
layerId = "B5195C1E-69AB-4BC6-9855-DF55601A0735";
shapes = (
{
closed = 1;
nodes = (
(92,1416,o),
(45,1323,o),
(45,1239,cs),
(45,1173,o),
(86,1131,o),
(163,1131,cs),
(233,1131,o),
(256,1178,o),
(256,1213,cs),
(256,1248,o),
(246,1294,o),
(174,1294,cs),
(113,1294,o),
(98,1259,o),
(95,1227,c),
(92,1231,o),
(90,1239,o),
(90,1249,cs),
(90,1309,o),
(141,1410,o),
(181,1454,c),
(166,1462,o),
(154,1469,o),
(148,1473,c)
);
}
);
width = 304;
}
);
unicode = 786;
},
{
glyphname = commaturnedabovecomb.case;
lastChange = "2020-06-17 21:33:47 +0000";
layers = (
{
anchors = (
{
name = _top;
pos = (151,1291);
},
{
name = top;
pos = (150,1707);
}
);
layerId = "B5195C1E-69AB-4BC6-9855-DF55601A0735";
shapes = (
{
closed = 1;
nodes = (
(92,1650,o),
(45,1557,o),
(45,1473,cs),
(45,1407,o),
(86,1365,o),
(163,1365,cs),
(233,1365,o),
(256,1412,o),
(256,1447,cs),
(256,1482,o),
(246,1528,o),
(174,1528,cs),
(113,1528,o),
(98,1493,o),
(95,1461,c),
(92,1465,o),
(90,1473,o),
(90,1483,cs),
(90,1543,o),
(141,1644,o),
(181,1688,c),
(164,1696,o),
(152,1704,o),
(148,1707,c)
);
}
);
width = 304;
},
{
anchors = (
{
name = _top;
pos = (251,1291);
},
{
name = top;
pos = (251,1830);
}
);
layerId = "B5042207-EFBA-41B6-8DFD-104A953B46A6";
shapes = (
{
closed = 1;
nodes = (
(119,1761,o),
(71,1645,o),
(71,1536,cs),
(71,1423,o),
(167,1368,o),
(252,1368,cs),
(334,1368,o),
(430,1407,o),
(430,1512,cs),
(430,1579,o),
(385,1643,o),
(319,1643,cs),
(287,1643,o),
(268,1638,o),
(254,1631,c),
(253,1631,o),
(253,1633,o),
(253,1635,cs),
(253,1656,o),
(314,1707,o),
(346,1718,c),
(308,1789,o),
(241,1823,o),
(222,1830,c)
);
}
);
width = 475;
}
);
},
{
glyphname = horncomb;
kernLeft = horncomb;
kernRight = horncomb;
lastChange = "2020-02-20 16:12:45 +0000";
layers = (
{
anchors = (
{
name = _topright;
pos = (101,1036);
},
{
name = topright;
pos = (422,1287);
}
);
layerId = "B5195C1E-69AB-4BC6-9855-DF55601A0735";
shapes = (
{
closed = 1;
nodes = (
(262,974,o),
(385,1088,o),
(402,1271,c),
(385,1280,o),
(339,1287,o),
(308,1287,c),
(308,1164,o),
(290,1036,o),
(101,1036,c),
(110,974,l)
);
}
);
width = 500;
},
{
anchors = (
{
name = _topright;
pos = (101,1088);
},
{
name = topright;
pos = (558,1315);
}
);
layerId = "B5042207-EFBA-41B6-8DFD-104A953B46A6";
shapes = (
{
closed = 1;
nodes = (
(295,911,o),
(517,1008,o),
(538,1257,c),
(513,1285,o),
(422,1315,o),
(303,1315,c),
(303,1128,o),
(242,1088,o),
(101,1088,c),
(113,911,l)
);
}
);
width = 700;
}
);
unicode = 795;
},
{
glyphname = horncomb.case;
lastChange = "2020-06-17 15:53:52 +0000";
layers = (
{
anchors = (
{
name = _topright;
pos = (101,1291);
},
{
name = topright;
pos = (422,1542);
}
);
layerId = "B5195C1E-69AB-4BC6-9855-DF55601A0735";
shapes = (
{
closed = 1;
nodes = (
(262,1229,o),
(385,1343,o),
(402,1526,c),
(385,1535,o),
(339,1542,o),
(308,1542,c),
(308,1419,o),
(290,1291,o),
(101,1291,c),
(110,1229,l)
);
}
);
width = 500;
},
{
anchors = (
{
name = _topright;
pos = (141,1291);
},
{
name = topright;
pos = (598,1518);
}
);
layerId = "B5042207-EFBA-41B6-8DFD-104A953B46A6";
shapes = (
{
closed = 1;
nodes = (
(335,1114,o),
(557,1211,o),
(578,1460,c),
(553,1488,o),
(462,1518,o),
(343,1518,c),
(343,1331,o),
(282,1291,o),
(141,1291,c),
(153,1114,l)
);
}
);
width = 700;
}
);
metricWidth = horncomb;
},
{
glyphname = dotbelowcomb;
kernLeft = dotaccent;
kernRight = dotaccent;
lastChange = "2020-07-08 20:19:54 +0000";
layers = (
{
anchors = (
{
name = _bottom;
pos = (206,0);
},
{
name = bottom;
pos = (206,-353);
}
);
layerId = "B5195C1E-69AB-4BC6-9855-DF55601A0735";
shapes = (
{
closed = 1;
nodes = (
(159,-163,o),
(118,-199,o),
(118,-269,cs),
(118,-328,o),
(166,-354,o),
(215,-354,cs),
(264,-354,o),
(294,-313,o),
(294,-250,cs),
(294,-202,o),
(254,-163,o),
(203,-163,cs)
);
}
);
width = 448;
},
{
anchors = (
{
name = _bottom;
pos = (239,0);
},
{
name = bottom;
pos = (257,-443);
}
);
layerId = "B5042207-EFBA-41B6-8DFD-104A953B46A6";
shapes = (
{
closed = 1;
nodes = (
(154,-129,o),
(82,-187,o),
(82,-298,cs),
(82,-386,o),
(168,-443,o),
(276,-443,cs),
(368,-443,o),
(435,-363,o),
(435,-277,cs),
(435,-192,o),
(361,-129,o),
(256,-129,cs)
);
}
);
width = 500;
}
);
unicode = 803;
},
{
glyphname = dotbelowcomb.case;
lastChange = "2020-07-08 20:21:26 +0000";
layers = (
{
anchors = (
{
name = _bottom;
pos = (206,0);
},
{
name = bottom;
pos = (206,-353);
}
);
layerId = "B5195C1E-69AB-4BC6-9855-DF55601A0735";
shapes = (
{
closed = 1;
nodes = (
(159,-162,o),
(118,-198,o),
(118,-268,cs),
(118,-327,o),
(166,-353,o),
(215,-353,cs),
(264,-353,o),
(294,-312,o),
(294,-249,cs),
(294,-201,o),
(254,-162,o),
(203,-162,cs)
);
}
);
width = 448;
},
{
anchors = (
{
name = _bottom;
pos = (258.5,0);
},
{
name = bottom;
pos = (258.5,-443);
}
);
layerId = "B5042207-EFBA-41B6-8DFD-104A953B46A6";
shapes = (
{
closed = 1;
nodes = (
(154,-125,o),
(82,-183,o),
(82,-294,cs),
(82,-382,o),
(168,-439,o),
(276,-439,cs),
(368,-439,o),
(435,-359,o),
(435,-273,cs),
(435,-188,o),
(361,-125,o),
(256,-125,cs)
);
}
);
width = 500;
}
);
metricWidth = dotbelowcomb;
},
{
glyphname = dieresisbelowcomb;
kernLeft = dieresis;
kernRight = dieresis;
lastChange = "2024-12-03 00:21:09 +0000";
layers = (
{
anchors = (
{
name = _bottom;
pos = (478.5,0);
},
{
name = bottom;
pos = (479,-349);
}
);
layerId = "B5195C1E-69AB-4BC6-9855-DF55601A0735";
shapes = (
{
closed = 1;
nodes = (
(344,-346,o),
(391,-305,o),
(391,-250,cs),
(391,-189,o),
(345,-141,o),
(296,-141,cs),
(249,-141,o),
(201,-188,o),
(201,-251,cs),
(201,-309,o),
(250,-346,o),
(298,-346,cs)
);
},
{
closed = 1;
nodes = (
(723,-330,o),
(756,-299,o),
(756,-243,cs),
(756,-184,o),
(711,-145,o),
(655,-145,cs),
(606,-145,o),
(569,-173,o),
(569,-229,cs),
(569,-288,o),
(618,-330,o),
(674,-330,cs)
);
}
);
width = 910;
},
{
anchors = (
{
name = _bottom;
pos = (487,0);
},
{
name = bottom;
pos = (487,-455);
}
);
layerId = "B5042207-EFBA-41B6-8DFD-104A953B46A6";
shapes = (
{
closed = 1;
nodes = (
(368,-450,o),
(449,-388,o),
(449,-301,cs),
(449,-209,o),
(377,-135,o),
(268,-135,cs),
(169,-135,o),
(90,-209,o),
(90,-303,cs),
(90,-390,o),
(175,-450,o),
(269,-450,cs)
);
},
{
closed = 1;
nodes = (
(788,-443,o),
(884,-378,o),
(884,-281,cs),
(884,-187,o),
(796,-118,o),
(695,-118,cs),
(604,-118,o),
(528,-194,o),
(528,-284,cs),
(528,-374,o),
(607,-443,o),
(701,-443,cs)
);
}
);
width = 938;
}
);
metricWidth = dieresis;
unicode = 804;
},
{
glyphname = dieresisbelowcomb.case;
lastChange = "2020-07-08 20:21:18 +0000";
layers = (
{
anchors = (
{
name = _bottom;
pos = (478.5,0);
},
{
name = bottom;
pos = (479,-349);
}
);
layerId = "B5195C1E-69AB-4BC6-9855-DF55601A0735";
shapes = (
{
closed = 1;
nodes = (
(344,-346,o),
(391,-305,o),
(391,-250,cs),
(391,-189,o),
(345,-141,o),
(296,-141,cs),
(249,-141,o),
(201,-188,o),
(201,-251,cs),
(201,-309,o),
(250,-346,o),
(298,-346,cs)
);
},
{
closed = 1;
nodes = (
(723,-330,o),
(756,-299,o),
(756,-243,cs),
(756,-184,o),
(711,-145,o),
(655,-145,cs),
(606,-145,o),
(569,-173,o),
(569,-229,cs),
(569,-288,o),
(618,-330,o),
(674,-330,cs)
);
}
);
width = 944;
},
{
anchors = (
{
name = _bottom;
pos = (487,0);
},
{
name = bottom;
pos = (487,-451);
}
);
layerId = "B5042207-EFBA-41B6-8DFD-104A953B46A6";
shapes = (
{
closed = 1;
nodes = (
(368,-460,o),
(449,-398,o),
(449,-311,cs),
(449,-219,o),
(377,-145,o),
(268,-145,cs),
(169,-145,o),
(90,-219,o),
(90,-313,cs),
(90,-400,o),
(175,-460,o),
(269,-460,cs)
);
},
{
closed = 1;
nodes = (
(788,-453,o),
(884,-388,o),
(884,-291,cs),
(884,-197,o),
(796,-128,o),
(695,-128,cs),
(604,-128,o),
(528,-204,o),
(528,-294,cs),
(528,-384,o),
(607,-453,o),
(701,-453,cs)
);
}
);
width = 944;
}
);
},
{
glyphname = commaaccentcomb;
kernLeft = commaaccentcomb;
kernRight = commaaccentcomb;
lastChange = "2020-07-08 20:21:07 +0000";
layers = (
{
anchors = (
{
name = _bottom;
pos = (192,0);
},
{
name = bottom;
pos = (192,-560);
}
);
layerId = "B5042207-EFBA-41B6-8DFD-104A953B46A6";
shapes = (
{
closed = 1;
nodes = (
(327,-490,o),
(376,-371,o),
(376,-260,cs),
(376,-145,o),
(278,-88,o),
(191,-88,cs),
(107,-88,o),
(9,-128,o),
(9,-235,cs),
(9,-304,o),
(55,-370,o),
(122,-370,cs),
(155,-370,o),
(174,-365,o),
(189,-357,c),
(190,-358,o),
(190,-360,o),
(190,-362,cs),
(189,-383,o),
(128,-435,o),
(95,-447,c),
(134,-519,o),
(202,-553,o),
(222,-560,c)
);
}
);
width = 402;
},
{
anchors = (
{
name = _bottom;
pos = (185.74,0);
},
{
name = bottom;
pos = (186,-460);
}
);
layerId = "B5195C1E-69AB-4BC6-9855-DF55601A0735";
shapes = (
{
closed = 1;
nodes = (
(239,-408,o),
(281,-324,o),
(281,-248,cs),
(281,-188,o),
(244,-151,o),
(174,-151,cs),
(111,-151,o),
(90,-193,o),
(90,-225,cs),
(90,-256,o),
(99,-298,o),
(164,-298,cs),
(220,-298,o),
(233,-267,o),
(236,-237,c),
(238,-241,o),
(240,-248,o),
(240,-257,cs),
(240,-311,o),
(194,-403,o),
(158,-442,c),
(167,-446,o),
(182,-456,o),
(187,-460,c)
);
}
);
width = 402;
}
);
unicode = 806;
},
{
glyphname = commaaccentcomb.case;
lastChange = "2020-07-08 20:21:13 +0000";
layers = (
{
anchors = (
{
name = _bottom;
pos = (185.74,0);
},
{
name = bottom;
pos = (187,-460);
}
);
layerId = "B5195C1E-69AB-4BC6-9855-DF55601A0735";
shapes = (
{
closed = 1;
nodes = (
(239,-408,o),
(281,-324,o),
(281,-248,cs),
(281,-188,o),
(244,-151,o),
(174,-151,cs),
(111,-151,o),
(90,-193,o),
(90,-225,cs),
(90,-256,o),
(99,-298,o),
(164,-298,cs),
(220,-298,o),
(233,-267,o),
(236,-237,c),
(238,-241,o),
(240,-248,o),
(240,-257,cs),
(240,-311,o),
(194,-403,o),
(158,-442,c),
(167,-446,o),
(182,-456,o),
(187,-460,c)
);
}
);
width = 402;
},
{
anchors = (
{
name = _bottom;
pos = (212.094,0);
},
{
name = bottom;
pos = (212,-560);
}
);
layerId = "B5042207-EFBA-41B6-8DFD-104A953B46A6";
shapes = (
{
closed = 1;
nodes = (
(347,-490,o),
(396,-371,o),
(396,-260,cs),
(396,-145,o),
(298,-88,o),
(211,-88,cs),
(127,-88,o),
(29,-128,o),
(29,-235,cs),
(29,-304,o),
(75,-370,o),
(142,-370,cs),
(175,-370,o),
(194,-365,o),
(209,-357,c),
(210,-358,o),
(210,-360,o),
(210,-362,cs),
(209,-383,o),
(148,-435,o),
(115,-447,c),
(154,-519,o),
(222,-553,o),
(242,-560,c)
);
}
);
width = 402;
}
);
},
{
glyphname = cedillacomb;
kernLeft = cedilla;
kernRight = cedilla;
lastChange = "2020-06-18 18:53:34 +0000";
layers = (
{
anchors = (
{
name = _bottom;
pos = (232,0);
},
{
name = bottom;
pos = (219,-497);
}
);
layerId = "B5042207-EFBA-41B6-8DFD-104A953B46A6";
shapes = (
{
closed = 1;
nodes = (
(427,-497,o),
(645,-413,o),
(645,-228,cs),
(645,-95,o),
(570,-37,o),
(464,-37,cs),
(394,-37,o),
(338,-65,o),
(314,-99,c),
(338,19,l),
(119,7,l),
(63,-217,l),
(98,-204,o),
(181,-189,o),
(258,-189,cs),
(325,-189,o),
(379,-200,o),
(379,-236,cs),
(379,-276,o),
(314,-297,o),
(196,-297,cs),
(163,-297,o),
(79,-285,o),
(50,-272,c),
(-14,-475,l),
(6,-480,o),
(88,-497,o),
(193,-497,cs)
);
}
);
width = 660;
},
{
anchors = (
{
name = _bottom;
pos = (278,0);
},
{
name = bottom;
pos = (283,-462);
}
);
layerId = "B5195C1E-69AB-4BC6-9855-DF55601A0735";
shapes = (
{
closed = 1;
nodes = (
(493,-462,o),
(606,-396,o),
(606,-255,cs),
(606,-144,o),
(531,-87,o),
(426,-87,cs),
(378,-87,o),
(315,-106,o),
(298,-119,c),
(319,39,l),
(247,43,l),
(211,-212,l),
(252,-194,o),
(350,-159,o),
(408,-159,cs),
(490,-159,o),
(517,-198,o),
(517,-267,cs),
(517,-359,o),
(426,-392,o),
(278,-392,cs),
(227,-392,o),
(151,-374,o),
(112,-364,c),
(94,-437,l),
(114,-444,o),
(179,-462,o),
(283,-462,cs)
);
}
);
width = 660;
}
);
unicode = 807;
},
{
glyphname = cedillacomb.case;
lastChange = "2020-06-18 18:52:54 +0000";
layers = (
{
anchors = (
{
name = _bottom;
pos = (277,0);
},
{
name = bottom;
pos = (283,-462);
}
);
layerId = "B5195C1E-69AB-4BC6-9855-DF55601A0735";
shapes = (
{
closed = 1;
nodes = (
(493,-462,o),
(606,-396,o),
(606,-255,cs),
(606,-144,o),
(531,-87,o),
(426,-87,cs),
(378,-87,o),
(315,-106,o),
(298,-119,c),
(319,39,l),
(247,43,l),
(211,-212,l),
(252,-194,o),
(350,-159,o),
(408,-159,cs),
(490,-159,o),
(517,-198,o),
(517,-267,cs),
(517,-359,o),
(426,-392,o),
(278,-392,cs),
(227,-392,o),
(151,-374,o),
(112,-364,c),
(94,-437,l),
(114,-444,o),
(179,-462,o),
(283,-462,cs)
);
}
);
width = 660;
},
{
anchors = (
{
name = _bottom;
pos = (236,0);
},
{
name = bottom;
pos = (203,-497);
}
);
layerId = "B5042207-EFBA-41B6-8DFD-104A953B46A6";
shapes = (
{
closed = 1;
nodes = (
(437,-497,o),
(655,-413,o),
(655,-228,cs),
(655,-95,o),
(580,-37,o),
(474,-37,cs),
(404,-37,o),
(348,-65,o),
(324,-99,c),
(348,19,l),
(129,7,l),
(73,-217,l),
(108,-204,o),
(191,-189,o),
(268,-189,cs),
(335,-189,o),
(389,-200,o),
(389,-236,cs),
(389,-276,o),
(324,-297,o),
(206,-297,cs),
(173,-297,o),
(89,-285,o),
(60,-272,c),
(-4,-475,l),
(16,-480,o),
(98,-497,o),
(203,-497,cs)
);
}
);
width = 660;
}
);
},
{
glyphname = ogonekcomb;
kernLeft = ogonek;
kernRight = ogonek;
lastChange = "2020-07-01 15:19:54 +0000";
layers = (
{
anchors = (
{
name = _ogonek;
pos = (442,0);
}
);
layerId = "B5042207-EFBA-41B6-8DFD-104A953B46A6";
shapes = (
{
closed = 1;
nodes = (
(517,-282,o),
(472,-291,o),
(429,-291,cs),
(376,-291,o),
(322,-267,o),
(322,-195,cs),
(322,-115,o),
(397,-31,o),
(442,0,c),
(306,58,l),
(241,39,o),
(59,-112,o),
(59,-284,cs),
(59,-451,o),
(203,-536,o),
(361,-536,cs),
(465,-536,o),
(527,-523,o),
(556,-511,c),
(556,-254,l)
);
}
);
width = 605;
},
{
anchors = (
{
name = _ogonek;
pos = (388,0);
}
);
layerId = "B5195C1E-69AB-4BC6-9855-DF55601A0735";
shapes = (
{
closed = 1;
nodes = (
(436,-403,o),
(387,-423,o),
(293,-423,cs),
(203,-423,o),
(146,-392,o),
(146,-290,cs),
(146,-177,o),
(276,-43,o),
(388,0,c),
(323,45,l),
(184,-14,o),
(60,-154,o),
(60,-297,cs),
(60,-426,o),
(140,-503,o),
(277,-503,cs),
(381,-503,o),
(453,-481,o),
(509,-457,c),
(509,-370,l)
);
}
);
width = 605;
}
);
unicode = 808;
},
{
glyphname = ogonekcomb.case;
lastChange = "2020-07-01 15:19:59 +0000";
layers = (
{
anchors = (
{
name = _ogonek;
pos = (388,0);
}
);
layerId = "B5195C1E-69AB-4BC6-9855-DF55601A0735";
shapes = (
{
closed = 1;
nodes = (
(436,-403,o),
(387,-423,o),
(293,-423,cs),
(203,-423,o),
(146,-392,o),
(146,-290,cs),
(146,-177,o),
(276,-43,o),
(388,0,c),
(323,45,l),
(184,-14,o),
(60,-154,o),
(60,-297,cs),
(60,-426,o),
(140,-503,o),
(277,-503,cs),
(381,-503,o),
(453,-481,o),
(509,-457,c),
(509,-370,l)
);
}
);
width = 605;
},
{
anchors = (
{
name = _ogonek;
pos = (459,0);
}
);
layerId = "B5042207-EFBA-41B6-8DFD-104A953B46A6";
shapes = (
{
closed = 1;
nodes = (
(534,-282,o),
(489,-291,o),
(446,-291,cs),
(393,-291,o),
(339,-267,o),
(339,-195,cs),
(339,-115,o),
(414,-31,o),
(459,0,c),
(323,58,l),
(258,39,o),
(76,-112,o),
(76,-284,cs),
(76,-451,o),
(220,-536,o),
(378,-536,cs),
(482,-536,o),
(544,-523,o),
(573,-511,c),
(573,-254,l)
);
}
);
width = 605;
}
);
},
{
glyphname = brevebelowcomb;
kernLeft = breve;
kernRight = breve;
lastChange = "2020-07-08 20:52:08 +0000";
layers = (
{
anchors = (
{
name = _bottom;
pos = (409,0);
},
{
name = bottom;
pos = (409,-509);
}
);
layerId = "B5195C1E-69AB-4BC6-9855-DF55601A0735";
shapes = (
{
closed = 1;
nodes = (
(675,-146,o),
(644,-138,o),
(621,-138,c),
(621,-277,o),
(569,-439,o),
(407,-439,cs),
(270,-439,o),
(221,-359,o),
(205,-286,cs),
(196,-243,o),
(195,-194,o),
(195,-144,c),
(168,-144,o),
(150,-145,o),
(123,-151,c),
(123,-189,o),
(125,-224,o),
(130,-256,cs),
(152,-406,o),
(225,-509,o),
(409,-509,cs),
(576,-509,o),
(694,-355,o),
(694,-151,c)
);
}
);
width = 885;
},
{
anchors = (
{
name = _bottom;
pos = (413,0);
},
{
name = bottom;
pos = (413,-537);
}
);
layerId = "B5042207-EFBA-41B6-8DFD-104A953B46A6";
shapes = (
{
closed = 1;
nodes = (
(707,-180,o),
(602,-159,o),
(480,-159,c),
(480,-284,o),
(446,-305,o),
(408,-305,cs),
(383,-305,o),
(360,-289,o),
(349,-233,cs),
(345,-214,o),
(343,-191,o),
(343,-161,c),
(272,-161,o),
(128,-163,o),
(68,-182,c),
(68,-216,o),
(70,-248,o),
(75,-277,cs),
(101,-440,o),
(202,-530,o),
(409,-530,cs),
(625,-530,o),
(757,-397,o),
(757,-203,c)
);
}
);
width = 885;
}
);
metricLeft = breve;
metricRight = breve;
unicode = 814;
},
{
glyphname = brevebelowcomb.case;
lastChange = "2020-07-08 20:20:52 +0000";
layers = (
{
anchors = (
{
name = _bottom;
pos = (408.5,0);
},
{
name = bottom;
pos = (408.5,-517);
}
);
layerId = "B5195C1E-69AB-4BC6-9855-DF55601A0735";
shapes = (
{
closed = 1;
nodes = (
(678,-146,o),
(647,-138,o),
(624,-138,c),
(624,-277,o),
(572,-439,o),
(410,-439,cs),
(273,-439,o),
(224,-359,o),
(208,-286,cs),
(199,-243,o),
(198,-194,o),
(198,-144,c),
(171,-144,o),
(153,-145,o),
(126,-151,c),
(126,-189,o),
(128,-224,o),
(133,-256,cs),
(155,-406,o),
(228,-509,o),
(412,-509,cs),
(579,-509,o),
(697,-355,o),
(697,-151,c)
);
}
);
width = 885;
},
{
anchors = (
{
name = _bottom;
pos = (433,0);
},
{
name = bottom;
pos = (433,-537);
}
);
layerId = "B5042207-EFBA-41B6-8DFD-104A953B46A6";
shapes = (
{
closed = 1;
nodes = (
(727,-180,o),
(622,-159,o),
(500,-159,c),
(500,-284,o),
(466,-305,o),
(428,-305,cs),
(403,-305,o),
(380,-289,o),
(369,-233,cs),
(365,-214,o),
(363,-191,o),
(363,-161,c),
(292,-161,o),
(148,-163,o),
(88,-182,c),
(88,-216,o),
(90,-248,o),
(95,-277,cs),
(121,-440,o),
(222,-530,o),
(429,-530,cs),
(645,-530,o),
(777,-397,o),
(777,-203,c)
);
}
);
width = 855;
}
);
},
{
glyphname = macronbelowcomb;
kernLeft = macron;
kernRight = macron;
lastChange = "2020-06-17 21:31:35 +0000";
layers = (
{
anchors = (
{
name = _bottom;
pos = (530.5,0);
},
{
name = bottom;
pos = (530.5,-297);
}
);
layerId = "B5195C1E-69AB-4BC6-9855-DF55601A0735";
shapes = (
{
closed = 1;
nodes = (
(895,-246,o),
(894,-218,o),
(892,-211,c),
(731,-211,o),
(281,-240,o),
(205,-252,c),
(199,-261,o),
(196,-288,o),
(196,-302,c),
(389,-287,o),
(704,-270,o),
(895,-270,c)
);
}
);
width = 1079;
},
{
anchors = (
{
name = _bottom;
pos = (536.5,0);
},
{
name = bottom;
pos = (536.5,-440);
}
);
layerId = "B5042207-EFBA-41B6-8DFD-104A953B46A6";
shapes = (
{
closed = 1;
nodes = (
(926,-302,o),
(916,-192,o),
(912,-153,c),
(752,-153,o),
(300,-187,o),
(121,-223,c),
(121,-297,o),
(128,-367,o),
(138,-444,c),
(379,-423,o),
(788,-410,o),
(926,-410,c)
);
}
);
width = 1079;
}
);
metricLeft = macron;
metricRight = macron;
unicode = 817;
},
{
glyphname = macronbelowcomb.case;
lastChange = "2020-06-17 21:31:35 +0000";
layers = (
{
anchors = (
{
name = _bottom;
pos = (530.5,0);
},
{
name = bottom;
pos = (530.5,-297);
}
);
layerId = "B5195C1E-69AB-4BC6-9855-DF55601A0735";
shapes = (
{
closed = 1;
nodes = (
(895,-246,o),
(894,-218,o),
(892,-211,c),
(731,-211,o),
(281,-240,o),
(205,-252,c),
(199,-261,o),
(196,-288,o),
(196,-302,c),
(389,-287,o),
(704,-270,o),
(895,-270,c)
);
}
);
width = 1079;
},
{
anchors = (
{
name = _bottom;
pos = (536.5,0);
},
{
name = bottom;
pos = (536.5,-440);
}
);
layerId = "B5042207-EFBA-41B6-8DFD-104A953B46A6";
shapes = (
{
closed = 1;
nodes = (
(926,-302,o),
(916,-192,o),
(912,-153,c),
(752,-153,o),
(300,-187,o),
(121,-223,c),
(121,-297,o),
(128,-367,o),
(138,-444,c),
(379,-423,o),
(788,-410,o),
(926,-410,c)
);
}
);
width = 1079;
}
);
metricLeft = macron;
metricRight = macron;
},
{
glyphname = strokeshortcomb;
kernLeft = macron;
kernRight = macron;
lastChange = "2020-07-01 15:06:09 +0000";
layers = (
{
anchors = (
{
name = _center;
pos = (537,579);
}
);
layerId = "B5042207-EFBA-41B6-8DFD-104A953B46A6";
shapes = (
{
closed = 1;
nodes = (
(926,577,o),
(916,687,o),
(912,726,c),
(752,726,o),
(300,692,o),
(121,656,c),
(121,582,o),
(128,512,o),
(138,435,c),
(379,456,o),
(788,469,o),
(926,469,c)
);
}
);
width = 1079;
},
{
anchors = (
{
name = _center;
pos = (531,573);
}
);
layerId = "B5195C1E-69AB-4BC6-9855-DF55601A0735";
shapes = (
{
closed = 1;
nodes = (
(895,589,o),
(894,617,o),
(892,624,c),
(731,624,o),
(281,595,o),
(205,583,c),
(199,574,o),
(196,547,o),
(196,533,c),
(389,548,o),
(704,565,o),
(895,565,c)
);
}
);
width = 1079;
}
);
unicode = 821;
},
{
glyphname = strokelongcomb;
kernLeft = macron;
kernRight = macron;
lastChange = "2020-07-01 15:07:13 +0000";
layers = (
{
anchors = (
{
name = _center;
pos = (537,579);
}
);
layerId = "B5042207-EFBA-41B6-8DFD-104A953B46A6";
shapes = (
{
closed = 1;
nodes = (
(995,577,o),
(984,687,o),
(979,726,c),
(791,726,o),
(261,692,o),
(52,656,c),
(52,582,o),
(60,512,o),
(72,435,c),
(354,456,o),
(834,469,o),
(995,469,c)
);
}
);
width = 1079;
},
{
anchors = (
{
name = _center;
pos = (531,573);
}
);
layerId = "B5195C1E-69AB-4BC6-9855-DF55601A0735";
shapes = (
{
closed = 1;
nodes = (
(964,589,o),
(963,617,o),
(961,624,c),
(768,624,o),
(228,595,o),
(137,583,c),
(130,574,o),
(127,547,o),
(127,533,c),
(358,548,o),
(735,565,o),
(964,565,c)
);
}
);
width = 1079;
}
);
unicode = 822;
},
{
glyphname = slashshortcomb;
kernLeft = slash;
kernRight = slash;
lastChange = "2024-07-03 16:19:56 +0000";
layers = (
{
anchors = (
{
name = _center;
pos = (484.5,678);
}
);
layerId = "B5042207-EFBA-41B6-8DFD-104A953B46A6";
shapes = (
{
closed = 1;
nodes = (
(950,1473,o),
(995,1420,c),
(805,750,o),
(510,154,o),
(262,-191,c),
(151,-166,o),
(38,-96,o),
(-26,-32,c),
(217,359,o),
(569,1193,o),
(706,1547,c),
(873,1513,o)
);
}
);
width = 969;
},
{
anchors = (
{
name = _center;
pos = (458,662);
}
);
layerId = "B5195C1E-69AB-4BC6-9855-DF55601A0735";
shapes = (
{
closed = 1;
nodes = (
(887,1448,o),
(904,1433,c),
(636,814,o),
(289,157,o),
(87,-145,c),
(67,-139,o),
(27,-123,o),
(12,-115,c),
(269,277,o),
(610,930,o),
(819,1469,c),
(850,1462,o)
);
}
);
width = 969;
}
);
unicode = 823;
},
{
glyphname = slashlongcomb;
kernLeft = slash;
kernRight = slash;
lastChange = "2020-07-01 15:07:30 +0000";
layers = (
{
anchors = (
{
name = _center;
pos = (484.5,678);
}
);
layerId = "B5042207-EFBA-41B6-8DFD-104A953B46A6";
shapes = (
{
closed = 1;
nodes = (
(706,1547,c),
(569,1193,o),
(217,359,o),
(-26,-32,c),
(38,-96,o),
(151,-166,o),
(262,-191,c),
(510,154,o),
(805,750,o),
(995,1420,c),
(950,1473,o),
(873,1513,o)
);
}
);
width = 969;
},
{
anchors = (
{
name = _center;
pos = (458,662);
}
);
layerId = "B5195C1E-69AB-4BC6-9855-DF55601A0735";
shapes = (
{
closed = 1;
nodes = (
(819,1469,c),
(610,930,o),
(269,277,o),
(12,-115,c),
(27,-123,o),
(67,-139,o),
(87,-145,c),
(289,157,o),
(636,814,o),
(904,1433,c),
(887,1448,o),
(850,1462,o)
);
}
);
width = 969;
}
);
unicode = 824;
},
{
glyphname = brevecomb_acutecomb;
lastChange = "2020-07-21 15:14:32 +0000";
layers = (
{
anchors = (
{
name = _top;
pos = (409,1063);
},
{
name = top;
pos = (404,1877);
}
);
layerId = "B5195C1E-69AB-4BC6-9855-DF55601A0735";
shapes = (
{
closed = 1;
nodes = (
(675,1486,o),
(644,1494,o),
(621,1494,c),
(621,1355,o),
(569,1193,o),
(407,1193,cs),
(270,1193,o),
(221,1273,o),
(205,1346,cs),
(196,1389,o),
(195,1438,o),
(195,1488,c),
(168,1488,o),
(150,1487,o),
(123,1481,c),
(123,1443,o),
(125,1408,o),
(130,1376,cs),
(152,1226,o),
(225,1123,o),
(409,1123,cs),
(576,1123,o),
(694,1277,o),
(694,1481,c)
);
},
{
closed = 1;
nodes = (
(545,1855,o),
(308,1667,o),
(251,1597,c),
(261,1591,o),
(289,1582,o),
(303,1578,c),
(349,1610,o),
(650,1791,o),
(699,1812,c),
(682,1838,o),
(649,1869,o),
(624,1879,c)
);
}
);
width = 885;
},
{
anchors = (
{
name = _top;
pos = (413,1063);
},
{
name = top;
pos = (413,1991);
}
);
layerId = "B5042207-EFBA-41B6-8DFD-104A953B46A6";
shapes = (
{
closed = 1;
nodes = (
(707,1515,o),
(602,1536,o),
(480,1536,c),
(480,1411,o),
(446,1390,o),
(408,1390,cs),
(383,1390,o),
(360,1406,o),
(349,1462,cs),
(345,1481,o),
(343,1504,o),
(343,1534,c),
(272,1534,o),
(128,1532,o),
(68,1513,c),
(68,1479,o),
(70,1447,o),
(75,1418,cs),
(101,1255,o),
(202,1165,o),
(409,1165,cs),
(625,1165,o),
(757,1298,o),
(757,1492,c)
);
},
{
closed = 1;
nodes = (
(477,1977,o),
(244,1830,o),
(167,1732,c),
(197,1698,o),
(343,1617,o),
(368,1607,c),
(421,1641,o),
(618,1739,o),
(768,1792,c),
(751,1818,o),
(672,1938,o),
(555,2001,c)
);
}
);
width = 885;
}
);
},
{
glyphname = brevecomb_gravecomb;
lastChange = "2020-07-21 15:13:44 +0000";
layers = (
{
anchors = (
{
name = _top;
pos = (409,815);
},
{
name = top;
pos = (409,1555);
}
);
layerId = "B5195C1E-69AB-4BC6-9855-DF55601A0735";
shapes = (
{
closed = 1;
nodes = (
(675,1238,o),
(644,1246,o),
(621,1246,c),
(621,1107,o),
(569,945,o),
(407,945,cs),
(270,945,o),
(221,1025,o),
(205,1098,cs),
(196,1141,o),
(195,1190,o),
(195,1240,c),
(168,1240,o),
(150,1239,o),
(123,1233,c),
(123,1195,o),
(125,1160,o),
(130,1128,cs),
(152,978,o),
(225,875,o),
(409,875,cs),
(576,875,o),
(694,1029,o),
(694,1233,c)
);
},
{
closed = 1;
nodes = (
(97,1545,o),
(65,1516,o),
(46,1496,c),
(173,1463,o),
(424,1373,o),
(513,1321,c),
(516,1327,o),
(528,1360,o),
(530,1366,c),
(419,1470,o),
(166,1553,o),
(114,1555,c)
);
}
);
width = 885;
},
{
anchors = (
{
name = _top;
pos = (412.894,886.803);
},
{
name = top;
pos = (412.757,1673.86);
}
);
layerId = "B5042207-EFBA-41B6-8DFD-104A953B46A6";
shapes = (
{
closed = 1;
nodes = (
(645,1243,o),
(562,1260,o),
(466,1260,c),
(466,1161,o),
(439,1145,o),
(409,1145,cs),
(389,1145,o),
(371,1157,o),
(362,1202,cs),
(359,1217,o),
(358,1235,o),
(358,1258,c),
(302,1258,o),
(188,1257,o),
(141,1242,c),
(141,1215,o),
(142,1190,o),
(146,1167,cs),
(167,1038,o),
(246,967,o),
(410,967,cs),
(580,967,o),
(684,1072,o),
(684,1225,c)
);
},
{
closed = 1;
nodes = (
(163,1603,o),
(96,1489,o),
(84,1468,c),
(191,1440,o),
(386,1378,o),
(461,1335,c),
(483,1345,o),
(564,1421,o),
(600,1479,c),
(507,1566,o),
(299,1668,o),
(246,1674,c)
);
}
);
width = 885;
}
);
},
{
glyphname = brevecomb_hookabovecomb;
lastChange = "2020-07-21 15:13:38 +0000";
layers = (
{
anchors = (
{
name = _top;
pos = (409,1063);
},
{
name = top;
pos = (429,1825);
}
);
layerId = "B5195C1E-69AB-4BC6-9855-DF55601A0735";
shapes = (
{
closed = 1;
nodes = (
(675,1486,o),
(644,1494,o),
(621,1494,c),
(621,1355,o),
(569,1193,o),
(407,1193,cs),
(270,1193,o),
(221,1273,o),
(205,1346,cs),
(196,1389,o),
(195,1438,o),
(195,1488,c),
(168,1488,o),
(150,1487,o),
(123,1481,c),
(123,1443,o),
(125,1408,o),
(130,1376,cs),
(152,1226,o),
(225,1123,o),
(409,1123,cs),
(576,1123,o),
(694,1277,o),
(694,1481,c)
);
},
{
closed = 1;
nodes = (
(488,1586,o),
(615,1607,o),
(615,1707,cs),
(615,1805,o),
(540,1827,o),
(390,1827,cs),
(339,1827,o),
(259,1817,o),
(246,1815,c),
(257,1757,l),
(287,1762,o),
(362,1768,o),
(395,1768,cs),
(468,1768,o),
(549,1767,o),
(549,1717,cs),
(549,1647,o),
(452,1642,o),
(331,1642,c),
(331,1622,o),
(331,1535,o),
(331,1501,c),
(397,1505,l),
(398,1525,o),
(398,1559,o),
(398,1586,c)
);
}
);
width = 885;
},
{
anchors = (
{
name = _top;
pos = (413,1122);
},
{
name = top;
pos = (413,1987);
}
);
layerId = "B5042207-EFBA-41B6-8DFD-104A953B46A6";
shapes = (
{
closed = 1;
nodes = (
(656,1494,o),
(569,1512,o),
(469,1512,c),
(469,1409,o),
(441,1391,o),
(409,1391,cs),
(389,1391,o),
(370,1405,o),
(361,1451,cs),
(357,1466,o),
(356,1485,o),
(356,1510,c),
(297,1510,o),
(178,1508,o),
(129,1493,c),
(129,1465,o),
(131,1438,o),
(135,1415,cs),
(156,1280,o),
(239,1206,o),
(410,1206,cs),
(588,1206,o),
(697,1316,o),
(697,1476,c)
);
},
{
closed = 1;
nodes = (
(568,1679,o),
(676,1722,o),
(676,1842,cs),
(676,1952,o),
(567,1987,o),
(417,1987,cs),
(339,1987,o),
(175,1966,o),
(150,1957,c),
(191,1805,l),
(221,1812,o),
(301,1826,o),
(359,1826,cs),
(392,1826,o),
(420,1826,o),
(420,1799,cs),
(420,1772,o),
(377,1764,o),
(286,1764,c),
(286,1744,o),
(286,1637,o),
(286,1603,c),
(499,1607,l),
(501,1625,o),
(502,1653,o),
(502,1668,c)
);
}
);
width = 885;
}
);
},
{
glyphname = brevecomb_tildecomb;
lastChange = "2020-07-21 15:13:35 +0000";
layers = (
{
anchors = (
{
name = _top;
pos = (449,773);
},
{
name = top;
pos = (449,1556);
}
);
layerId = "B5195C1E-69AB-4BC6-9855-DF55601A0735";
shapes = (
{
closed = 1;
nodes = (
(715,1196,o),
(684,1204,o),
(661,1204,c),
(661,1065,o),
(609,903,o),
(447,903,cs),
(310,903,o),
(261,983,o),
(245,1056,cs),
(236,1099,o),
(235,1148,o),
(235,1198,c),
(208,1198,o),
(190,1197,o),
(163,1191,c),
(163,1153,o),
(165,1118,o),
(170,1086,cs),
(192,936,o),
(265,833,o),
(449,833,cs),
(616,833,o),
(734,987,o),
(734,1191,c)
);
},
{
closed = 1;
nodes = (
(130,1338,l),
(161,1417,o),
(221,1488,o),
(303,1488,cs),
(351,1488,o),
(390,1445,o),
(432,1398,cs),
(484,1339,o),
(543,1273,o),
(634,1273,cs),
(750,1273,o),
(817,1389,o),
(834,1442,c),
(757,1471,l),
(736,1401,o),
(695,1346,o),
(633,1346,cs),
(566,1346,o),
(521,1395,o),
(477,1446,cs),
(430,1501,o),
(379,1555,o),
(299,1555,cs),
(181,1555,o),
(90,1453,o),
(63,1378,c)
);
}
);
width = 885;
},
{
anchors = (
{
name = _top;
pos = (413,799);
},
{
name = top;
pos = (413,1617);
}
);
layerId = "B5042207-EFBA-41B6-8DFD-104A953B46A6";
shapes = (
{
closed = 1;
nodes = (
(671,1195,o),
(579,1213,o),
(472,1213,c),
(472,1104,o),
(442,1085,o),
(409,1085,cs),
(387,1085,o),
(367,1099,o),
(357,1148,cs),
(353,1165,o),
(352,1185,o),
(352,1211,c),
(289,1211,o),
(163,1210,o),
(111,1193,c),
(111,1163,o),
(112,1135,o),
(117,1110,cs),
(140,967,o),
(228,888,o),
(409,888,cs),
(599,888,o),
(714,1005,o),
(714,1175,c)
);
},
{
closed = 1;
nodes = (
(188,1315,l),
(200,1340,o),
(234,1411,o),
(301,1411,cs),
(332,1411,o),
(365,1390,o),
(400,1364,cs),
(441,1333,o),
(490,1299,o),
(546,1299,cs),
(692,1299,o),
(774,1438,o),
(784,1495,c),
(628,1598,l),
(613,1553,o),
(580,1506,o),
(530,1506,cs),
(493,1506,o),
(464,1527,o),
(433,1553,cs),
(395,1583,o),
(350,1615,o),
(285,1615,cs),
(167,1615,o),
(64,1532,o),
(34,1448,c)
);
}
);
width = 885;
}
);
},
{
glyphname = circumflexcomb_acutecomb;
lastChange = "2020-07-08 20:16:11 +0000";
layers = (
{
anchors = (
{
name = _top;
pos = (433,1063);
},
{
name = top;
pos = (447,1651);
}
);
layerId = "B5195C1E-69AB-4BC6-9855-DF55601A0735";
shapes = (
{
closed = 1;
nodes = (
(734,1109,o),
(751,1121,o),
(772,1140,c),
(690,1220,o),
(567,1333,o),
(484,1408,c),
(466,1410,o),
(447,1410,o),
(433,1410,c),
(394,1383,o),
(214,1248,o),
(103,1164,c),
(115,1154,o),
(160,1128,o),
(172,1123,c),
(243,1172,o),
(442,1335,o),
(462,1352,c),
(447,1352,l),
(467,1336,o),
(654,1165,o),
(717,1097,c)
);
},
{
closed = 1;
nodes = (
(749,1424,o),
(998,1563,o),
(1047,1584,c),
(1040,1600,o),
(1005,1637,o),
(985,1647,c),
(926,1623,o),
(689,1459,o),
(632,1398,c),
(642,1392,o),
(677,1377,o),
(691,1373,c)
);
}
);
width = 874;
},
{
anchors = (
{
name = _top;
pos = (449,1063);
},
{
name = top;
pos = (489,1765);
}
);
layerId = "B5042207-EFBA-41B6-8DFD-104A953B46A6";
shapes = (
{
closed = 1;
nodes = (
(698,1129,o),
(798,1178,o),
(881,1236,c),
(808,1317,o),
(676,1445,o),
(601,1517,c),
(550,1517,o),
(392,1515,o),
(351,1513,c),
(291,1479,o),
(139,1369,o),
(17,1271,c),
(82,1213,o),
(202,1136,o),
(270,1115,c),
(351,1198,o),
(458,1288,o),
(489,1311,c),
(456,1311,l),
(473,1292,o),
(556,1195,o),
(628,1108,c)
);
},
{
closed = 1;
nodes = (
(868,1492,o),
(1065,1574,o),
(1145,1594,c),
(1130,1626,o),
(992,1746,o),
(937,1776,c),
(870,1755,o),
(706,1637,o),
(640,1571,c),
(675,1542,o),
(800,1471,o),
(822,1462,c)
);
}
);
width = 874;
}
);
},
{
glyphname = circumflexcomb_gravecomb;
lastChange = "2020-07-16 19:51:40 +0000";
layers = (
{
anchors = (
{
name = _top;
pos = (433,1063);
},
{
name = top;
pos = (447,1568);
}
);
layerId = "B5195C1E-69AB-4BC6-9855-DF55601A0735";
shapes = (
{
closed = 1;
nodes = (
(734,1109,o),
(751,1121,o),
(772,1140,c),
(690,1220,o),
(567,1333,o),
(484,1408,c),
(466,1410,o),
(447,1410,o),
(433,1410,c),
(394,1383,o),
(214,1248,o),
(103,1164,c),
(115,1154,o),
(160,1128,o),
(172,1123,c),
(243,1172,o),
(442,1335,o),
(462,1352,c),
(447,1352,l),
(467,1336,o),
(654,1165,o),
(717,1097,c)
);
},
{
closed = 1;
nodes = (
(841,1341,o),
(853,1384,o),
(855,1400,c),
(792,1459,o),
(551,1567,o),
(499,1569,c),
(482,1559,o),
(450,1530,o),
(431,1510,c),
(557,1476,o),
(748,1386,o),
(838,1335,c)
);
}
);
width = 874;
},
{
anchors = (
{
name = _top;
pos = (449,1063);
},
{
name = top;
pos = (473,1807);
}
);
layerId = "B5042207-EFBA-41B6-8DFD-104A953B46A6";
shapes = (
{
closed = 1;
nodes = (
(698,1129,o),
(798,1178,o),
(881,1236,c),
(808,1317,o),
(676,1445,o),
(601,1517,c),
(550,1517,o),
(392,1515,o),
(351,1513,c),
(291,1479,o),
(139,1369,o),
(17,1271,c),
(82,1213,o),
(202,1136,o),
(270,1115,c),
(351,1198,o),
(458,1288,o),
(489,1311,c),
(456,1311,l),
(473,1292,o),
(556,1195,o),
(628,1108,c)
);
},
{
closed = 1;
nodes = (
(932,1471,o),
(1041,1547,o),
(1093,1605,c),
(1023,1692,o),
(845,1794,o),
(795,1800,c),
(684,1729,o),
(583,1635,o),
(566,1614,c),
(665,1586,o),
(843,1504,o),
(907,1461,c)
);
}
);
width = 874;
}
);
},
{
glyphname = circumflexcomb_hookabovecomb;
lastChange = "2020-07-08 20:35:12 +0000";
layers = (
{
anchors = (
{
name = _top;
pos = (438,1043);
},
{
name = top;
pos = (438,1651);
}
);
layerId = "B5195C1E-69AB-4BC6-9855-DF55601A0735";
shapes = (
{
closed = 1;
nodes = (
(734,1095,o),
(751,1107,o),
(772,1126,c),
(690,1206,o),
(567,1319,o),
(484,1394,c),
(466,1396,o),
(447,1396,o),
(433,1396,c),
(394,1369,o),
(214,1234,o),
(103,1150,c),
(115,1140,o),
(160,1114,o),
(172,1109,c),
(243,1158,o),
(442,1321,o),
(462,1338,c),
(447,1338,l),
(467,1322,o),
(654,1151,o),
(717,1083,c)
);
},
{
closed = 1;
nodes = (
(698,1328,l),
(698,1349,o),
(699,1382,o),
(700,1409,c),
(790,1409,o),
(916,1430,o),
(916,1530,cs),
(916,1628,o),
(841,1650,o),
(691,1650,cs),
(640,1650,o),
(560,1640,o),
(547,1638,c),
(558,1580,l),
(588,1585,o),
(663,1591,o),
(696,1591,cs),
(769,1591,o),
(850,1590,o),
(850,1540,cs),
(850,1470,o),
(753,1465,o),
(632,1465,c),
(631,1445,o),
(630,1384,o),
(630,1350,c)
);
}
);
width = 874;
},
{
anchors = (
{
name = _top;
pos = (449,1076);
},
{
name = top;
pos = (482,1822);
}
);
layerId = "B5042207-EFBA-41B6-8DFD-104A953B46A6";
shapes = (
{
closed = 1;
nodes = (
(698,1139,o),
(798,1188,o),
(881,1246,c),
(808,1327,o),
(676,1455,o),
(601,1527,c),
(550,1527,o),
(392,1525,o),
(351,1523,c),
(291,1489,o),
(139,1379,o),
(17,1281,c),
(82,1223,o),
(202,1146,o),
(270,1125,c),
(351,1208,o),
(458,1298,o),
(489,1321,c),
(456,1321,l),
(473,1302,o),
(556,1205,o),
(628,1118,c)
);
},
{
closed = 1;
nodes = (
(933,1424,l),
(935,1432,o),
(936,1500,o),
(936,1515,c),
(1002,1522,o),
(1110,1539,o),
(1110,1659,cs),
(1110,1769,o),
(1001,1804,o),
(851,1804,cs),
(773,1804,o),
(609,1783,o),
(584,1774,c),
(625,1622,l),
(655,1629,o),
(735,1643,o),
(793,1643,cs),
(826,1643,o),
(854,1643,o),
(854,1616,cs),
(854,1589,o),
(821,1581,o),
(730,1581,c),
(729,1561,o),
(726,1494,o),
(726,1460,c)
);
}
);
width = 874;
}
);
},
{
glyphname = circumflexcomb_tildecomb;
lastChange = "2020-07-21 15:13:32 +0000";
layers = (
{
anchors = (
{
name = _top;
pos = (440,763);
},
{
name = top;
pos = (440,1453);
}
);
layerId = "B5195C1E-69AB-4BC6-9855-DF55601A0735";
shapes = (
{
closed = 1;
nodes = (
(569,1034,o),
(486,1109,c),
(468,1111,o),
(449,1111,o),
(435,1111,c),
(396,1084,o),
(216,949,o),
(105,865,c),
(117,855,o),
(162,829,o),
(174,824,c),
(245,873,o),
(444,1036,o),
(464,1053,c),
(449,1053,l),
(469,1037,o),
(656,866,o),
(719,798,c),
(736,810,o),
(753,822,o),
(774,841,c),
(692,921,o)
);
},
{
closed = 1;
nodes = (
(121,1235,l),
(152,1314,o),
(212,1385,o),
(294,1385,cs),
(342,1385,o),
(381,1342,o),
(423,1295,cs),
(475,1236,o),
(534,1170,o),
(625,1170,cs),
(741,1170,o),
(808,1286,o),
(825,1339,c),
(748,1368,l),
(727,1298,o),
(686,1243,o),
(624,1243,cs),
(557,1243,o),
(512,1292,o),
(468,1343,cs),
(421,1398,o),
(370,1452,o),
(290,1452,cs),
(172,1452,o),
(81,1350,o),
(54,1275,c)
);
}
);
width = 874;
},
{
anchors = (
{
name = _top;
pos = (452,766);
},
{
name = top;
pos = (452,1625);
}
);
layerId = "B5042207-EFBA-41B6-8DFD-104A953B46A6";
shapes = (
{
closed = 1;
nodes = (
(679,1165,o),
(604,1237,c),
(553,1237,o),
(395,1235,o),
(354,1233,c),
(294,1199,o),
(142,1089,o),
(20,991,c),
(85,933,o),
(205,856,o),
(273,835,c),
(354,918,o),
(461,1008,o),
(492,1031,c),
(459,1031,l),
(476,1012,o),
(559,915,o),
(631,828,c),
(701,849,o),
(801,898,o),
(884,956,c),
(811,1037,o)
);
},
{
closed = 1;
nodes = (
(237,1336,l),
(248,1360,o),
(282,1428,o),
(345,1428,cs),
(375,1428,o),
(407,1408,o),
(440,1383,cs),
(480,1353,o),
(526,1320,o),
(580,1320,cs),
(720,1320,o),
(798,1454,o),
(808,1509,c),
(658,1607,l),
(644,1564,o),
(612,1519,o),
(564,1519,cs),
(530,1519,o),
(501,1539,o),
(471,1563,cs),
(435,1592,o),
(393,1623,o),
(330,1623,cs),
(217,1623,o),
(118,1544,o),
(90,1463,c)
);
}
);
width = 874;
}
);
},
{
glyphname = gravecomb;
kernLeft = grave;
kernRight = grave;
lastChange = "2025-11-05 12:30:27 +0000";
layers = (
{
anchors = (
{
name = _top;
pos = (332,1107);
},
{
name = math.ta;
pos = (361,1366);
},
{
name = top;
pos = (468,1558);
}
);
layerId = "B5042207-EFBA-41B6-8DFD-104A953B46A6";
shapes = (
{
closed = 1;
nodes = (
(171,1474,o),
(91,1338,o),
(77,1313,c),
(204,1280,o),
(436,1206,o),
(525,1155,c),
(552,1167,o),
(648,1257,o),
(691,1326,c),
(580,1430,o),
(332,1551,o),
(270,1558,c)
);
}
);
width = 723;
},
{
anchors = (
{
name = _top;
pos = (341,1141);
},
{
name = math.ta;
pos = (357,1270);
},
{
name = top;
pos = (439,1362);
}
);
layerId = "B5195C1E-69AB-4BC6-9855-DF55601A0735";
shapes = (
{
closed = 1;
nodes = (
(157,1352,o),
(125,1323,o),
(106,1303,c),
(233,1270,o),
(484,1180,o),
(573,1128,c),
(576,1134,o),
(588,1167,o),
(590,1173,c),
(479,1277,o),
(226,1360,o),
(174,1362,c)
);
}
);
width = 663;
}
);
subCategory = Spacing;
unicode = 768;
},
{
glyphname = acutecomb;
kernLeft = acute;
kernRight = acute;
lastChange = "2025-11-05 12:19:29 +0000";
layers = (
{
anchors = (
{
name = _top;
pos = (293,1063);
},
{
name = math.ta;
pos = (282,1061);
},
{
name = top;
pos = (293,1520);
}
);
layerId = "B5042207-EFBA-41B6-8DFD-104A953B46A6";
shapes = (
{
closed = 1;
nodes = (
(357,1506,o),
(124,1359,o),
(47,1261,c),
(77,1227,o),
(223,1146,o),
(248,1136,c),
(301,1170,o),
(498,1268,o),
(648,1321,c),
(631,1347,o),
(552,1467,o),
(435,1530,c)
);
}
);
width = 621;
},
{
anchors = (
{
name = _top;
pos = (299,1063);
},
{
name = math.ta;
pos = (298,1072);
},
{
name = top;
pos = (294,1436);
}
);
layerId = "B5195C1E-69AB-4BC6-9855-DF55601A0735";
shapes = (
{
closed = 1;
nodes = (
(435,1414,o),
(198,1226,o),
(141,1156,c),
(151,1150,o),
(179,1141,o),
(193,1137,c),
(239,1169,o),
(540,1350,o),
(589,1371,c),
(572,1397,o),
(539,1428,o),
(514,1438,c)
);
}
);
width = 621;
}
);
subCategory = Spacing;
unicode = 769;
},
{
glyphname = circumflexcomb;
lastChange = "2025-11-07 20:35:25 +0000";
layers = (
{
anchors = (
{
name = _top;
pos = (-328,1022);
},
{
name = math.ta;
pos = (-328,1188);
},
{
name = top;
pos = (-432,1534);
}
);
layerId = "B5042207-EFBA-41B6-8DFD-104A953B46A6";
shapes = (
{
closed = 1;
nodes = (
(-103,1066,o),
(-3,1115,o),
(80,1173,c),
(7,1254,o),
(-125,1382,o),
(-200,1454,c),
(-251,1454,o),
(-409,1452,o),
(-450,1450,c),
(-510,1416,o),
(-662,1306,o),
(-784,1208,c),
(-719,1150,o),
(-599,1073,o),
(-531,1052,c),
(-450,1135,o),
(-343,1225,o),
(-312,1248,c),
(-345,1248,l),
(-328,1229,o),
(-245,1132,o),
(-173,1045,c)
);
}
);
width = 0;
},
{
anchors = (
{
name = _top;
pos = (391,1023);
},
{
name = math.ta;
pos = (391,1339);
},
{
name = top;
pos = (397,1410);
}
);
layerId = "B5195C1E-69AB-4BC6-9855-DF55601A0735";
shapes = (
{
closed = 1;
nodes = (
(684,1110,o),
(701,1122,o),
(709,1141,c),
(627,1221,o),
(504,1334,o),
(421,1409,c),
(403,1411,o),
(384,1411,o),
(370,1411,c),
(331,1384,o),
(151,1249,o),
(40,1165,c),
(52,1155,o),
(74,1135,o),
(109,1124,c),
(180,1173,o),
(379,1336,o),
(399,1353,c),
(384,1353,l),
(404,1337,o),
(591,1166,o),
(654,1098,c)
);
}
);
width = 749;
}
);
production = circumflexcomb;
subCategory = Spacing;
unicode = 770;
userData = {
com.nagwa.MATHPlugin.variants = {
hVariants = (
circumflexcomb,
circumflexcomb.s1,
circumflexcomb.s2,
circumflexcomb.s3,
circumflexcomb.s4,
circumflexcomb.s5,
circumflexcomb.s6,
circumflexcomb.s7
);
};
};
},
{
glyphname = circumflexcomb.s1;
lastChange = "2025-11-07 21:55:27 +0000";
layers = (
{
anchors = (
{
name = _top;
pos = (840,1163);
},
{
name = math.ta;
pos = (795,1159);
},
{
name = top;
pos = (795,1634);
}
);
layerId = "B5042207-EFBA-41B6-8DFD-104A953B46A6";
shapes = (
{
closed = 1;
nodes = (
(1104,1712,o),
(945,1784,c),
(854,1795,o),
(808,1790,o),
(739,1780,c),
(619,1757,o),
(90,1560,o),
(40,1538,c),
(100,1381,o),
(135,1289,o),
(219,1252,c),
(321,1283,o),
(751,1404,o),
(801,1427,c),
(847,1427,l),
(904,1403,o),
(1178,1312,o),
(1312,1225,c),
(1399,1284,o),
(1494,1354,o),
(1549,1503,c),
(1393,1584,o)
);
}
);
userData = {
RMXScaler = {
width = 200;
};
};
width = 1589;
},
{
anchors = (
{
name = _top;
pos = (698,1063);
},
{
name = math.ta;
pos = (725,1063);
},
{
name = top;
pos = (698,1411);
}
);
layerId = "B5195C1E-69AB-4BC6-9855-DF55601A0735";
shapes = (
{
closed = 1;
nodes = (
(944,1434,o),
(777,1509,c),
(745,1511,o),
(725,1511,o),
(700,1511,c),
(625,1484,o),
(261,1349,o),
(40,1265,c),
(72,1236,o),
(87,1223,o),
(114,1223,c),
(255,1272,o),
(705,1436,o),
(744,1453,c),
(716,1453,l),
(756,1437,o),
(1143,1266,o),
(1268,1198,c),
(1317,1212,o),
(1343,1223,o),
(1354,1241,c),
(1189,1321,o)
);
}
);
userData = {
RMXScaler = {
width = 200;
};
};
width = 1394;
}
);
production = circumflexcomb.s1;
subCategory = Spacing;
userData = {
RMXScaler = {
source = circumflexcomb;
};
com.nagwa.MATHPlugin.variants = {
hVariants = (
);
};
};
},
{
glyphname = circumflexcomb.s2;
lastChange = "2025-11-07 21:55:46 +0000";
layers = (
{
anchors = (
{
name = _top;
pos = (1118,1163);
},
{
name = math.ta;
pos = (1115,1159);
},
{
name = top;
pos = (1118,1634);
}
);
layerId = "B5042207-EFBA-41B6-8DFD-104A953B46A6";
shapes = (
{
closed = 1;
nodes = (
(1578,1712,o),
(1335,1784,c),
(1256,1784,o),
(1095,1782,o),
(1033,1780,c),
(900,1746,o),
(381,1636,o),
(40,1538,c),
(86,1395,o),
(134,1291,o),
(294,1195,c),
(515,1278,o),
(1134,1405,o),
(1202,1428,c),
(1143,1428,l),
(1201,1409,o),
(1760,1253,o),
(1956,1166,c),
(2076,1187,o),
(2163,1366,o),
(2193,1503,c),
(1954,1584,o)
);
}
);
userData = {
RMXScaler = {
width = 300;
};
};
width = 2233;
},
{
anchors = (
{
name = _top;
pos = (1021,1063);
},
{
name = math.ta;
pos = (1013,1058);
},
{
name = top;
pos = (1021,1411);
}
);
layerId = "B5195C1E-69AB-4BC6-9855-DF55601A0735";
shapes = (
{
closed = 1;
nodes = (
(1383,1434,o),
(1132,1509,c),
(1086,1511,o),
(1064,1511,o),
(1029,1511,c),
(917,1484,o),
(370,1349,o),
(40,1265,c),
(57,1248,o),
(80,1231,o),
(103,1211,c),
(314,1260,o),
(1032,1436,o),
(1089,1453,c),
(1048,1453,l),
(1109,1437,o),
(1770,1245,o),
(1957,1177,c),
(2001,1194,o),
(1993,1222,o),
(1998,1241,c),
(1750,1321,o)
);
}
);
userData = {
RMXScaler = {
width = 300;
};
};
width = 2038;
}
);
production = circumflexcomb.s2;
subCategory = Spacing;
userData = {
RMXScaler = {
source = circumflexcomb;
};
com.nagwa.MATHPlugin.variants = {
hVariants = (
);
};
};
},
{
glyphname = circumflexcomb.s3;
lastChange = "2025-11-07 21:56:27 +0000";
layers = (
{
anchors = (
{
name = _top;
pos = (1441,1163);
},
{
name = math.ta;
pos = (1436,1159);
},
{
name = top;
pos = (1441,1634);
}
);
layerId = "B5042207-EFBA-41B6-8DFD-104A953B46A6";
shapes = (
{
closed = 1;
nodes = (
(2018,1712,o),
(1691,1784,c),
(1583,1795,o),
(1461,1793,o),
(1363,1780,c),
(1194,1746,o),
(491,1636,o),
(40,1538,c),
(36,1418,o),
(93,1270,o),
(197,1230,c),
(487,1273,o),
(1339,1403,o),
(1436,1416,c),
(1595,1418,l),
(1768,1385,o),
(2336,1267,o),
(2649,1199,c),
(2773,1230,o),
(2870,1373,o),
(2838,1503,c),
(2516,1584,o)
);
}
);
userData = {
RMXScaler = {
width = 400;
};
};
width = 2884;
},
{
anchors = (
{
name = _top;
pos = (1344,1063);
},
{
name = math.ta;
pos = (1334,1058);
},
{
name = top;
pos = (1344,1411);
}
);
layerId = "B5195C1E-69AB-4BC6-9855-DF55601A0735";
shapes = (
{
closed = 1;
nodes = (
(1823,1434,o),
(1488,1509,c),
(1428,1511,o),
(1404,1511,o),
(1358,1511,c),
(1210,1484,o),
(480,1349,o),
(40,1265,c),
(55,1245,o),
(65,1232,o),
(91,1208,c),
(371,1257,o),
(1318,1436,o),
(1394,1453,c),
(1420,1453,l),
(1501,1437,o),
(2268,1276,o),
(2517,1208,c),
(2562,1221,o),
(2598,1238,o),
(2602,1257,c),
(2271,1337,o)
);
}
);
userData = {
RMXScaler = {
width = 400;
};
};
width = 2642;
}
);
production = circumflexcomb.s3;
subCategory = Spacing;
userData = {
RMXScaler = {
source = circumflexcomb;
};
com.nagwa.MATHPlugin.variants = {
hVariants = (
);
};
};
},
{
glyphname = circumflexcomb.s4;
lastChange = "2025-11-07 21:56:44 +0000";
layers = (
{
anchors = (
{
name = _top;
pos = (1764,1163);
},
{
name = math.ta;
pos = (1756,1159);
},
{
name = top;
pos = (1764,1634);
}
);
layerId = "B5042207-EFBA-41B6-8DFD-104A953B46A6";
shapes = (
{
closed = 1;
nodes = (
(2458,1712,o),
(2047,1784,c),
(1914,1800,o),
(1804,1796,o),
(1692,1780,c),
(1487,1746,o),
(601,1636,o),
(40,1538,c),
(35,1448,o),
(76,1261,o),
(177,1201,c),
(537,1284,o),
(1592,1371,o),
(1698,1394,c),
(1948,1417,l),
(2047,1398,o),
(3035,1269,o),
(3354,1182,c),
(3458,1241,o),
(3476,1348,o),
(3483,1503,c),
(3078,1584,o)
);
}
);
userData = {
RMXScaler = {
width = 500;
};
};
width = 3523;
},
{
anchors = (
{
name = _top;
pos = (1666,1063);
},
{
name = math.ta;
pos = (1743,1063);
},
{
name = top;
pos = (1666,1411);
}
);
layerId = "B5195C1E-69AB-4BC6-9855-DF55601A0735";
shapes = (
{
closed = 1;
nodes = (
(2262,1434,o),
(1843,1509,c),
(1770,1511,o),
(1744,1511,o),
(1688,1511,c),
(1504,1484,o),
(590,1349,o),
(40,1265,c),
(40,1241,o),
(59,1215,o),
(95,1200,c),
(445,1249,o),
(1624,1436,o),
(1718,1453,c),
(1772,1453,l),
(1874,1437,o),
(2940,1247,o),
(3250,1179,c),
(3276,1189,o),
(3287,1208,o),
(3287,1241,c),
(2873,1321,o)
);
}
);
userData = {
RMXScaler = {
width = 500;
};
};
width = 3327;
}
);
production = circumflexcomb.s4;
subCategory = Spacing;
userData = {
RMXScaler = {
source = circumflexcomb;
};
com.nagwa.MATHPlugin.variants = {
hVariants = (
);
};
};
},
{
glyphname = circumflexcomb.s5;
kernLeft = circumflex;
kernRight = circumflex;
lastChange = "2025-11-07 21:55:01 +0000";
layers = (
{
anchors = (
{
name = _top;
pos = (2087,1163);
},
{
name = math.ta;
pos = (2077,1159);
},
{
name = top;
pos = (2087,1634);
}
);
layerId = "B5042207-EFBA-41B6-8DFD-104A953B46A6";
shapes = (
{
closed = 1;
nodes = (
(2898,1712,o),
(2403,1784,c),
(2283,1784,o),
(2117,1782,o),
(2023,1780,c),
(1781,1746,o),
(711,1636,o),
(41,1538,c),
(32,1382,o),
(84,1271,o),
(156,1190,c),
(586,1273,o),
(2113,1395,o),
(2237,1418,c),
(2141,1418,l),
(2260,1399,o),
(3658,1237,o),
(4039,1150,c),
(4104,1248,o),
(4141,1353,o),
(4128,1503,c),
(3639,1584,o)
);
}
);
userData = {
RMXScaler = {
width = 600;
};
};
width = 4171;
},
{
anchors = (
{
name = _top;
pos = (1989,1063);
},
{
name = math.ta;
pos = (1974,1058);
},
{
name = top;
pos = (1989,1411);
}
);
layerId = "B5195C1E-69AB-4BC6-9855-DF55601A0735";
shapes = (
{
closed = 1;
nodes = (
(2702,1434,o),
(2199,1509,c),
(2112,1511,o),
(2085,1511,o),
(2018,1511,c),
(1797,1484,o),
(699,1349,o),
(40,1265,c),
(40,1241,o),
(53,1215,o),
(75,1204,c),
(429,1246,o),
(1940,1436,o),
(2053,1453,c),
(2145,1453,l),
(2267,1437,o),
(3507,1256,o),
(3879,1188,c),
(3921,1193,o),
(3932,1222,o),
(3932,1241,c),
(3434,1321,o)
);
}
);
userData = {
RMXScaler = {
width = 600;
};
};
width = 3972;
}
);
production = circumflexcomb.s5;
subCategory = Spacing;
userData = {
RMXScaler = {
source = circumflexcomb;
};
com.nagwa.MATHPlugin.variants = {
hVariants = (
);
};
};
},
{
glyphname = circumflexcomb.s6;
kernLeft = circumflex;
kernRight = circumflex;
lastChange = "2025-11-07 21:57:02 +0000";
layers = (
{
anchors = (
{
name = _top;
pos = (2411,1163);
},
{
name = math.ta;
pos = (2399,1159);
},
{
name = top;
pos = (2411,1634);
}
);
layerId = "B5042207-EFBA-41B6-8DFD-104A953B46A6";
shapes = (
{
closed = 1;
nodes = (
(3339,1712,o),
(2760,1784,c),
(2604,1809,o),
(2499,1805,o),
(2353,1780,c),
(2075,1746,o),
(822,1636,o),
(42,1538,c),
(32,1442,o),
(70,1247,o),
(158,1174,c),
(657,1257,o),
(2294,1395,o),
(2437,1418,c),
(2673,1418,l),
(2812,1399,o),
(4241,1239,o),
(4684,1152,c),
(4756,1222,o),
(4774,1356,o),
(4774,1503,c),
(4202,1584,o)
);
}
);
userData = {
RMXScaler = {
width = 700;
};
};
width = 4814;
},
{
anchors = (
{
name = _top;
pos = (2312,1063);
},
{
name = math.ta;
pos = (2295,1058);
},
{
name = top;
pos = (2312,1411);
}
);
layerId = "B5195C1E-69AB-4BC6-9855-DF55601A0735";
shapes = (
{
closed = 1;
nodes = (
(3142,1434,o),
(2555,1509,c),
(2454,1511,o),
(2425,1511,o),
(2347,1511,c),
(2090,1484,o),
(809,1349,o),
(40,1265,c),
(40,1222,o),
(34,1222,o),
(77,1208,c),
(566,1257,o),
(2260,1436,o),
(2392,1453,c),
(2514,1453,l),
(2656,1437,o),
(4121,1242,o),
(4555,1174,c),
(4582,1192,o),
(4577,1222,o),
(4577,1241,c),
(3996,1321,o)
);
}
);
userData = {
RMXScaler = {
width = 700;
};
};
width = 4617;
}
);
production = circumflexcomb.s6;
subCategory = Spacing;
userData = {
RMXScaler = {
source = circumflexcomb;
};
};
},
{
glyphname = circumflexcomb.s7;
kernLeft = circumflex;
kernRight = circumflex;
lastChange = "2025-11-07 21:55:01 +0000";
layers = (
{
anchors = (
{
name = _top;
pos = (2749,1163);
},
{
name = math.ta;
pos = (2734,1159);
},
{
name = top;
pos = (2749,1634);
}
);
layerId = "B5042207-EFBA-41B6-8DFD-104A953B46A6";
shapes = (
{
closed = 1;
nodes = (
(3793,1712,o),
(3130,1784,c),
(2982,1807,o),
(2812,1802,o),
(2697,1780,c),
(2382,1746,o),
(946,1636,o),
(57,1538,c),
(17,1455,o),
(47,1259,o),
(137,1181,c),
(704,1262,o),
(2603,1376,o),
(2782,1418,c),
(2980,1418,l),
(3140,1399,o),
(4867,1237,o),
(5372,1150,c),
(5433,1237,o),
(5453,1395,o),
(5433,1503,c),
(4778,1584,o)
);
}
);
userData = {
RMXScaler = {
width = 800;
};
};
width = 5480;
},
{
anchors = (
{
name = _top;
pos = (2642,1063);
},
{
name = math.ta;
pos = (2622,1058);
},
{
name = top;
pos = (2642,1411);
}
);
layerId = "B5195C1E-69AB-4BC6-9855-DF55601A0735";
shapes = (
{
closed = 1;
nodes = (
(3588,1434,o),
(2917,1509,c),
(2802,1525,o),
(2772,1524,o),
(2684,1511,c),
(2390,1484,o),
(926,1349,o),
(47,1265,c),
(35,1224,o),
(35,1227,o),
(85,1203,c),
(644,1252,o),
(2592,1436,o),
(2742,1453,c),
(2834,1453,l),
(2997,1437,o),
(4710,1244,o),
(5206,1176,c),
(5222,1189,o),
(5230,1222,o),
(5228,1241,c),
(4564,1321,o)
);
}
);
userData = {
RMXScaler = {
width = 800;
};
};
width = 5268;
}
);
production = circumflexcomb.s7;
subCategory = Spacing;
userData = {
RMXScaler = {
source = circumflexcomb;
};
};
},
{
glyphname = caroncomb;
kernLeft = caron;
kernRight = caron;
lastChange = "2025-11-05 12:37:42 +0000";
layers = (
{
anchors = (
{
name = _top;
pos = (430,1063);
},
{
name = math.ta;
pos = (425,1129);
},
{
name = top;
pos = (430,1535);
}
);
layerId = "B5042207-EFBA-41B6-8DFD-104A953B46A6";
shapes = (
{
closed = 1;
nodes = (
(527,1440,o),
(436,1349,o),
(419,1337,c),
(436,1337,l),
(400,1365,o),
(320,1455,o),
(252,1553,c),
(167,1531,o),
(45,1449,o),
(-6,1413,c),
(92,1311,o),
(175,1233,o),
(262,1163,c),
(329,1157,o),
(477,1152,o),
(560,1152,c),
(621,1184,o),
(789,1306,o),
(866,1377,c),
(847,1393,o),
(692,1509,o),
(609,1540,c)
);
}
);
width = 860;
},
{
anchors = (
{
name = _top;
pos = (429,1063);
},
{
name = math.ta;
pos = (426,1119);
},
{
name = top;
pos = (449,1489);
}
);
layerId = "B5195C1E-69AB-4BC6-9855-DF55601A0735";
shapes = (
{
closed = 1;
nodes = (
(626,1400,o),
(481,1248,o),
(423,1186,c),
(435,1186,l),
(411,1205,o),
(261,1380,o),
(181,1489,c),
(157,1477,o),
(136,1464,o),
(115,1450,c),
(209,1337,o),
(297,1241,o),
(383,1149,c),
(405,1148,o),
(439,1147,o),
(465,1147,c),
(499,1176,o),
(597,1262,o),
(783,1434,c),
(766,1447,o),
(733,1467,o),
(709,1480,c)
);
}
);
width = 860;
}
);
production = caroncomb;
subCategory = Spacing;
unicode = 780;
userData = {
com.nagwa.MATHPlugin.variants = {
hVariants = (
caroncomb,
caroncomb.s1,
caroncomb.s2,
caroncomb.s3,
caroncomb.s4,
caroncomb.s5,
caroncomb.s6,
caroncomb.s7
);
};
};
},
{
glyphname = brevecomb;
kernLeft = breve;
kernRight = breve;
lastChange = "2025-11-05 15:10:33 +0000";
layers = (
{
anchors = (
{
name = _top;
pos = (413,1063);
},
{
name = math.ta;
pos = (398,1291);
},
{
name = top;
pos = (413,1534);
}
);
layerId = "B5042207-EFBA-41B6-8DFD-104A953B46A6";
shapes = (
{
closed = 1;
nodes = (
(707,1515,o),
(602,1536,o),
(480,1536,c),
(480,1411,o),
(446,1390,o),
(408,1390,cs),
(383,1390,o),
(360,1406,o),
(349,1462,cs),
(345,1481,o),
(343,1504,o),
(343,1534,c),
(272,1534,o),
(128,1532,o),
(68,1513,c),
(68,1479,o),
(70,1447,o),
(75,1418,cs),
(101,1255,o),
(202,1165,o),
(409,1165,cs),
(625,1165,o),
(757,1298,o),
(757,1492,c)
);
}
);
width = 885;
},
{
anchors = (
{
name = _top;
pos = (316,956);
},
{
name = math.ta;
pos = (314,1157);
},
{
name = top;
pos = (316,1504);
}
);
layerId = "B5195C1E-69AB-4BC6-9855-DF55601A0735";
shapes = (
{
closed = 1;
nodes = (
(582,1486,o),
(551,1494,o),
(528,1494,c),
(528,1355,o),
(476,1193,o),
(314,1193,cs),
(177,1193,o),
(128,1273,o),
(112,1346,cs),
(103,1389,o),
(102,1438,o),
(102,1488,c),
(75,1488,o),
(57,1487,o),
(30,1481,c),
(30,1443,o),
(32,1408,o),
(37,1376,cs),
(59,1226,o),
(132,1123,o),
(316,1123,cs),
(483,1123,o),
(601,1277,o),
(601,1481,c)
);
}
);
width = 631;
}
);
subCategory = Spacing;
unicode = 774;
},
{
glyphname = brevecomb.case;
lastChange = "2025-11-05 12:37:32 +0000";
layers = (
{
anchors = (
{
name = _top;
pos = (408.5,1291);
},
{
name = math.ta;
pos = (408,1353);
},
{
name = top;
pos = (409,1737);
}
);
layerId = "B5195C1E-69AB-4BC6-9855-DF55601A0735";
shapes = (
{
closed = 1;
nodes = (
(675,1732,o),
(644,1740,o),
(621,1740,c),
(621,1561,o),
(569,1470,o),
(407,1470,cs),
(270,1470,o),
(217,1521,o),
(203,1592,cs),
(195,1634,o),
(195,1684,o),
(195,1734,c),
(168,1734,o),
(150,1733,o),
(123,1727,c),
(123,1689,o),
(124,1654,o),
(128,1622,cs),
(147,1470,o),
(225,1400,o),
(409,1400,cs),
(576,1400,o),
(694,1483,o),
(694,1727,c)
);
}
);
width = 885;
},
{
anchors = (
{
name = _top;
pos = (412.5,1291);
},
{
name = math.ta;
pos = (409,1353);
},
{
name = top;
pos = (412.5,1829);
}
);
layerId = "B5042207-EFBA-41B6-8DFD-104A953B46A6";
shapes = (
{
closed = 1;
nodes = (
(707,1750,o),
(602,1771,o),
(480,1771,c),
(480,1646,o),
(446,1625,o),
(408,1625,cs),
(383,1625,o),
(360,1641,o),
(349,1697,cs),
(345,1716,o),
(343,1739,o),
(343,1769,c),
(272,1769,o),
(128,1767,o),
(68,1748,c),
(68,1714,o),
(70,1682,o),
(75,1653,cs),
(101,1490,o),
(202,1400,o),
(409,1400,cs),
(625,1400,o),
(757,1533,o),
(757,1727,c)
);
}
);
width = 885;
}
);
subCategory = Spacing;
},
{
glyphname = tildecomb;
lastChange = "2025-11-07 13:21:12 +0000";
layers = (
{
anchors = (
{
name = _top;
pos = (507,1063);
},
{
name = math.ta;
pos = (507,1064);
},
{
name = top;
pos = (507,1531);
}
);
layerId = "B5042207-EFBA-41B6-8DFD-104A953B46A6";
shapes = (
{
closed = 1;
nodes = (
(207,1103,l),
(221,1132,o),
(261,1214,o),
(378,1244,cs),
(412,1253,o),
(452,1219,o),
(492,1189,cs),
(540,1153,o),
(596,1111,o),
(661,1114,cs),
(860,1124,o),
(954,1285,o),
(966,1351,c),
(785,1569,l),
(768,1518,o),
(730,1463,o),
(642,1453,cs),
(600,1448,o),
(566,1478,o),
(530,1507,cs),
(486,1542,o),
(435,1579,o),
(359,1579,cs),
(223,1579,o),
(64,1453,o),
(30,1356,c)
);
}
);
width = 996;
},
{
anchors = (
{
name = _top;
pos = (416,1063);
},
{
name = math.ta;
pos = (413,1063);
},
{
name = top;
pos = (416,1405);
}
);
layerId = "B5195C1E-69AB-4BC6-9855-DF55601A0735";
shapes = (
{
closed = 1;
nodes = (
(97,1207,l),
(128,1286,o),
(188,1357,o),
(270,1357,cs),
(318,1357,o),
(357,1314,o),
(399,1267,cs),
(451,1208,o),
(510,1142,o),
(601,1142,cs),
(717,1142,o),
(784,1258,o),
(801,1311,c),
(724,1340,l),
(703,1270,o),
(662,1215,o),
(600,1215,cs),
(533,1215,o),
(488,1264,o),
(444,1315,cs),
(397,1370,o),
(346,1424,o),
(266,1424,cs),
(148,1424,o),
(57,1322,o),
(30,1247,c)
);
}
);
width = 831;
}
);
production = tildecomb;
subCategory = Spacing;
unicode = 771;
userData = {
com.nagwa.MATHPlugin.variants = {
hVariants = (
tildecomb,
tildecomb.s1,
tildecomb.s2,
tildecomb.s3,
tildecomb.s4,
tildecomb.s5,
tildecomb.s6,
tildecomb.s7
);
};
};
},
{
glyphname = tildecomb.s1;
kernLeft = tilde;
kernRight = tilde;
lastChange = "2025-11-07 13:21:12 +0000";
layers = (
{
anchors = (
{
name = _top;
pos = (847,1063);
},
{
name = math.ta;
pos = (843,1064);
},
{
name = top;
pos = (847,1531);
}
);
layerId = "B5042207-EFBA-41B6-8DFD-104A953B46A6";
shapes = (
{
closed = 1;
nodes = (
(97,1351,o),
(148,1223,o),
(282,1166,c),
(323,1231,o),
(409,1311,o),
(569,1324,cs),
(644,1330,o),
(690,1321,o),
(780,1270,cs),
(868,1220,o),
(1058,1144,o),
(1189,1144,cs),
(1389,1144,o),
(1652,1307,o),
(1682,1357,c),
(1643,1452,o),
(1527,1592,o),
(1389,1645,c),
(1378,1604,o),
(1291,1493,o),
(1172,1493,cs),
(1058,1493,o),
(975,1549,o),
(897,1578,cs),
(800,1614,o),
(702,1679,o),
(548,1679,cs),
(297,1679,o),
(87,1543,o),
(30,1456,c)
);
}
);
userData = {
RMXScaler = {
width = 200;
};
};
width = 1712;
},
{
anchors = (
{
name = _top;
pos = (771,1063);
},
{
name = math.ta;
pos = (764,1063);
},
{
name = top;
pos = (771,1405);
}
);
layerId = "B5195C1E-69AB-4BC6-9855-DF55601A0735";
shapes = (
{
closed = 1;
nodes = (
(52,1235,o),
(62,1230,o),
(105,1213,c),
(170,1293,o),
(313,1357,o),
(477,1357,cs),
(574,1357,o),
(652,1314,o),
(736,1267,cs),
(841,1208,o),
(959,1142,o),
(1145,1142,cs),
(1366,1142,o),
(1487,1255,o),
(1523,1311,c),
(1510,1332,o),
(1503,1347,o),
(1456,1357,c),
(1413,1286,o),
(1268,1215,o),
(1145,1215,cs),
(1007,1215,o),
(916,1264,o),
(826,1316,cs),
(729,1372,o),
(629,1424,o),
(470,1424,cs),
(237,1424,o),
(83,1336,o),
(30,1261,c)
);
}
);
userData = {
RMXScaler = {
width = 200;
};
};
width = 1553;
}
);
subCategory = Spacing;
userData = {
RMXScaler = {
source = tildecomb;
};
};
},
{
glyphname = tildecomb.s2;
kernLeft = tilde;
kernRight = tilde;
lastChange = "2025-11-07 13:21:12 +0000";
layers = (
{
anchors = (
{
name = _top;
pos = (1226,1063);
},
{
name = math.ta;
pos = (1219,1064);
},
{
name = top;
pos = (1226,1531);
}
);
layerId = "B5042207-EFBA-41B6-8DFD-104A953B46A6";
shapes = (
{
closed = 1;
nodes = (
(114,1342,o),
(179,1258,o),
(313,1193,c),
(393,1222,o),
(559,1324,o),
(801,1324,cs),
(946,1324,o),
(1050,1279,o),
(1177,1249,cs),
(1324,1214,o),
(1512,1164,o),
(1764,1164,cs),
(2144,1164,o),
(2366,1334,o),
(2414,1401,c),
(2331,1504,o),
(2238,1569,o),
(2105,1619,c),
(2046,1569,o),
(1926,1513,o),
(1741,1513,cs),
(1559,1513,o),
(1429,1558,o),
(1305,1588,cs),
(1160,1623,o),
(1013,1679,o),
(778,1679,cs),
(412,1679,o),
(118,1564,o),
(30,1446,c)
);
}
);
userData = {
RMXScaler = {
width = 300;
};
};
width = 2444;
},
{
anchors = (
{
name = _top;
pos = (1155,1063);
},
{
name = math.ta;
pos = (1145,1063);
},
{
name = top;
pos = (1155,1405);
}
);
layerId = "B5195C1E-69AB-4BC6-9855-DF55601A0735";
shapes = (
{
closed = 1;
nodes = (
(58,1234,o),
(85,1220,o),
(113,1207,c),
(159,1245,o),
(394,1344,o),
(703,1344,cs),
(852,1344,o),
(1042,1302,o),
(1166,1256,cs),
(1351,1188,o),
(1499,1142,o),
(1728,1142,cs),
(2061,1142,o),
(2246,1257,o),
(2299,1311,c),
(2271,1327,o),
(2242,1344,o),
(2214,1360,c),
(2151,1291,o),
(1908,1215,o),
(1719,1215,cs),
(1511,1215,o),
(1361,1275,o),
(1241,1315,cs),
(1096,1363,o),
(916,1424,o),
(705,1424,cs),
(387,1424,o),
(111,1323,o),
(30,1247,c)
);
}
);
userData = {
RMXScaler = {
width = 300;
};
};
width = 2329;
}
);
subCategory = Spacing;
userData = {
RMXScaler = {
source = tildecomb;
};
};
},
{
glyphname = tildecomb.s3;
kernLeft = tilde;
kernRight = tilde;
lastChange = "2025-11-07 13:21:12 +0000";
layers = (
{
anchors = (
{
name = _top;
pos = (1606,1063);
},
{
name = math.ta;
pos = (1596,1064);
},
{
name = top;
pos = (1606,1531);
}
);
layerId = "B5042207-EFBA-41B6-8DFD-104A953B46A6";
shapes = (
{
closed = 1;
nodes = (
(122,1335,o),
(215,1274,o),
(367,1183,c),
(480,1212,o),
(708,1314,o),
(1033,1314,cs),
(1217,1314,o),
(1371,1279,o),
(1540,1239,cs),
(1741,1192,o),
(1979,1144,o),
(2327,1144,cs),
(2825,1144,o),
(3109,1326,o),
(3173,1391,c),
(3069,1500,o),
(2964,1560,o),
(2800,1629,c),
(2720,1559,o),
(2559,1503,o),
(2311,1503,cs),
(2061,1503,o),
(1886,1547,o),
(1713,1578,cs),
(1529,1611,o),
(1326,1669,o),
(1007,1669,cs),
(524,1669,o),
(142,1553,o),
(30,1456,c)
);
}
);
userData = {
RMXScaler = {
width = 400;
};
};
width = 3203;
},
{
anchors = (
{
name = _top;
pos = (1505,1063);
},
{
name = math.ta;
pos = (1492,1063);
},
{
name = top;
pos = (1505,1405);
}
);
layerId = "B5195C1E-69AB-4BC6-9855-DF55601A0735";
shapes = (
{
closed = 1;
nodes = (
(56,1234,o),
(81,1220,o),
(107,1207,c),
(239,1287,o),
(587,1357,o),
(915,1357,cs),
(1110,1357,o),
(1368,1304,o),
(1532,1258,cs),
(1739,1200,o),
(1878,1142,o),
(2256,1142,cs),
(2698,1142,o),
(2907,1257,o),
(2978,1311,c),
(2945,1321,o),
(2932,1350,o),
(2899,1360,c),
(2816,1292,o),
(2513,1212,o),
(2259,1212,cs),
(1980,1212,o),
(1793,1265,o),
(1616,1316,cs),
(1425,1371,o),
(1223,1424,o),
(904,1424,cs),
(439,1424,o),
(135,1322,o),
(30,1247,c)
);
}
);
userData = {
RMXScaler = {
width = 400;
};
};
width = 3008;
}
);
subCategory = Spacing;
userData = {
RMXScaler = {
source = tildecomb;
};
};
},
{
glyphname = tildecomb.s4;
kernLeft = tilde;
kernRight = tilde;
lastChange = "2025-11-07 13:21:12 +0000";
layers = (
{
anchors = (
{
name = _top;
pos = (1986,1063);
},
{
name = math.ta;
pos = (1972,1064);
},
{
name = top;
pos = (1986,1531);
}
);
layerId = "B5042207-EFBA-41B6-8DFD-104A953B46A6";
shapes = (
{
closed = 1;
nodes = (
(120,1335,o),
(240,1254,o),
(420,1193,c),
(567,1222,o),
(856,1324,o),
(1264,1324,cs),
(1498,1324,o),
(1691,1279,o),
(1903,1249,cs),
(2158,1213,o),
(2453,1154,o),
(2895,1154,cs),
(3502,1154,o),
(3850,1335,o),
(3933,1401,c),
(3817,1520,o),
(3692,1590,o),
(3496,1639,c),
(3391,1577,o),
(3186,1513,o),
(2881,1513,cs),
(2560,1513,o),
(2339,1557,o),
(2121,1588,cs),
(1882,1622,o),
(1633,1679,o),
(1237,1679,cs),
(642,1679,o),
(170,1564,o),
(30,1466,c)
);
}
);
userData = {
RMXScaler = {
width = 500;
};
};
width = 3963;
},
{
anchors = (
{
name = _top;
pos = (1854,1063);
},
{
name = math.ta;
pos = (1838,1063);
},
{
name = top;
pos = (1854,1405);
}
);
layerId = "B5195C1E-69AB-4BC6-9855-DF55601A0735";
shapes = (
{
closed = 1;
nodes = (
(57,1240,o),
(83,1224,o),
(110,1207,c),
(274,1286,o),
(703,1357,o),
(1116,1357,cs),
(1362,1357,o),
(1618,1314,o),
(1828,1267,cs),
(2087,1209,o),
(2327,1142,o),
(2795,1142,cs),
(3351,1142,o),
(3581,1259,o),
(3667,1311,c),
(3636,1341,o),
(3605,1360,o),
(3554,1370,c),
(3447,1300,o),
(3111,1215,o),
(2799,1215,cs),
(2454,1215,o),
(2224,1263,o),
(1998,1315,cs),
(1759,1370,o),
(1506,1424,o),
(1104,1424,cs),
(518,1424,o),
(160,1331,o),
(30,1257,c)
);
}
);
userData = {
RMXScaler = {
width = 500;
};
};
width = 3697;
}
);
subCategory = Spacing;
userData = {
RMXScaler = {
source = tildecomb;
};
};
},
{
glyphname = tildecomb.s5;
kernLeft = tilde;
kernRight = tilde;
lastChange = "2025-11-07 13:21:12 +0000";
layers = (
{
anchors = (
{
name = _top;
pos = (2365,1063);
},
{
name = math.ta;
pos = (2348,1064);
},
{
name = top;
pos = (2365,1531);
}
);
layerId = "B5042207-EFBA-41B6-8DFD-104A953B46A6";
shapes = (
{
closed = 1;
nodes = (
(124,1365,o),
(219,1284,o),
(373,1203,c),
(552,1232,o),
(966,1344,o),
(1496,1344,cs),
(1779,1344,o),
(2011,1279,o),
(2266,1259,cs),
(2582,1234,o),
(2933,1154,o),
(3464,1154,cs),
(4183,1154,o),
(4593,1346,o),
(4692,1411,c),
(4631,1520,o),
(4500,1600,o),
(4339,1669,c),
(4212,1617,o),
(3818,1523,o),
(3451,1523,cs),
(3054,1523,o),
(2784,1578,o),
(2530,1608,cs),
(2251,1641,o),
(1945,1709,o),
(1466,1709,cs),
(757,1709,o),
(196,1584,o),
(30,1486,c)
);
}
);
userData = {
RMXScaler = {
width = 600;
};
};
width = 4722;
},
{
anchors = (
{
name = _top;
pos = (2294,1063);
},
{
name = math.ta;
pos = (2274,1063);
},
{
name = top;
pos = (2294,1405);
}
);
layerId = "B5195C1E-69AB-4BC6-9855-DF55601A0735";
shapes = (
{
closed = 1;
nodes = (
(61,1244,o),
(72,1220,o),
(103,1207,c),
(295,1284,o),
(904,1357,o),
(1408,1357,cs),
(1700,1357,o),
(2033,1315,o),
(2290,1267,cs),
(2606,1208,o),
(2961,1142,o),
(3424,1142,cs),
(4083,1142,o),
(4470,1257,o),
(4577,1311,c),
(4555,1331,o),
(4532,1350,o),
(4510,1370,c),
(4378,1298,o),
(3796,1215,o),
(3429,1215,cs),
(3011,1215,o),
(2733,1264,o),
(2467,1315,cs),
(2180,1370,o),
(1876,1424,o),
(1393,1424,cs),
(691,1424,o),
(186,1331,o),
(30,1257,c)
);
}
);
userData = {
RMXScaler = {
width = 600;
};
};
width = 4607;
}
);
subCategory = Spacing;
userData = {
RMXScaler = {
source = tildecomb;
};
};
},
{
glyphname = tildecomb.s6;
kernLeft = tilde;
kernRight = tilde;
lastChange = "2025-11-07 13:21:12 +0000";
layers = (
{
anchors = (
{
name = _top;
pos = (2745,1113);
},
{
name = math.ta;
pos = (2725,1114);
},
{
name = top;
pos = (2745,1581);
}
);
layerId = "B5042207-EFBA-41B6-8DFD-104A953B46A6";
shapes = (
{
closed = 1;
nodes = (
(109,1358,o),
(208,1261,o),
(327,1163,c),
(540,1192,o),
(1154,1324,o),
(1727,1324,cs),
(2060,1324,o),
(2330,1279,o),
(2628,1219,cs),
(2981,1148,o),
(3402,1094,o),
(4032,1094,cs),
(4847,1094,o),
(5329,1302,o),
(5451,1371,c),
(5349,1457,o),
(5228,1543,o),
(5086,1629,c),
(4940,1578,o),
(4454,1473,o),
(4021,1473,cs),
(3559,1473,o),
(3245,1547,o),
(2938,1578,cs),
(2611,1611,o),
(2255,1699,o),
(1695,1699,cs),
(858,1699,o),
(219,1552,o),
(30,1456,c)
);
}
);
userData = {
RMXScaler = {
width = 700;
};
};
width = 5481;
},
{
anchors = (
{
name = _top;
pos = (2624,1063);
},
{
name = math.ta;
pos = (2601,1063);
},
{
name = top;
pos = (2624,1405);
}
);
layerId = "B5195C1E-69AB-4BC6-9855-DF55601A0735";
shapes = (
{
closed = 1;
nodes = (
(56,1244,o),
(81,1220,o),
(107,1197,c),
(334,1275,o),
(1006,1357,o),
(1589,1357,cs),
(1934,1357,o),
(2428,1303,o),
(2719,1256,cs),
(3094,1196,o),
(3334,1142,o),
(3982,1142,cs),
(4763,1142,o),
(5161,1264,o),
(5280,1315,c),
(5258,1337,o),
(5237,1358,o),
(5215,1380,c),
(5067,1311,o),
(4390,1215,o),
(3949,1215,cs),
(3464,1215,o),
(3142,1263,o),
(2825,1315,cs),
(2484,1371,o),
(2132,1424,o),
(1572,1424,cs),
(766,1424,o),
(216,1343,o),
(30,1267,c)
);
}
);
userData = {
RMXScaler = {
width = 700;
};
};
width = 5310;
}
);
subCategory = Spacing;
userData = {
RMXScaler = {
source = tildecomb;
};
};
},
{
glyphname = tildecomb.s7;
kernLeft = tilde;
kernRight = tilde;
lastChange = "2025-11-07 13:22:28 +0000";
layers = (
{
anchors = (
{
name = _top;
pos = (3124,1063);
},
{
name = math.ta;
pos = (3101,1064);
},
{
name = top;
pos = (3124,1531);
}
);
layerId = "B5042207-EFBA-41B6-8DFD-104A953B46A6";
shapes = (
{
closed = 1;
nodes = (
(59,1350,o),
(119,1236,o),
(229,1147,c),
(475,1176,o),
(1303,1354,o),
(1958,1354,cs),
(2341,1354,o),
(2652,1295,o),
(2991,1239,cs),
(3399,1172,o),
(3876,1084,o),
(4600,1084,cs),
(5543,1084,o),
(6078,1327,o),
(6210,1391,c),
(6192,1492,o),
(6118,1596,o),
(5972,1688,c),
(5798,1635,o),
(5076,1453,o),
(4590,1453,cs),
(4059,1453,o),
(3698,1557,o),
(3346,1588,cs),
(2960,1622,o),
(2560,1719,o),
(1925,1719,cs),
(971,1719,o),
(245,1562,o),
(30,1466,c)
);
}
);
userData = {
RMXScaler = {
width = 800;
};
};
width = 6240;
},
{
anchors = (
{
name = _top;
pos = (2883,1063);
},
{
name = math.ta;
pos = (2857,1063);
},
{
name = top;
pos = (2883,1405);
}
);
layerId = "B5195C1E-69AB-4BC6-9855-DF55601A0735";
shapes = (
{
closed = 1;
nodes = (
(60,1230,o),
(90,1214,o),
(120,1197,c),
(386,1277,o),
(1046,1357,o),
(1701,1357,cs),
(2095,1357,o),
(2559,1324,o),
(2895,1277,cs),
(3309,1219,o),
(3639,1142,o),
(4391,1142,cs),
(5262,1142,o),
(5780,1256,o),
(5925,1311,c),
(5900,1334,o),
(5875,1357,o),
(5850,1380,c),
(5681,1311,o),
(4903,1215,o),
(4398,1215,cs),
(3841,1215,o),
(3469,1264,o),
(3114,1315,cs),
(2731,1370,o),
(2326,1424,o),
(1682,1424,cs),
(753,1424,o),
(240,1322,o),
(30,1247,c)
);
}
);
userData = {
RMXScaler = {
width = 800;
};
};
width = 5955;
}
);
subCategory = Spacing;
userData = {
RMXScaler = {
source = tildecomb;
};
};
},
{
glyphname = widebar;
kernLeft = minus;
kernRight = minus;
lastChange = "2025-11-07 22:12:11 +0000";
layers = (
{
anchors = (
{
name = math.ta;
pos = (405,1077);
}
);
layerId = "B5195C1E-69AB-4BC6-9855-DF55601A0735";
shapes = (
{
closed = 1;
nodes = (
(810,1316,o),
(809,1356,o),
(807,1363,c),
(646,1363,o),
(85,1364,o),
(9,1352,c),
(3,1343,o),
(0,1304,o),
(0,1290,c),
(81,1296,o),
(751,1295,o),
(810,1292,c)
);
}
);
userData = {
com.nagwa.MATHPlugin.variants = {
hAssembly = (
(
widebar.left,
0,
0,
200
),
(
widebar.ext,
1,
200,
200
),
(
widebar.right,
0,
200,
0
)
);
};
};
width = 810;
},
{
anchors = (
{
name = math.ta;
pos = (456,1049);
}
);
layerId = "B5042207-EFBA-41B6-8DFD-104A953B46A6";
shapes = (
{
closed = 1;
nodes = (
(880,1247,o),
(879,1575,o),
(877,1582,c),
(566,1582,o),
(125,1573,o),
(49,1561,c),
(43,1552,o),
(40,1235,o),
(40,1221,c),
(121,1223,o),
(821,1226,o),
(880,1223,c)
);
}
);
userData = {
com.nagwa.MATHPlugin.variants = {
hAssembly = (
(
widebar.left,
0,
0,
200
),
(
widebar.ext,
1,
200,
200
),
(
widebar.right,
0,
200,
0
)
);
};
};
width = 920;
}
);
production = widebar;
subCategory = Spacing;
unicode = 773;
userData = {
com.nagwa.MATHPlugin.variants = {
hVariants = (
widebar,
widebar.s1
);
};
};
},
{
glyphname = hookabovecomb;
kernLeft = hookabovecomb;
kernRight = hookabovecomb;
lastChange = "2025-11-07 17:03:22 +0000";
layers = (
{
anchors = (
{
name = _top;
pos = (275,1063);
},
{
name = math.ta;
pos = (279,1058);
},
{
name = top;
pos = (275,1475);
}
);
layerId = "B5195C1E-69AB-4BC6-9855-DF55601A0735";
shapes = (
{
closed = 1;
nodes = (
(334,1236,o),
(461,1257,o),
(461,1357,cs),
(461,1455,o),
(386,1477,o),
(236,1477,cs),
(185,1477,o),
(105,1467,o),
(92,1465,c),
(103,1407,l),
(133,1412,o),
(208,1418,o),
(241,1418,cs),
(314,1418,o),
(395,1417,o),
(395,1367,cs),
(395,1297,o),
(298,1292,o),
(177,1292,c),
(177,1272,o),
(177,1185,o),
(177,1151,c),
(243,1155,l),
(244,1175,o),
(244,1209,o),
(244,1236,c)
);
}
);
width = 500;
},
{
anchors = (
{
name = _top;
pos = (367,1063);
},
{
name = math.ta;
pos = (365,1065);
},
{
name = top;
pos = (367,1540);
}
);
layerId = "B5042207-EFBA-41B6-8DFD-104A953B46A6";
shapes = (
{
closed = 1;
nodes = (
(522,1232,o),
(630,1275,o),
(630,1395,cs),
(630,1505,o),
(521,1540,o),
(371,1540,cs),
(293,1540,o),
(129,1519,o),
(104,1510,c),
(145,1358,l),
(175,1365,o),
(255,1379,o),
(313,1379,cs),
(346,1379,o),
(374,1379,o),
(374,1352,cs),
(374,1325,o),
(331,1317,o),
(240,1317,c),
(240,1297,o),
(240,1190,o),
(240,1156,c),
(453,1160,l),
(455,1178,o),
(456,1206,o),
(456,1221,c)
);
}
);
width = 700;
}
);
subCategory = Spacing;
unicode = 777;
},
{
glyphname = hookabovecomb.case;
lastChange = "2025-11-07 17:03:22 +0000";
layers = (
{
anchors = (
{
name = _top;
pos = (275,1291);
},
{
name = top;
pos = (275,1671);
}
);
layerId = "B5195C1E-69AB-4BC6-9855-DF55601A0735";
shapes = (
{
closed = 1;
nodes = (
(334,1432,o),
(461,1453,o),
(461,1553,cs),
(461,1651,o),
(386,1673,o),
(236,1673,cs),
(185,1673,o),
(105,1663,o),
(92,1661,c),
(103,1603,l),
(133,1608,o),
(208,1614,o),
(241,1614,cs),
(314,1614,o),
(395,1613,o),
(395,1563,cs),
(395,1493,o),
(298,1488,o),
(177,1488,c),
(176,1468,o),
(175,1381,o),
(175,1347,c),
(243,1351,l),
(244,1372,o),
(244,1405,o),
(244,1432,c)
);
}
);
width = 500;
},
{
anchors = (
{
name = _top;
pos = (367,1291);
},
{
name = top;
pos = (367,1748);
}
);
layerId = "B5042207-EFBA-41B6-8DFD-104A953B46A6";
shapes = (
{
closed = 1;
nodes = (
(522,1440,o),
(630,1483,o),
(630,1603,cs),
(630,1713,o),
(521,1748,o),
(371,1748,cs),
(293,1748,o),
(129,1727,o),
(104,1718,c),
(145,1566,l),
(175,1573,o),
(255,1587,o),
(313,1587,cs),
(346,1587,o),
(374,1587,o),
(374,1560,cs),
(374,1533,o),
(331,1525,o),
(240,1525,c),
(240,1494,o),
(240,1399,o),
(240,1364,c),
(453,1368,l),
(455,1386,o),
(456,1414,o),
(456,1429,c)
);
}
);
width = 700;
}
);
metricWidth = hookabovecomb;
subCategory = Spacing;
},
{
glyphname = breveinvertedcomb;
kernLeft = breveinvertedcomb;
kernRight = breveinvertedcomb;
lastChange = "2025-11-05 14:14:37 +0000";
layers = (
{
anchors = (
{
name = _top;
pos = (408.5,1063);
},
{
name = top;
pos = (408.5,1547);
}
);
layerId = "B5195C1E-69AB-4BC6-9855-DF55601A0735";
shapes = (
{
closed = 1;
nodes = (
(142,1144,o),
(173,1136,o),
(196,1136,c),
(196,1315,o),
(248,1477,o),
(410,1477,cs),
(547,1477,o),
(597,1397,o),
(614,1284,cs),
(620,1241,o),
(622,1192,o),
(622,1142,c),
(649,1142,o),
(667,1143,o),
(694,1149,c),
(694,1187,o),
(694,1222,o),
(689,1254,cs),
(660,1443,o),
(592,1547,o),
(408,1547,cs),
(241,1547,o),
(123,1393,o),
(123,1149,c)
);
}
);
width = 885;
},
{
anchors = (
{
name = _top;
pos = (412.5,1063);
},
{
name = top;
pos = (416,1544);
}
);
layerId = "B5042207-EFBA-41B6-8DFD-104A953B46A6";
shapes = (
{
closed = 1;
nodes = (
(118,1194,o),
(223,1173,o),
(345,1173,c),
(345,1298,o),
(379,1319,o),
(417,1319,cs),
(442,1319,o),
(465,1303,o),
(476,1247,cs),
(480,1228,o),
(482,1205,o),
(482,1175,c),
(553,1175,o),
(697,1177,o),
(757,1196,c),
(757,1230,o),
(755,1262,o),
(750,1291,cs),
(724,1454,o),
(623,1544,o),
(416,1544,cs),
(200,1544,o),
(68,1411,o),
(68,1217,c)
);
}
);
width = 885;
}
);
subCategory = Spacing;
unicode = 785;
},
{
glyphname = breveinvertedcomb.case;
lastChange = "2025-11-05 14:14:40 +0000";
layers = (
{
anchors = (
{
name = _top;
pos = (409,1291);
},
{
name = top;
pos = (409,1680);
}
);
layerId = "B5195C1E-69AB-4BC6-9855-DF55601A0735";
shapes = (
{
closed = 1;
nodes = (
(196,1519,o),
(248,1610,o),
(410,1610,cs),
(547,1610,o),
(600,1559,o),
(614,1488,cs),
(622,1446,o),
(622,1396,o),
(622,1346,c),
(649,1346,o),
(667,1347,o),
(694,1353,c),
(694,1391,o),
(693,1426,o),
(689,1458,cs),
(670,1610,o),
(592,1680,o),
(408,1680,cs),
(241,1680,o),
(123,1597,o),
(123,1353,c),
(142,1348,o),
(173,1340,o),
(196,1340,c)
);
}
);
width = 885;
},
{
anchors = (
{
name = _top;
pos = (453,1291);
},
{
name = top;
pos = (453,1742);
}
);
layerId = "B5042207-EFBA-41B6-8DFD-104A953B46A6";
shapes = (
{
closed = 1;
nodes = (
(152,1390,o),
(257,1369,o),
(379,1369,c),
(379,1494,o),
(413,1515,o),
(451,1515,cs),
(476,1515,o),
(499,1499,o),
(510,1443,cs),
(514,1424,o),
(516,1401,o),
(516,1371,c),
(587,1371,o),
(731,1373,o),
(791,1392,c),
(791,1426,o),
(789,1458,o),
(784,1487,cs),
(758,1650,o),
(657,1740,o),
(450,1740,cs),
(234,1740,o),
(102,1607,o),
(102,1413,c)
);
}
);
width = 885;
}
);
subCategory = Spacing;
},
{
glyphname = widebarbelow;
kernLeft = minus;
kernRight = minus;
lastChange = "2025-11-07 21:20:53 +0000";
layers = (
{
layerId = "B5195C1E-69AB-4BC6-9855-DF55601A0735";
shapes = (
{
closed = 1;
nodes = (
(751,-242,o),
(81,-243,o),
(0,-237,c),
(0,-251,o),
(3,-290,o),
(9,-299,c),
(85,-311,o),
(646,-310,o),
(807,-310,c),
(809,-303,o),
(810,-263,o),
(810,-239,c)
);
}
);
userData = {
com.nagwa.MATHPlugin.variants = {
hAssembly = (
(
widebarbelow.left,
0,
0,
200
),
(
widebarbelow.ext,
1,
200,
200
),
(
widebarbelow.right,
0,
200,
0
)
);
};
};
width = 810;
},
{
layerId = "B5042207-EFBA-41B6-8DFD-104A953B46A6";
shapes = (
{
closed = 1;
nodes = (
(821,-433,o),
(121,-430,o),
(40,-428,c),
(40,-442,o),
(43,-759,o),
(49,-768,c),
(125,-780,o),
(566,-789,o),
(877,-789,c),
(879,-782,o),
(880,-454,o),
(880,-430,c)
);
}
);
userData = {
com.nagwa.MATHPlugin.variants = {
hAssembly = (
(
widebarbelow.left,
0,
0,
200
),
(
widebarbelow.ext,
1,
200,
200
),
(
widebarbelow.right,
0,
200,
0
)
);
};
};
width = 920;
}
);
metricLeft = "=widebar";
metricRight = "=widebar";
production = widebarbelow;
subCategory = Spacing;
unicode = 818;
userData = {
com.nagwa.MATHPlugin.variants = {
hVariants = (
widebarbelow,
widebarbelow.s1
);
};
};
},
{
glyphname = micro;
kernLeft = micro;
kernRight = micro;
lastChange = "2024-11-28 19:43:00 +0000";
layers = (
{
layerId = "B5195C1E-69AB-4BC6-9855-DF55601A0735";
shapes = (
{
closed = 1;
nodes = (
(154,-369,o),
(187,-367,o),
(218,-360,c),
(214,-319,o),
(203,-120,o),
(198,21,cs),
(190,253,o),
(185,400,o),
(185,654,c),
(102,626,l),
(102,210,o),
(121,-241,o),
(127,-369,c)
);
},
{
pos = (-30,0);
ref = u;
}
);
width = 1053;
},
{
layerId = "B5042207-EFBA-41B6-8DFD-104A953B46A6";
shapes = (
{
closed = 1;
nodes = (
(234,-431,o),
(381,-422,o),
(461,-411,c),
(448,-282,o),
(437,-120,o),
(437,21,cs),
(437,253,o),
(440,480,o),
(451,719,c),
(50,757,l),
(50,550,o),
(81,-64,o),
(121,-431,c)
);
},
{
pos = (-6,0);
ref = u;
}
);
width = 1154;
}
);
unicode = 181;
},
{
glyphname = percent;
kernLeft = percent;
kernRight = percent;
lastChange = "2024-11-28 19:43:00 +0000";
layers = (
{
layerId = "B5042207-EFBA-41B6-8DFD-104A953B46A6";
shapes = (
{
closed = 1;
nodes = (
(480,241,o),
(969,764,o),
(1301,1255,c),
(1261,1313,o),
(1173,1411,o),
(1087,1450,c),
(807,1018,o),
(278,397,o),
(-30,108,c),
(15,68,o),
(139,-18,o),
(184,-48,c)
);
},
{
closed = 1;
nodes = (
(987,302,o),
(958,336,o),
(958,388,cs),
(958,439,o),
(1006,461,o),
(1050,461,cs),
(1089,461,o),
(1128,441,o),
(1128,383,cs),
(1128,332,o),
(1073,302,o),
(1038,302,cs)
);
},
{
closed = 1;
nodes = (
(1223,85,o),
(1341,188,o),
(1341,383,cs),
(1341,557,o),
(1222,663,o),
(1050,663,cs),
(852,663,o),
(735,519,o),
(735,338,cs),
(735,160,o),
(872,85,o),
(1012,85,cs)
);
},
{
closed = 1;
nodes = (
(487,726,o),
(643,858,o),
(643,1041,cs),
(643,1236,o),
(521,1352,o),
(333,1352,cs),
(134,1352,o),
(-6,1214,o),
(-6,1018,cs),
(-6,845,o),
(137,726,o),
(316,726,cs)
);
},
{
closed = 1;
nodes = (
(287,971,o),
(239,990,o),
(239,1043,cs),
(239,1100,o),
(264,1138,o),
(328,1138,cs),
(386,1138,o),
(412,1102,o),
(412,1058,cs),
(412,991,o),
(380,971,o),
(324,971,cs)
);
}
);
width = 1385;
},
{
layerId = "B5195C1E-69AB-4BC6-9855-DF55601A0735";
shapes = (
{
closed = 1;
nodes = (
(347,187,o),
(1036,1179,o),
(1152,1379,c),
(1137,1394,o),
(1110,1408,o),
(1092,1415,c),
(949,1161,o),
(401,385,o),
(144,29,c),
(157,17,o),
(176,5,o),
(192,-5,c)
);
},
{
closed = 1;
nodes = (
(848,193,o),
(796,270,o),
(796,376,cs),
(796,463,o),
(865,538,o),
(952,538,cs),
(1059,538,o),
(1120,472,o),
(1120,373,cs),
(1120,253,o),
(1066,193,o),
(964,193,cs)
);
},
{
closed = 1;
nodes = (
(1079,137,o),
(1188,224,o),
(1188,364,cs),
(1188,495,o),
(1115,605,o),
(956,605,cs),
(842,605,o),
(733,505,o),
(733,375,cs),
(733,223,o),
(819,137,o),
(968,137,cs)
);
},
{
closed = 1;
nodes = (
(515,821,o),
(632,887,o),
(632,1041,cs),
(632,1174,o),
(549,1258,o),
(416,1258,cs),
(296,1258,o),
(184,1186,o),
(184,1045,cs),
(184,918,o),
(265,821,o),
(402,821,cs)
);
},
{
closed = 1;
nodes = (
(301,880,o),
(249,940,o),
(249,1050,cs),
(249,1151,o),
(330,1203,o),
(425,1203,cs),
(504,1203,o),
(565,1140,o),
(565,1034,cs),
(565,937,o),
(501,880,o),
(412,880,cs)
);
}
);
width = 1385;
}
);
unicode = 37;
},
{
glyphname = perthousand;
kernLeft = percent;
kernRight = percent;
lastChange = "2024-11-28 19:43:00 +0000";
layers = (
{
layerId = "B5195C1E-69AB-4BC6-9855-DF55601A0735";
shapes = (
{
closed = 1;
nodes = (
(321,308,o),
(1223,1110,o),
(1382,1277,c),
(1371,1295,o),
(1348,1315,o),
(1332,1326,c),
(1134,1112,o),
(419,486,o),
(86,199,c),
(96,185,o),
(112,168,o),
(125,155,c)
);
},
{
closed = 1;
nodes = (
(650,79,o),
(598,156,o),
(598,262,cs),
(598,349,o),
(667,424,o),
(754,424,cs),
(861,424,o),
(922,358,o),
(922,259,cs),
(922,139,o),
(868,79,o),
(766,79,cs)
);
},
{
closed = 1;
nodes = (
(881,23,o),
(990,110,o),
(990,250,cs),
(990,381,o),
(917,491,o),
(758,491,cs),
(644,491,o),
(535,391,o),
(535,261,cs),
(535,109,o),
(621,23,o),
(770,23,cs)
);
},
{
closed = 1;
nodes = (
(555,821,o),
(672,887,o),
(672,1041,cs),
(672,1174,o),
(589,1258,o),
(456,1258,cs),
(336,1258,o),
(224,1186,o),
(224,1045,cs),
(224,918,o),
(305,821,o),
(442,821,cs)
);
},
{
closed = 1;
nodes = (
(341,880,o),
(289,940,o),
(289,1050,cs),
(289,1151,o),
(370,1203,o),
(465,1203,cs),
(544,1203,o),
(605,1140,o),
(605,1034,cs),
(605,937,o),
(541,880,o),
(452,880,cs)
);
},
{
closed = 1;
nodes = (
(1448,359,o),
(1521,469,o),
(1521,600,cs),
(1521,740,o),
(1412,827,o),
(1301,827,cs),
(1152,827,o),
(1066,741,o),
(1066,589,cs),
(1066,459,o),
(1175,359,o),
(1289,359,cs)
);
},
{
closed = 1;
nodes = (
(1198,426,o),
(1129,501,o),
(1129,588,cs),
(1129,694,o),
(1181,771,o),
(1297,771,cs),
(1399,771,o),
(1453,711,o),
(1453,591,cs),
(1453,492,o),
(1392,426,o),
(1285,426,cs)
);
}
);
width = 1600;
},
{
layerId = "B5042207-EFBA-41B6-8DFD-104A953B46A6";
shapes = (
{
closed = 1;
nodes = (
(455,428,o),
(1171,903,o),
(1598,1223,c),
(1570,1288,o),
(1488,1352,o),
(1411,1408,c),
(1048,1092,o),
(356,666,o),
(-4,447,c),
(9,398,o),
(68,245,o),
(106,206,c)
);
},
{
closed = 1;
nodes = (
(736,93,o),
(707,127,o),
(707,179,cs),
(707,230,o),
(755,252,o),
(799,252,cs),
(838,252,o),
(877,232,o),
(877,174,cs),
(877,123,o),
(822,93,o),
(787,93,cs)
);
},
{
closed = 1;
nodes = (
(972,-124,o),
(1090,-21,o),
(1090,174,cs),
(1090,348,o),
(971,454,o),
(799,454,cs),
(601,454,o),
(484,310,o),
(484,129,cs),
(484,-49,o),
(621,-124,o),
(761,-124,cs)
);
},
{
closed = 1;
nodes = (
(524,810,o),
(660,924,o),
(660,1083,cs),
(660,1252,o),
(554,1352,o),
(391,1352,cs),
(219,1352,o),
(97,1232,o),
(97,1063,cs),
(97,913,o),
(221,810,o),
(376,810,cs)
);
},
{
closed = 1;
nodes = (
(351,1022,o),
(310,1038,o),
(310,1084,cs),
(310,1134,o),
(331,1167,o),
(387,1167,cs),
(437,1167,o),
(459,1135,o),
(459,1097,cs),
(459,1039,o),
(432,1022,o),
(383,1022,cs)
);
},
{
closed = 1;
nodes = (
(1584,222,o),
(1703,328,o),
(1703,502,cs),
(1703,697,o),
(1605,800,o),
(1394,800,cs),
(1254,800,o),
(1097,725,o),
(1097,547,cs),
(1097,366,o),
(1214,222,o),
(1412,222,cs)
);
},
{
closed = 1;
nodes = (
(1368,424,o),
(1320,446,o),
(1320,497,cs),
(1320,549,o),
(1349,583,o),
(1400,583,cs),
(1435,583,o),
(1490,553,o),
(1490,502,cs),
(1490,444,o),
(1451,424,o),
(1412,424,cs)
);
}
);
width = 1700;
}
);
unicode = 8240;
},
{
category = Symbol;
glyphname = numbersign;
kernLeft = numbersign;
kernRight = numbersign;
lastChange = "2024-11-28 04:23:02 +0000";
layers = (
{
layerId = "B5042207-EFBA-41B6-8DFD-104A953B46A6";
shapes = (
{
closed = 1;
nodes = (
(262,796,o),
(598,808,o),
(927,821,cs),
(1129,829,o),
(1333,840,o),
(1497,850,c),
(1506,896,o),
(1520,1130,o),
(1520,1176,c),
(1318,1171,o),
(1038,1158,o),
(749,1142,cs),
(510,1129,o),
(206,1112,o),
(54,1103,c),
(52,1081,o),
(41,864,o),
(41,790,c)
);
},
{
closed = 1;
nodes = (
(1407,391,o),
(1439,622,o),
(1439,668,c),
(1259,683,o),
(1068,689,o),
(879,689,cs),
(741,689,o),
(605,687,o),
(473,682,cs),
(318,676,o),
(170,669,o),
(36,662,c),
(31,632,o),
(14,419,o),
(14,378,c),
(117,386,o),
(236,389,o),
(364,389,cs),
(493,389,o),
(632,386,o),
(771,380,cs),
(986,371,o),
(1204,358,o),
(1397,345,c)
);
},
{
closed = 1;
nodes = (
(360,21,o),
(611,39,o),
(657,48,c),
(657,515,o),
(698,1175,o),
(721,1475,c),
(602,1475,o),
(420,1472,o),
(386,1465,c),
(344,1150,o),
(298,668,o),
(298,21,c)
);
},
{
closed = 1;
nodes = (
(904,51,o),
(1168,91,o),
(1215,101,c),
(1178,421,o),
(1156,801,o),
(1156,1132,cs),
(1156,1258,o),
(1159,1376,o),
(1166,1482,c),
(1125,1482,o),
(894,1467,o),
(865,1462,c),
(845,1228,o),
(836,985,o),
(836,740,cs),
(836,510,o),
(844,278,o),
(858,51,c)
);
}
);
width = 1511;
},
{
layerId = "B5195C1E-69AB-4BC6-9855-DF55601A0735";
shapes = (
{
closed = 1;
nodes = (
(242,900,o),
(463,909,o),
(694,920,cs),
(946,932,o),
(1211,942,o),
(1441,942,c),
(1448,971,o),
(1450,1005,o),
(1450,1038,c),
(1214,1038,o),
(985,1023,o),
(757,1008,cs),
(532,993,o),
(306,978,o),
(74,978,c),
(70,958,o),
(67,929,o),
(67,900,c)
);
},
{
closed = 1;
nodes = (
(1423,494,o),
(1427,531,o),
(1427,577,c),
(1268,577,o),
(1107,579,o),
(944,582,cs),
(781,585,o),
(616,587,o),
(451,587,cs),
(312,587,o),
(173,586,o),
(34,581,c),
(29,552,o),
(26,526,o),
(26,496,c),
(91,498,o),
(162,499,o),
(239,499,cs),
(415,499,o),
(617,499,o),
(820,491,cs),
(1027,483,o),
(1234,476,o),
(1417,476,c)
);
},
{
closed = 1;
nodes = (
(496,-5,o),
(530,-3,o),
(556,2,c),
(556,468,o),
(556,1091,o),
(574,1477,c),
(550,1477,o),
(528,1476,o),
(499,1470,c),
(469,1005,o),
(465,330,o),
(465,-5,c)
);
},
{
closed = 1;
nodes = (
(1021,84,o),
(1050,88,o),
(1074,92,c),
(1055,364,o),
(1048,690,o),
(1048,986,cs),
(1048,1170,o),
(1050,1343,o),
(1055,1484,c),
(1014,1484,o),
(995,1482,o),
(966,1477,c),
(958,1311,o),
(954,1125,o),
(954,931,cs),
(954,653,o),
(963,358,o),
(986,84,c)
);
}
);
width = 1511;
}
);
subCategory = Other;
unicode = 35;
},
{
glyphname = emptyset;
lastChange = "2024-11-28 19:43:00 +0000";
layers = (
{
layerId = "B5195C1E-69AB-4BC6-9855-DF55601A0735";
shapes = (
{
closed = 1;
nodes = (
(815,-51,o),
(1055,222,o),
(1055,621,cs),
(1055,1054,o),
(895,1320,o),
(556,1320,cs),
(299,1320,o),
(80,1052,o),
(80,633,cs),
(80,258,o),
(264,-51,o),
(556,-51,cs)
);
},
{
closed = 1;
nodes = (
(332,27,o),
(168,304,o),
(168,622,cs),
(168,989,o),
(335,1239,o),
(563,1239,cs),
(846,1239,o),
(973,998,o),
(973,609,cs),
(973,264,o),
(775,27,o),
(547,27,cs)
);
},
{
closed = 1;
nodes = (
(758,1481,c),
(645,901,o),
(419,258,o),
(235,-166,c),
(250,-172,o),
(293,-181,o),
(315,-182,c),
(460,150,o),
(691,805,o),
(848,1461,c),
(829,1472,o),
(790,1480,o)
);
}
);
width = 1135;
},
{
layerId = "B5042207-EFBA-41B6-8DFD-104A953B46A6";
shapes = (
{
closed = 1;
nodes = (
(1026,-111,o),
(1339,180,o),
(1339,645,cs),
(1339,1084,o),
(1017,1390,o),
(683,1390,cs),
(392,1390,o),
(44,1082,o),
(44,639,cs),
(44,193,o),
(343,-111,o),
(683,-111,cs)
);
},
{
closed = 1;
nodes = (
(506,240,o),
(433,367,o),
(430,640,cs),
(427,878,o),
(568,1105,o),
(707,1105,cs),
(887,1105,o),
(974,1005,o),
(979,641,cs),
(981,467,o),
(852,240,o),
(690,240,cs)
);
},
{
closed = 1;
nodes = (
(782,1521,c),
(703,1149,o),
(489,269,o),
(313,-157,c),
(374,-201,o),
(472,-230,o),
(555,-243,c),
(745,138,o),
(853,774,o),
(1020,1466,c),
(973,1480,o),
(853,1505,o)
);
}
);
width = 1383;
}
);
metricLeft = equal;
metricRight = equal;
unicode = 8709;
},
{
glyphname = element;
lastChange = "2024-11-28 19:43:00 +0000";
layers = (
{
layerId = "B5195C1E-69AB-4BC6-9855-DF55601A0735";
shapes = (
{
closed = 1;
nodes = (
(844,30,o),
(939,104,o),
(996,151,c),
(982,173,o),
(943,189,o),
(924,206,c),
(916,206,o),
(853,104,o),
(578,104,cs),
(399,104,o),
(175,228,o),
(175,499,c),
(273,513,o),
(401,529,o),
(513,529,cs),
(578,530,ls),
(792,533,o),
(878,525,o),
(918,525,c),
(929,551,o),
(918,578,o),
(918,604,c),
(586,604,ls),
(466,604,o),
(425,608,o),
(169,579,c),
(175,850,o),
(364,984,o),
(584,984,cs),
(776,984,o),
(905,961,o),
(949,916,c),
(968,943,o),
(981,966,o),
(1000,993,c),
(938,1050,o),
(838,1070,o),
(623,1070,cs),
(592,1070,ls),
(307,1068,o),
(88,878,o),
(88,569,cs),
(88,230,o),
(282,30,o),
(572,30,cs)
);
}
);
width = 1050;
},
{
layerId = "B5042207-EFBA-41B6-8DFD-104A953B46A6";
shapes = (
{
closed = 1;
nodes = (
(1080,-17,o),
(1164,106,o),
(1192,152,c),
(1178,174,o),
(1058,326,o),
(1039,343,c),
(1031,343,o),
(1007,260,o),
(694,255,cs),
(606,254,o),
(529,310,o),
(465,403,c),
(594,409,o),
(565,409,o),
(677,409,cs),
(908,409,ls),
(1082,409,o),
(1074,404,o),
(1114,404,c),
(1124,489,o),
(1114,575,o),
(1114,660,c),
(714,660,ls),
(594,660,o),
(830,661,o),
(459,660,c),
(506,752,o),
(586,793,o),
(661,798,cs),
(986,820,o),
(1050,775,o),
(1094,730,c),
(1113,757,o),
(1177,967,o),
(1196,994,c),
(1133,1028,o),
(1034,1071,o),
(829,1071,cs),
(720,1071,ls),
(435,1071,o),
(124,878,o),
(124,569,cs),
(124,230,o),
(410,-17,o),
(700,-17,cs)
);
}
);
width = 1246;
}
);
unicode = 8712;
},
{
glyphname = setminus;
lastChange = "2024-11-28 19:43:00 +0000";
layers = (
{
layerId = "B5195C1E-69AB-4BC6-9855-DF55601A0735";
shapes = (
{
closed = 1;
nodes = (
(592,-40,c),
(492,141,o),
(164,1181,o),
(120,1338,c),
(101,1338,o),
(60,1328,o),
(50,1324,c),
(219,783,o),
(327,381,o),
(520,-77,c),
(533,-73,o),
(576,-55,o)
);
}
);
width = 642;
},
{
layerId = "B5042207-EFBA-41B6-8DFD-104A953B46A6";
shapes = (
{
closed = 1;
nodes = (
(853,31,c),
(634,583,o),
(557,815,o),
(389,1477,c),
(249,1467,o),
(99,1426,o),
(50,1366,c),
(174,821,o),
(301,417,o),
(525,-121,c),
(631,-96,o),
(740,-46,o)
);
}
);
width = 903;
}
);
tags = (
isempty
);
unicode = 8726;
},
{
glyphname = containsasmember;
lastChange = "2025-11-11 13:23:50 +0000";
layers = (
{
layerId = "B5195C1E-69AB-4BC6-9855-DF55601A0735";
shapes = (
{
closed = 1;
nodes = (
(112,1110,o),
(212,1130,o),
(337,1130,cs),
(368,1130,ls),
(653,1128,o),
(872,938,o),
(872,629,cs),
(872,290,o),
(678,90,o),
(388,90,cs),
(166,90,o),
(111,164,o),
(54,211,c),
(68,233,o),
(107,249,o),
(126,266,c),
(134,266,o),
(197,164,o),
(382,164,cs),
(561,164,o),
(785,288,o),
(785,559,c),
(687,573,o),
(559,589,o),
(447,589,cs),
(382,590,ls),
(258,590,o),
(172,585,o),
(132,585,c),
(121,611,o),
(132,638,o),
(132,664,c),
(374,664,ls),
(494,664,o),
(535,668,o),
(791,639,c),
(785,910,o),
(596,1044,o),
(376,1044,cs),
(297,1044,o),
(145,1021,o),
(101,976,c),
(82,1003,o),
(69,1026,o),
(50,1053,c)
);
}
);
width = 960;
},
{
layerId = "B5042207-EFBA-41B6-8DFD-104A953B46A6";
shapes = (
{
closed = 1;
nodes = (
(112,1051,o),
(212,1071,o),
(337,1071,cs),
(446,1071,ls),
(731,1071,o),
(1042,878,o),
(1042,569,cs),
(1042,230,o),
(756,-17,o),
(466,-17,cs),
(166,-17,o),
(82,106,o),
(54,152,c),
(68,174,o),
(188,326,o),
(207,343,c),
(215,343,o),
(260,255,o),
(472,255,cs),
(560,255,o),
(637,335,o),
(701,403,c),
(572,409,o),
(601,409,o),
(489,409,cs),
(288,409,ls),
(164,409,o),
(172,404,o),
(132,404,c),
(122,489,o),
(132,575,o),
(132,660,c),
(452,660,ls),
(572,660,o),
(336,661,o),
(707,660,c),
(660,752,o),
(581,798,o),
(505,798,cs),
(349,798,o),
(196,775,o),
(152,730,c),
(133,757,o),
(69,967,o),
(50,994,c)
);
}
);
width = 1166;
}
);
metricLeft = "=|element";
metricRight = "=|element";
production = uni220B;
unicode = 8715;
},
{
glyphname = complement;
lastChange = "2024-11-28 19:43:00 +0000";
layers = (
{
anchors = (
{
name = bottom;
pos = (624,0);
}
);
layerId = "B5195C1E-69AB-4BC6-9855-DF55601A0735";
shapes = (
{
closed = 1;
nodes = (
(807,312,o),
(772,313,o),
(734,298,c),
(734,195,o),
(742,72,o),
(556,72,cs),
(245,72,o),
(213,323,o),
(213,662,cs),
(213,1103,o),
(269,1241,o),
(563,1241,cs),
(638,1241,o),
(733,1158,o),
(733,1010,c),
(763,1010,o),
(815,1028,o),
(816,1034,c),
(814,1215,o),
(733,1321,o),
(575,1326,cs),
(124,1340,o),
(120,1034,o),
(120,676,cs),
(120,313,o),
(133,-7,o),
(552,-7,cs),
(779,-7,o),
(807,110,o),
(834,293,c)
);
}
);
width = 914;
},
{
anchors = (
{
name = bottom;
pos = (604,0);
}
);
layerId = "B5042207-EFBA-41B6-8DFD-104A953B46A6";
shapes = (
{
closed = 1;
nodes = (
(967,551,o),
(833,542,o),
(728,512,c),
(712,410,o),
(711,322,o),
(607,322,cs),
(470,322,o),
(461,478,o),
(461,755,cs),
(461,1001,o),
(480,1106,o),
(604,1107,cs),
(695,1108,o),
(711,929,o),
(717,908,c),
(808,908,o),
(915,897,o),
(1050,951,c),
(1024,1244,o),
(915,1444,o),
(511,1444,cs),
(306,1444,o),
(70,1398,o),
(80,694,cs),
(88,144,o),
(268,-27,o),
(662,-27,cs),
(921,-27,o),
(1055,144,o),
(1068,518,c)
);
}
);
width = 1112;
}
);
metricRight = equal;
tags = (
isempty
);
unicode = 8705;
},
{
glyphname = existential;
lastChange = "2025-11-11 13:25:31 +0000";
layers = (
{
anchors = (
{
name = bottom;
pos = (439,0);
},
{
name = math.ta;
pos = (439,1311);
},
{
name = ogonek;
pos = (230,1);
},
{
name = top;
pos = (439,1311);
},
{
name = topright;
pos = (898,1291);
}
);
layerId = "B5195C1E-69AB-4BC6-9855-DF55601A0735";
shapes = (
{
closed = 1;
nodes = (
(254,0,o),
(393,5,o),
(553,5,cs),
(616,5,o),
(698,4,o),
(761,2,c),
(768,197,o),
(771,398,o),
(771,580,cs),
(771,946,o),
(767,1179,o),
(761,1251,c),
(422,1289,o),
(135,1298,o),
(80,1298,c),
(80,1264,o),
(81,1251,o),
(84,1224,c),
(675,1197,l),
(680,1109,o),
(683,842,o),
(683,757,c),
(610,760,o),
(310,772,o),
(218,772,c),
(210,694,l),
(260,694,o),
(599,693,o),
(685,690,c),
(685,636,o),
(685,223,o),
(685,77,c),
(645,79,o),
(558,80,o),
(505,80,cs),
(346,80,o),
(160,73,o),
(84,67,c),
(86,39,o),
(92,9,o),
(97,-9,c)
);
}
);
width = 921;
},
{
anchors = (
{
name = bottom;
pos = (407,0);
},
{
name = math.ta;
pos = (449,1321);
},
{
name = ogonek;
pos = (213,0);
},
{
name = top;
pos = (407,1321);
},
{
name = topright;
pos = (866,1291);
}
);
layerId = "B5042207-EFBA-41B6-8DFD-104A953B46A6";
shapes = (
{
closed = 1;
nodes = (
(213,-7,o),
(335,1,o),
(457,8,cs),
(579,15,o),
(702,23,o),
(824,31,c),
(833,266,o),
(837,483,o),
(837,670,cs),
(837,945,o),
(829,1153,o),
(824,1251,c),
(435,1328,o),
(99,1330,o),
(44,1330,c),
(44,1226,o),
(52,1123,o),
(62,1009,c),
(435,978,l),
(438,961,o),
(438,874,o),
(438,855,c),
(359,855,o),
(277,858,o),
(190,860,c),
(197,540,l),
(241,543,o),
(412,557,o),
(447,557,c),
(449,530,o),
(452,432,o),
(452,410,c),
(442,410,o),
(351,410,o),
(263,410,cs),
(181,410,o),
(101,404,o),
(52,400,c),
(52,267,o),
(79,22,o),
(91,-15,c)
);
}
);
width = 881;
}
);
metricLeft = equal;
unicode = 8707;
},
{
glyphname = theredoesnotexist;
lastChange = "2024-11-28 19:43:00 +0000";
layers = (
{
anchors = (
{
name = bottom;
pos = (439,0);
},
{
name = math.ta;
pos = (439,1311);
},
{
name = ogonek;
pos = (230,1);
},
{
name = top;
pos = (439,1311);
},
{
name = topright;
pos = (898,1291);
}
);
layerId = "B5195C1E-69AB-4BC6-9855-DF55601A0735";
shapes = (
{
closed = 1;
nodes = (
(254,0,o),
(393,5,o),
(553,5,cs),
(616,5,o),
(698,4,o),
(761,2,c),
(768,197,o),
(771,398,o),
(771,580,cs),
(771,946,o),
(767,1179,o),
(761,1251,c),
(422,1289,o),
(135,1298,o),
(80,1298,c),
(80,1264,o),
(81,1251,o),
(84,1224,c),
(675,1197,l),
(680,1109,o),
(683,842,o),
(683,757,c),
(610,760,o),
(310,772,o),
(218,772,c),
(210,694,l),
(260,694,o),
(599,693,o),
(685,690,c),
(685,636,o),
(685,223,o),
(685,77,c),
(645,79,o),
(558,80,o),
(505,80,cs),
(346,80,o),
(160,73,o),
(84,67,c),
(86,39,o),
(92,9,o),
(97,-9,c)
);
},
{
closed = 1;
nodes = (
(552,1541,c),
(520,964,o),
(397,237,o),
(274,-215,c),
(291,-218,o),
(333,-221,o),
(354,-220,c),
(453,129,o),
(580,861,o),
(644,1533,c),
(623,1542,o),
(583,1544,o)
);
}
);
width = 851;
},
{
anchors = (
{
name = bottom;
pos = (507,0);
},
{
name = math.ta;
pos = (549,1321);
},
{
name = ogonek;
pos = (313,0);
},
{
name = top;
pos = (507,1321);
},
{
name = topright;
pos = (966,1291);
}
);
layerId = "B5042207-EFBA-41B6-8DFD-104A953B46A6";
shapes = (
{
closed = 1;
nodes = (
(213,-7,o),
(435,1,o),
(557,8,cs),
(679,15,o),
(802,23,o),
(924,31,c),
(933,266,o),
(937,483,o),
(937,670,cs),
(937,945,o),
(929,1153,o),
(924,1251,c),
(535,1328,o),
(99,1330,o),
(44,1330,c),
(44,1226,o),
(52,1123,o),
(62,1009,c),
(535,978,l),
(538,961,o),
(538,874,o),
(538,855,c),
(459,855,o),
(260,858,o),
(173,860,c),
(180,540,l),
(224,543,o),
(512,557,o),
(547,557,c),
(549,530,o),
(552,432,o),
(552,410,c),
(542,410,o),
(451,410,o),
(363,410,cs),
(281,410,o),
(101,404,o),
(52,400,c),
(52,267,o),
(79,22,o),
(91,-15,c)
);
},
{
closed = 1;
nodes = (
(348,1573,c),
(328,1203,o),
(246,246,o),
(152,-181,c),
(193,-266,o),
(244,-293,o),
(336,-296,c),
(445,86,o),
(539,802,o),
(525,1489,c),
(477,1532,o),
(486,1572,o)
);
}
);
width = 981;
}
);
metricLeft = equal;
metricRight = equal;
unicode = 8708;
},
{
glyphname = universal;
lastChange = "2024-11-28 19:43:00 +0000";
layers = (
{
anchors = (
{
name = bottom;
pos = (575,147);
},
{
name = math.ta;
pos = (575,147);
},
{
name = ogonek;
pos = (907,1475);
},
{
name = top;
pos = (562,1470);
}
);
layerId = "B5195C1E-69AB-4BC6-9855-DF55601A0735";
shapes = (
{
closed = 1;
nodes = (
(120,1264,o),
(64,1247,o),
(50,1237,c),
(192,711,o),
(378,252,o),
(568,-79,c),
(741,245,o),
(960,990,o),
(998,1237,c),
(974,1245,o),
(929,1261,o),
(911,1265,c),
(904,1210,o),
(816,851,o),
(778,728,c),
(683,728,o),
(384,712,o),
(294,728,c),
(221,939,o),
(151,1206,o),
(135,1265,c)
);
},
{
closed = 1;
nodes = (
(410,639,o),
(645,660,o),
(763,657,c),
(728,529,o),
(620,213,o),
(562,86,c),
(516,183,o),
(390,482,o),
(322,657,c)
);
}
);
width = 1048;
},
{
anchors = (
{
name = bottom;
pos = (753,143);
},
{
name = math.ta;
pos = (753,143);
},
{
name = ogonek;
pos = (1260,1463);
},
{
name = top;
pos = (667,1470);
}
);
layerId = "B5042207-EFBA-41B6-8DFD-104A953B46A6";
shapes = (
{
closed = 1;
nodes = (
(430,1385,o),
(162,1370,o),
(100,1342,c),
(283,875,o),
(418,509,o),
(770,12,c),
(969,242,o),
(1262,960,o),
(1340,1333,c),
(1300,1354,o),
(1012,1391,o),
(935,1395,c),
(930,1340,o),
(910,1119,o),
(859,1003,c),
(767,1004,o),
(653,999,o),
(580,1004,c),
(543,1110,o),
(514,1346,o),
(505,1405,c)
);
},
{
closed = 1;
nodes = (
(689,734,o),
(761,732,o),
(817,731,c),
(803,668,o),
(756,522,o),
(739,492,c),
(715,549,o),
(662,650,o),
(636,737,c)
);
}
);
width = 1440;
}
);
unicode = 8704;
},
{
glyphname = perpendicular;
lastChange = "2024-11-28 19:43:00 +0000";
layers = (
{
layerId = "B5195C1E-69AB-4BC6-9855-DF55601A0735";
shapes = (
{
closed = 1;
nodes = (
(490,1006,o),
(462,1006,o),
(447,1005,c),
(447,795,o),
(440,140,o),
(429,12,c),
(446,9,o),
(468,7,o),
(490,7,c),
(499,92,o),
(511,613,o),
(511,779,cs),
(511,882,o),
(511,966,o),
(509,1006,c)
);
},
{
closed = 1;
nodes = (
(873,29,o),
(873,57,o),
(870,72,c),
(558,72,o),
(278,79,o),
(86,90,c),
(82,73,o),
(80,51,o),
(80,29,c),
(206,20,o),
(326,8,o),
(574,8,cs),
(727,8,o),
(813,8,o),
(873,10,c)
);
}
);
width = 953;
},
{
layerId = "B5042207-EFBA-41B6-8DFD-104A953B46A6";
shapes = (
{
closed = 1;
nodes = (
(558,1047,o),
(419,1048,o),
(327,1048,c),
(327,965,o),
(309,207,o),
(297,20,c),
(390,20,o),
(603,35,o),
(651,46,c),
(669,182,o),
(681,349,o),
(681,468,cs),
(681,815,o),
(676,931,o),
(662,1030,c)
);
},
{
closed = 1;
nodes = (
(936,109,o),
(937,248,o),
(937,340,c),
(848,340,o),
(246,358,o),
(44,370,c),
(44,277,o),
(61,64,o),
(73,16,c),
(219,-2,o),
(399,-14,o),
(528,-14,cs),
(686,-14,o),
(811,-9,o),
(918,5,c)
);
}
);
width = 981;
}
);
metricLeft = equal;
metricRight = equal;
unicode = 10178;
},
